<?xml version="1.0" encoding="utf-8" standalone="no"?>
<!DOCTYPE svg PUBLIC "-//W3C//DTD SVG 1.1//EN"
  "http://www.w3.org/Graphics/SVG/1.1/DTD/svg11.dtd">
<svg xmlns:xlink="http://www.w3.org/1999/xlink" width="506.017969pt" height="295.072156pt" viewBox="0 0 506.017969 295.072156" xmlns="http://www.w3.org/2000/svg" version="1.1">
 <metadata>
  <rdf:RDF xmlns:dc="http://purl.org/dc/elements/1.1/" xmlns:cc="http://creativecommons.org/ns#" xmlns:rdf="http://www.w3.org/1999/02/22-rdf-syntax-ns#">
   <cc:Work>
    <dc:type rdf:resource="http://purl.org/dc/dcmitype/StillImage"/>
    <dc:date>2026-08-02T18:48:19.653155</dc:date>
    <dc:format>image/svg+xml</dc:format>
    <dc:creator>
     <cc:Agent>
      <dc:title>Matplotlib v3.10.8, https://matplotlib.org/</dc:title>
     </cc:Agent>
    </dc:creator>
   </cc:Work>
  </rdf:RDF>
 </metadata>
 <defs>
  <style type="text/css">*{stroke-linejoin: round; stroke-linecap: butt}</style>
 </defs>
 <g id="figure_1">
  <g id="patch_1">
   <path d="M 0 295.072156 
L 506.017969 295.072156 
L 506.017969 0 
L 0 0 
L 0 295.072156 
z
" style="fill: none"/>
  </g>
  <g id="axes_1">
   <g id="patch_2">
    <path d="M 43.977969 257.032 
L 498.817969 257.032 
L 498.817969 22.32 
L 43.977969 22.32 
L 43.977969 257.032 
z
" style="fill: none"/>
   </g>
   <g id="matplotlib.axis_1">
    <g id="xtick_1">
     <g id="line2d_1">
      <path d="M 43.977969 257.032 
L 43.977969 22.32 
" clip-path="url(#p158e2e611c)" style="fill: none; stroke: #3a3a37; stroke-opacity: 0.55; stroke-width: 0.7; stroke-linecap: square"/>
     </g>
     <g id="line2d_2">
      <defs>
       <path id="m454a77ff76" d="M 0 0 
L 0 3.5 
" style="stroke: #c3c2b7; stroke-width: 0.8"/>
      </defs>
      <g>
       <use xlink:href="#m454a77ff76" x="43.977969" y="257.032" style="fill: #c3c2b7; stroke: #c3c2b7; stroke-width: 0.8"/>
      </g>
     </g>
     <g id="text_1">
      <!-- −8 -->
      <g style="fill: #c3c2b7" transform="translate(36.97543 271.250516) scale(0.095 -0.095)">
       <defs>
        <path id="DejaVuSans-2212" d="M 678 2272 
L 4684 2272 
L 4684 1741 
L 678 1741 
L 678 2272 
z
" transform="scale(0.015625)"/>
        <path id="DejaVuSans-38" d="M 2034 2216 
Q 1584 2216 1326 1975 
Q 1069 1734 1069 1313 
Q 1069 891 1326 650 
Q 1584 409 2034 409 
Q 2484 409 2743 651 
Q 3003 894 3003 1313 
Q 3003 1734 2745 1975 
Q 2488 2216 2034 2216 
z
M 1403 2484 
Q 997 2584 770 2862 
Q 544 3141 544 3541 
Q 544 4100 942 4425 
Q 1341 4750 2034 4750 
Q 2731 4750 3128 4425 
Q 3525 4100 3525 3541 
Q 3525 3141 3298 2862 
Q 3072 2584 2669 2484 
Q 3125 2378 3379 2068 
Q 3634 1759 3634 1313 
Q 3634 634 3220 271 
Q 2806 -91 2034 -91 
Q 1263 -91 848 271 
Q 434 634 434 1313 
Q 434 1759 690 2068 
Q 947 2378 1403 2484 
z
M 1172 3481 
Q 1172 3119 1398 2916 
Q 1625 2713 2034 2713 
Q 2441 2713 2670 2916 
Q 2900 3119 2900 3481 
Q 2900 3844 2670 4047 
Q 2441 4250 2034 4250 
Q 1625 4250 1398 4047 
Q 1172 3844 1172 3481 
z
" transform="scale(0.015625)"/>
       </defs>
       <use xlink:href="#DejaVuSans-2212"/>
       <use xlink:href="#DejaVuSans-38" transform="translate(83.789062 0)"/>
      </g>
     </g>
    </g>
    <g id="xtick_2">
     <g id="line2d_3">
      <path d="M 99.11009 257.032 
L 99.11009 22.32 
" clip-path="url(#p158e2e611c)" style="fill: none; stroke: #3a3a37; stroke-opacity: 0.55; stroke-width: 0.7; stroke-linecap: square"/>
     </g>
     <g id="line2d_4">
      <g>
       <use xlink:href="#m454a77ff76" x="99.11009" y="257.032" style="fill: #c3c2b7; stroke: #c3c2b7; stroke-width: 0.8"/>
      </g>
     </g>
     <g id="text_2">
      <!-- −6 -->
      <g style="fill: #c3c2b7" transform="translate(92.107551 271.250516) scale(0.095 -0.095)">
       <defs>
        <path id="DejaVuSans-36" d="M 2113 2584 
Q 1688 2584 1439 2293 
Q 1191 2003 1191 1497 
Q 1191 994 1439 701 
Q 1688 409 2113 409 
Q 2538 409 2786 701 
Q 3034 994 3034 1497 
Q 3034 2003 2786 2293 
Q 2538 2584 2113 2584 
z
M 3366 4563 
L 3366 3988 
Q 3128 4100 2886 4159 
Q 2644 4219 2406 4219 
Q 1781 4219 1451 3797 
Q 1122 3375 1075 2522 
Q 1259 2794 1537 2939 
Q 1816 3084 2150 3084 
Q 2853 3084 3261 2657 
Q 3669 2231 3669 1497 
Q 3669 778 3244 343 
Q 2819 -91 2113 -91 
Q 1303 -91 875 529 
Q 447 1150 447 2328 
Q 447 3434 972 4092 
Q 1497 4750 2381 4750 
Q 2619 4750 2861 4703 
Q 3103 4656 3366 4563 
z
" transform="scale(0.015625)"/>
       </defs>
       <use xlink:href="#DejaVuSans-2212"/>
       <use xlink:href="#DejaVuSans-36" transform="translate(83.789062 0)"/>
      </g>
     </g>
    </g>
    <g id="xtick_3">
     <g id="line2d_5">
      <path d="M 154.242211 257.032 
L 154.242211 22.32 
" clip-path="url(#p158e2e611c)" style="fill: none; stroke: #3a3a37; stroke-opacity: 0.55; stroke-width: 0.7; stroke-linecap: square"/>
     </g>
     <g id="line2d_6">
      <g>
       <use xlink:href="#m454a77ff76" x="154.242211" y="257.032" style="fill: #c3c2b7; stroke: #c3c2b7; stroke-width: 0.8"/>
      </g>
     </g>
     <g id="text_3">
      <!-- −4 -->
      <g style="fill: #c3c2b7" transform="translate(147.239672 271.250516) scale(0.095 -0.095)">
       <defs>
        <path id="DejaVuSans-34" d="M 2419 4116 
L 825 1625 
L 2419 1625 
L 2419 4116 
z
M 2253 4666 
L 3047 4666 
L 3047 1625 
L 3713 1625 
L 3713 1100 
L 3047 1100 
L 3047 0 
L 2419 0 
L 2419 1100 
L 313 1100 
L 313 1709 
L 2253 4666 
z
" transform="scale(0.015625)"/>
       </defs>
       <use xlink:href="#DejaVuSans-2212"/>
       <use xlink:href="#DejaVuSans-34" transform="translate(83.789062 0)"/>
      </g>
     </g>
    </g>
    <g id="xtick_4">
     <g id="line2d_7">
      <path d="M 209.374332 257.032 
L 209.374332 22.32 
" clip-path="url(#p158e2e611c)" style="fill: none; stroke: #3a3a37; stroke-opacity: 0.55; stroke-width: 0.7; stroke-linecap: square"/>
     </g>
     <g id="line2d_8">
      <g>
       <use xlink:href="#m454a77ff76" x="209.374332" y="257.032" style="fill: #c3c2b7; stroke: #c3c2b7; stroke-width: 0.8"/>
      </g>
     </g>
     <g id="text_4">
      <!-- −2 -->
      <g style="fill: #c3c2b7" transform="translate(202.371793 271.250516) scale(0.095 -0.095)">
       <defs>
        <path id="DejaVuSans-32" d="M 1228 531 
L 3431 531 
L 3431 0 
L 469 0 
L 469 531 
Q 828 903 1448 1529 
Q 2069 2156 2228 2338 
Q 2531 2678 2651 2914 
Q 2772 3150 2772 3378 
Q 2772 3750 2511 3984 
Q 2250 4219 1831 4219 
Q 1534 4219 1204 4116 
Q 875 4013 500 3803 
L 500 4441 
Q 881 4594 1212 4672 
Q 1544 4750 1819 4750 
Q 2544 4750 2975 4387 
Q 3406 4025 3406 3419 
Q 3406 3131 3298 2873 
Q 3191 2616 2906 2266 
Q 2828 2175 2409 1742 
Q 1991 1309 1228 531 
z
" transform="scale(0.015625)"/>
       </defs>
       <use xlink:href="#DejaVuSans-2212"/>
       <use xlink:href="#DejaVuSans-32" transform="translate(83.789062 0)"/>
      </g>
     </g>
    </g>
    <g id="xtick_5">
     <g id="line2d_9">
      <path d="M 264.506454 257.032 
L 264.506454 22.32 
" clip-path="url(#p158e2e611c)" style="fill: none; stroke: #3a3a37; stroke-opacity: 0.55; stroke-width: 0.7; stroke-linecap: square"/>
     </g>
     <g id="line2d_10">
      <g>
       <use xlink:href="#m454a77ff76" x="264.506454" y="257.032" style="fill: #c3c2b7; stroke: #c3c2b7; stroke-width: 0.8"/>
      </g>
     </g>
     <g id="text_5">
      <!-- 0 -->
      <g style="fill: #c3c2b7" transform="translate(261.484266 271.250516) scale(0.095 -0.095)">
       <defs>
        <path id="DejaVuSans-30" d="M 2034 4250 
Q 1547 4250 1301 3770 
Q 1056 3291 1056 2328 
Q 1056 1369 1301 889 
Q 1547 409 2034 409 
Q 2525 409 2770 889 
Q 3016 1369 3016 2328 
Q 3016 3291 2770 3770 
Q 2525 4250 2034 4250 
z
M 2034 4750 
Q 2819 4750 3233 4129 
Q 3647 3509 3647 2328 
Q 3647 1150 3233 529 
Q 2819 -91 2034 -91 
Q 1250 -91 836 529 
Q 422 1150 422 2328 
Q 422 3509 836 4129 
Q 1250 4750 2034 4750 
z
" transform="scale(0.015625)"/>
       </defs>
       <use xlink:href="#DejaVuSans-30"/>
      </g>
     </g>
    </g>
    <g id="xtick_6">
     <g id="line2d_11">
      <path d="M 319.638575 257.032 
L 319.638575 22.32 
" clip-path="url(#p158e2e611c)" style="fill: none; stroke: #3a3a37; stroke-opacity: 0.55; stroke-width: 0.7; stroke-linecap: square"/>
     </g>
     <g id="line2d_12">
      <g>
       <use xlink:href="#m454a77ff76" x="319.638575" y="257.032" style="fill: #c3c2b7; stroke: #c3c2b7; stroke-width: 0.8"/>
      </g>
     </g>
     <g id="text_6">
      <!-- 2 -->
      <g style="fill: #c3c2b7" transform="translate(316.616387 271.250516) scale(0.095 -0.095)">
       <use xlink:href="#DejaVuSans-32"/>
      </g>
     </g>
    </g>
    <g id="xtick_7">
     <g id="line2d_13">
      <path d="M 374.770696 257.032 
L 374.770696 22.32 
" clip-path="url(#p158e2e611c)" style="fill: none; stroke: #3a3a37; stroke-opacity: 0.55; stroke-width: 0.7; stroke-linecap: square"/>
     </g>
     <g id="line2d_14">
      <g>
       <use xlink:href="#m454a77ff76" x="374.770696" y="257.032" style="fill: #c3c2b7; stroke: #c3c2b7; stroke-width: 0.8"/>
      </g>
     </g>
     <g id="text_7">
      <!-- 4 -->
      <g style="fill: #c3c2b7" transform="translate(371.748509 271.250516) scale(0.095 -0.095)">
       <use xlink:href="#DejaVuSans-34"/>
      </g>
     </g>
    </g>
    <g id="xtick_8">
     <g id="line2d_15">
      <path d="M 429.902817 257.032 
L 429.902817 22.32 
" clip-path="url(#p158e2e611c)" style="fill: none; stroke: #3a3a37; stroke-opacity: 0.55; stroke-width: 0.7; stroke-linecap: square"/>
     </g>
     <g id="line2d_16">
      <g>
       <use xlink:href="#m454a77ff76" x="429.902817" y="257.032" style="fill: #c3c2b7; stroke: #c3c2b7; stroke-width: 0.8"/>
      </g>
     </g>
     <g id="text_8">
      <!-- 6 -->
      <g style="fill: #c3c2b7" transform="translate(426.88063 271.250516) scale(0.095 -0.095)">
       <use xlink:href="#DejaVuSans-36"/>
      </g>
     </g>
    </g>
    <g id="xtick_9">
     <g id="line2d_17">
      <path d="M 485.034938 257.032 
L 485.034938 22.32 
" clip-path="url(#p158e2e611c)" style="fill: none; stroke: #3a3a37; stroke-opacity: 0.55; stroke-width: 0.7; stroke-linecap: square"/>
     </g>
     <g id="line2d_18">
      <g>
       <use xlink:href="#m454a77ff76" x="485.034938" y="257.032" style="fill: #c3c2b7; stroke: #c3c2b7; stroke-width: 0.8"/>
      </g>
     </g>
     <g id="text_9">
      <!-- 8 -->
      <g style="fill: #c3c2b7" transform="translate(482.012751 271.250516) scale(0.095 -0.095)">
       <use xlink:href="#DejaVuSans-38"/>
      </g>
     </g>
    </g>
    <g id="text_10">
     <!-- $(E-E_F)/k_BT$ -->
     <g style="fill: #c3c2b7" transform="translate(239.827969 285.5845) scale(0.11 -0.11)">
      <defs>
       <path id="DejaVuSans-28" d="M 1984 4856 
Q 1566 4138 1362 3434 
Q 1159 2731 1159 2009 
Q 1159 1288 1364 580 
Q 1569 -128 1984 -844 
L 1484 -844 
Q 1016 -109 783 600 
Q 550 1309 550 2009 
Q 550 2706 781 3412 
Q 1013 4119 1484 4856 
L 1984 4856 
z
" transform="scale(0.015625)"/>
       <path id="DejaVuSans-Oblique-45" d="M 1081 4666 
L 4031 4666 
L 3928 4134 
L 1606 4134 
L 1338 2753 
L 3566 2753 
L 3463 2222 
L 1234 2222 
L 909 531 
L 3284 531 
L 3181 0 
L 172 0 
L 1081 4666 
z
" transform="scale(0.015625)"/>
       <path id="DejaVuSans-Oblique-46" d="M 1081 4666 
L 3756 4666 
L 3653 4134 
L 1606 4134 
L 1338 2759 
L 3188 2759 
L 3084 2228 
L 1234 2228 
L 800 0 
L 172 0 
L 1081 4666 
z
" transform="scale(0.015625)"/>
       <path id="DejaVuSans-29" d="M 513 4856 
L 1013 4856 
Q 1481 4119 1714 3412 
Q 1947 2706 1947 2009 
Q 1947 1309 1714 600 
Q 1481 -109 1013 -844 
L 513 -844 
Q 928 -128 1133 580 
Q 1338 1288 1338 2009 
Q 1338 2731 1133 3434 
Q 928 4138 513 4856 
z
" transform="scale(0.015625)"/>
       <path id="DejaVuSans-2f" d="M 1625 4666 
L 2156 4666 
L 531 -594 
L 0 -594 
L 1625 4666 
z
" transform="scale(0.015625)"/>
       <path id="DejaVuSans-Oblique-6b" d="M 1172 4863 
L 1747 4863 
L 1197 2028 
L 3169 3500 
L 3916 3500 
L 1716 1825 
L 3322 0 
L 2625 0 
L 1131 1709 
L 800 0 
L 225 0 
L 1172 4863 
z
" transform="scale(0.015625)"/>
       <path id="DejaVuSans-Oblique-42" d="M 1081 4666 
L 2694 4666 
Q 3350 4666 3675 4422 
Q 4000 4178 4000 3688 
Q 4000 3238 3720 2911 
Q 3441 2584 2988 2516 
Q 3375 2428 3569 2181 
Q 3763 1934 3763 1522 
Q 3763 819 3242 409 
Q 2722 0 1819 0 
L 172 0 
L 1081 4666 
z
M 1234 2228 
L 903 519 
L 1919 519 
Q 2491 519 2800 781 
Q 3109 1044 3109 1522 
Q 3109 1891 2904 2059 
Q 2700 2228 2247 2228 
L 1234 2228 
z
M 1606 4147 
L 1331 2741 
L 2272 2741 
Q 2775 2741 3058 2959 
Q 3341 3178 3341 3566 
Q 3341 3869 3150 4008 
Q 2959 4147 2541 4147 
L 1606 4147 
z
" transform="scale(0.015625)"/>
       <path id="DejaVuSans-Oblique-54" d="M 378 4666 
L 4325 4666 
L 4225 4134 
L 2559 4134 
L 1759 0 
L 1125 0 
L 1925 4134 
L 275 4134 
L 378 4666 
z
" transform="scale(0.015625)"/>
      </defs>
      <use xlink:href="#DejaVuSans-28" transform="translate(0 0.015625)"/>
      <use xlink:href="#DejaVuSans-Oblique-45" transform="translate(39.013672 0.015625)"/>
      <use xlink:href="#DejaVuSans-2212" transform="translate(121.679688 0.015625)"/>
      <use xlink:href="#DejaVuSans-Oblique-45" transform="translate(224.951172 0.015625)"/>
      <use xlink:href="#DejaVuSans-Oblique-46" transform="translate(288.134766 -16.390625) scale(0.7)"/>
      <use xlink:href="#DejaVuSans-29" transform="translate(331.132812 0.015625)"/>
      <use xlink:href="#DejaVuSans-2f" transform="translate(370.146484 0.015625)"/>
      <use xlink:href="#DejaVuSans-Oblique-6b" transform="translate(403.837891 0.015625)"/>
      <use xlink:href="#DejaVuSans-Oblique-42" transform="translate(461.748047 -16.390625) scale(0.7)"/>
      <use xlink:href="#DejaVuSans-Oblique-54" transform="translate(512.504883 0.015625)"/>
     </g>
    </g>
   </g>
   <g id="matplotlib.axis_2">
    <g id="ytick_1">
     <g id="line2d_19">
      <path d="M 43.977969 257.032 
L 498.817969 257.032 
" clip-path="url(#p158e2e611c)" style="fill: none; stroke: #3a3a37; stroke-opacity: 0.55; stroke-width: 0.7; stroke-linecap: square"/>
     </g>
     <g id="line2d_20">
      <defs>
       <path id="mbb66eeaa69" d="M 0 0 
L -3.5 0 
" style="stroke: #c3c2b7; stroke-width: 0.8"/>
      </defs>
      <g>
       <use xlink:href="#mbb66eeaa69" x="43.977969" y="257.032" style="fill: #c3c2b7; stroke: #c3c2b7; stroke-width: 0.8"/>
      </g>
     </g>
     <g id="text_11">
      <!-- 0.0 -->
      <g style="fill: #c3c2b7" transform="translate(21.87 260.641258) scale(0.095 -0.095)">
       <defs>
        <path id="DejaVuSans-2e" d="M 684 794 
L 1344 794 
L 1344 0 
L 684 0 
L 684 794 
z
" transform="scale(0.015625)"/>
       </defs>
       <use xlink:href="#DejaVuSans-30"/>
       <use xlink:href="#DejaVuSans-2e" transform="translate(63.623047 0)"/>
       <use xlink:href="#DejaVuSans-30" transform="translate(95.410156 0)"/>
      </g>
     </g>
    </g>
    <g id="ytick_2">
     <g id="line2d_21">
      <path d="M 43.977969 216.212522 
L 498.817969 216.212522 
" clip-path="url(#p158e2e611c)" style="fill: none; stroke: #3a3a37; stroke-opacity: 0.55; stroke-width: 0.7; stroke-linecap: square"/>
     </g>
     <g id="line2d_22">
      <g>
       <use xlink:href="#mbb66eeaa69" x="43.977969" y="216.212522" style="fill: #c3c2b7; stroke: #c3c2b7; stroke-width: 0.8"/>
      </g>
     </g>
     <g id="text_12">
      <!-- 0.2 -->
      <g style="fill: #c3c2b7" transform="translate(21.87 219.82178) scale(0.095 -0.095)">
       <use xlink:href="#DejaVuSans-30"/>
       <use xlink:href="#DejaVuSans-2e" transform="translate(63.623047 0)"/>
       <use xlink:href="#DejaVuSans-32" transform="translate(95.410156 0)"/>
      </g>
     </g>
    </g>
    <g id="ytick_3">
     <g id="line2d_23">
      <path d="M 43.977969 175.393043 
L 498.817969 175.393043 
" clip-path="url(#p158e2e611c)" style="fill: none; stroke: #3a3a37; stroke-opacity: 0.55; stroke-width: 0.7; stroke-linecap: square"/>
     </g>
     <g id="line2d_24">
      <g>
       <use xlink:href="#mbb66eeaa69" x="43.977969" y="175.393043" style="fill: #c3c2b7; stroke: #c3c2b7; stroke-width: 0.8"/>
      </g>
     </g>
     <g id="text_13">
      <!-- 0.4 -->
      <g style="fill: #c3c2b7" transform="translate(21.87 179.002301) scale(0.095 -0.095)">
       <use xlink:href="#DejaVuSans-30"/>
       <use xlink:href="#DejaVuSans-2e" transform="translate(63.623047 0)"/>
       <use xlink:href="#DejaVuSans-34" transform="translate(95.410156 0)"/>
      </g>
     </g>
    </g>
    <g id="ytick_4">
     <g id="line2d_25">
      <path d="M 43.977969 134.573565 
L 498.817969 134.573565 
" clip-path="url(#p158e2e611c)" style="fill: none; stroke: #3a3a37; stroke-opacity: 0.55; stroke-width: 0.7; stroke-linecap: square"/>
     </g>
     <g id="line2d_26">
      <g>
       <use xlink:href="#mbb66eeaa69" x="43.977969" y="134.573565" style="fill: #c3c2b7; stroke: #c3c2b7; stroke-width: 0.8"/>
      </g>
     </g>
     <g id="text_14">
      <!-- 0.6 -->
      <g style="fill: #c3c2b7" transform="translate(21.87 138.182823) scale(0.095 -0.095)">
       <use xlink:href="#DejaVuSans-30"/>
       <use xlink:href="#DejaVuSans-2e" transform="translate(63.623047 0)"/>
       <use xlink:href="#DejaVuSans-36" transform="translate(95.410156 0)"/>
      </g>
     </g>
    </g>
    <g id="ytick_5">
     <g id="line2d_27">
      <path d="M 43.977969 93.754087 
L 498.817969 93.754087 
" clip-path="url(#p158e2e611c)" style="fill: none; stroke: #3a3a37; stroke-opacity: 0.55; stroke-width: 0.7; stroke-linecap: square"/>
     </g>
     <g id="line2d_28">
      <g>
       <use xlink:href="#mbb66eeaa69" x="43.977969" y="93.754087" style="fill: #c3c2b7; stroke: #c3c2b7; stroke-width: 0.8"/>
      </g>
     </g>
     <g id="text_15">
      <!-- 0.8 -->
      <g style="fill: #c3c2b7" transform="translate(21.87 97.363345) scale(0.095 -0.095)">
       <use xlink:href="#DejaVuSans-30"/>
       <use xlink:href="#DejaVuSans-2e" transform="translate(63.623047 0)"/>
       <use xlink:href="#DejaVuSans-38" transform="translate(95.410156 0)"/>
      </g>
     </g>
    </g>
    <g id="ytick_6">
     <g id="line2d_29">
      <path d="M 43.977969 52.934609 
L 498.817969 52.934609 
" clip-path="url(#p158e2e611c)" style="fill: none; stroke: #3a3a37; stroke-opacity: 0.55; stroke-width: 0.7; stroke-linecap: square"/>
     </g>
     <g id="line2d_30">
      <g>
       <use xlink:href="#mbb66eeaa69" x="43.977969" y="52.934609" style="fill: #c3c2b7; stroke: #c3c2b7; stroke-width: 0.8"/>
      </g>
     </g>
     <g id="text_16">
      <!-- 1.0 -->
      <g style="fill: #c3c2b7" transform="translate(21.87 56.543867) scale(0.095 -0.095)">
       <defs>
        <path id="DejaVuSans-31" d="M 794 531 
L 1825 531 
L 1825 4091 
L 703 3866 
L 703 4441 
L 1819 4666 
L 2450 4666 
L 2450 531 
L 3481 531 
L 3481 0 
L 794 0 
L 794 531 
z
" transform="scale(0.015625)"/>
       </defs>
       <use xlink:href="#DejaVuSans-31"/>
       <use xlink:href="#DejaVuSans-2e" transform="translate(63.623047 0)"/>
       <use xlink:href="#DejaVuSans-30" transform="translate(95.410156 0)"/>
      </g>
     </g>
    </g>
    <g id="text_17">
     <!-- occupation  $f(E)$ -->
     <g style="fill: #c3c2b7" transform="translate(15.56 183.181) rotate(-90) scale(0.11 -0.11)">
      <defs>
       <path id="DejaVuSans-6f" d="M 1959 3097 
Q 1497 3097 1228 2736 
Q 959 2375 959 1747 
Q 959 1119 1226 758 
Q 1494 397 1959 397 
Q 2419 397 2687 759 
Q 2956 1122 2956 1747 
Q 2956 2369 2687 2733 
Q 2419 3097 1959 3097 
z
M 1959 3584 
Q 2709 3584 3137 3096 
Q 3566 2609 3566 1747 
Q 3566 888 3137 398 
Q 2709 -91 1959 -91 
Q 1206 -91 779 398 
Q 353 888 353 1747 
Q 353 2609 779 3096 
Q 1206 3584 1959 3584 
z
" transform="scale(0.015625)"/>
       <path id="DejaVuSans-63" d="M 3122 3366 
L 3122 2828 
Q 2878 2963 2633 3030 
Q 2388 3097 2138 3097 
Q 1578 3097 1268 2742 
Q 959 2388 959 1747 
Q 959 1106 1268 751 
Q 1578 397 2138 397 
Q 2388 397 2633 464 
Q 2878 531 3122 666 
L 3122 134 
Q 2881 22 2623 -34 
Q 2366 -91 2075 -91 
Q 1284 -91 818 406 
Q 353 903 353 1747 
Q 353 2603 823 3093 
Q 1294 3584 2113 3584 
Q 2378 3584 2631 3529 
Q 2884 3475 3122 3366 
z
" transform="scale(0.015625)"/>
       <path id="DejaVuSans-75" d="M 544 1381 
L 544 3500 
L 1119 3500 
L 1119 1403 
Q 1119 906 1312 657 
Q 1506 409 1894 409 
Q 2359 409 2629 706 
Q 2900 1003 2900 1516 
L 2900 3500 
L 3475 3500 
L 3475 0 
L 2900 0 
L 2900 538 
Q 2691 219 2414 64 
Q 2138 -91 1772 -91 
Q 1169 -91 856 284 
Q 544 659 544 1381 
z
M 1991 3584 
L 1991 3584 
z
" transform="scale(0.015625)"/>
       <path id="DejaVuSans-70" d="M 1159 525 
L 1159 -1331 
L 581 -1331 
L 581 3500 
L 1159 3500 
L 1159 2969 
Q 1341 3281 1617 3432 
Q 1894 3584 2278 3584 
Q 2916 3584 3314 3078 
Q 3713 2572 3713 1747 
Q 3713 922 3314 415 
Q 2916 -91 2278 -91 
Q 1894 -91 1617 61 
Q 1341 213 1159 525 
z
M 3116 1747 
Q 3116 2381 2855 2742 
Q 2594 3103 2138 3103 
Q 1681 3103 1420 2742 
Q 1159 2381 1159 1747 
Q 1159 1113 1420 752 
Q 1681 391 2138 391 
Q 2594 391 2855 752 
Q 3116 1113 3116 1747 
z
" transform="scale(0.015625)"/>
       <path id="DejaVuSans-61" d="M 2194 1759 
Q 1497 1759 1228 1600 
Q 959 1441 959 1056 
Q 959 750 1161 570 
Q 1363 391 1709 391 
Q 2188 391 2477 730 
Q 2766 1069 2766 1631 
L 2766 1759 
L 2194 1759 
z
M 3341 1997 
L 3341 0 
L 2766 0 
L 2766 531 
Q 2569 213 2275 61 
Q 1981 -91 1556 -91 
Q 1019 -91 701 211 
Q 384 513 384 1019 
Q 384 1609 779 1909 
Q 1175 2209 1959 2209 
L 2766 2209 
L 2766 2266 
Q 2766 2663 2505 2880 
Q 2244 3097 1772 3097 
Q 1472 3097 1187 3025 
Q 903 2953 641 2809 
L 641 3341 
Q 956 3463 1253 3523 
Q 1550 3584 1831 3584 
Q 2591 3584 2966 3190 
Q 3341 2797 3341 1997 
z
" transform="scale(0.015625)"/>
       <path id="DejaVuSans-74" d="M 1172 4494 
L 1172 3500 
L 2356 3500 
L 2356 3053 
L 1172 3053 
L 1172 1153 
Q 1172 725 1289 603 
Q 1406 481 1766 481 
L 2356 481 
L 2356 0 
L 1766 0 
Q 1100 0 847 248 
Q 594 497 594 1153 
L 594 3053 
L 172 3053 
L 172 3500 
L 594 3500 
L 594 4494 
L 1172 4494 
z
" transform="scale(0.015625)"/>
       <path id="DejaVuSans-69" d="M 603 3500 
L 1178 3500 
L 1178 0 
L 603 0 
L 603 3500 
z
M 603 4863 
L 1178 4863 
L 1178 4134 
L 603 4134 
L 603 4863 
z
" transform="scale(0.015625)"/>
       <path id="DejaVuSans-6e" d="M 3513 2113 
L 3513 0 
L 2938 0 
L 2938 2094 
Q 2938 2591 2744 2837 
Q 2550 3084 2163 3084 
Q 1697 3084 1428 2787 
Q 1159 2491 1159 1978 
L 1159 0 
L 581 0 
L 581 3500 
L 1159 3500 
L 1159 2956 
Q 1366 3272 1645 3428 
Q 1925 3584 2291 3584 
Q 2894 3584 3203 3211 
Q 3513 2838 3513 2113 
z
" transform="scale(0.015625)"/>
       <path id="DejaVuSans-20" transform="scale(0.015625)"/>
       <path id="DejaVuSans-Oblique-66" d="M 3059 4863 
L 2969 4384 
L 2419 4384 
Q 2106 4384 1964 4261 
Q 1822 4138 1753 3809 
L 1691 3500 
L 2638 3500 
L 2553 3053 
L 1606 3053 
L 1013 0 
L 434 0 
L 1031 3053 
L 481 3053 
L 563 3500 
L 1113 3500 
L 1159 3744 
Q 1278 4363 1576 4613 
Q 1875 4863 2516 4863 
L 3059 4863 
z
" transform="scale(0.015625)"/>
      </defs>
      <use xlink:href="#DejaVuSans-6f" transform="translate(0 0.015625)"/>
      <use xlink:href="#DejaVuSans-63" transform="translate(61.181641 0.015625)"/>
      <use xlink:href="#DejaVuSans-63" transform="translate(116.162109 0.015625)"/>
      <use xlink:href="#DejaVuSans-75" transform="translate(171.142578 0.015625)"/>
      <use xlink:href="#DejaVuSans-70" transform="translate(234.521484 0.015625)"/>
      <use xlink:href="#DejaVuSans-61" transform="translate(297.998047 0.015625)"/>
      <use xlink:href="#DejaVuSans-74" transform="translate(359.277344 0.015625)"/>
      <use xlink:href="#DejaVuSans-69" transform="translate(398.486328 0.015625)"/>
      <use xlink:href="#DejaVuSans-6f" transform="translate(426.269531 0.015625)"/>
      <use xlink:href="#DejaVuSans-6e" transform="translate(487.451172 0.015625)"/>
      <use xlink:href="#DejaVuSans-20" transform="translate(550.830078 0.015625)"/>
      <use xlink:href="#DejaVuSans-20" transform="translate(582.617188 0.015625)"/>
      <use xlink:href="#DejaVuSans-Oblique-66" transform="translate(614.404297 0.015625)"/>
      <use xlink:href="#DejaVuSans-28" transform="translate(649.609375 0.015625)"/>
      <use xlink:href="#DejaVuSans-Oblique-45" transform="translate(688.623047 0.015625)"/>
      <use xlink:href="#DejaVuSans-29" transform="translate(751.806641 0.015625)"/>
     </g>
    </g>
   </g>
   <g id="line2d_31">
    <path d="M 43.977969 53.003053 
L 81.984882 53.206059 
L 103.198043 53.519706 
L 118.224032 53.941671 
L 130.598376 54.507859 
L 140.321074 55.165931 
L 148.27601 55.901519 
L 155.347063 56.752859 
L 161.534235 57.691264 
L 167.721407 58.853482 
L 173.024697 60.065226 
L 178.327988 61.514304 
L 182.747396 62.933117 
L 187.166805 64.572591 
L 191.586213 66.462156 
L 196.005622 68.633491 
L 199.541148 70.595897 
L 203.076675 72.777773 
L 206.612202 75.19701 
L 210.147729 77.871278 
L 213.683256 80.817532 
L 217.218782 84.051426 
L 220.754309 87.586635 
L 224.289836 91.434091 
L 227.825363 95.601167 
L 231.36089 100.09084 
L 234.896417 104.900865 
L 239.315825 111.350797 
L 243.735234 118.257534 
L 248.154642 125.573704 
L 253.457932 134.802106 
L 260.528986 147.63382 
L 276.438857 176.731467 
L 281.742147 185.886047 
L 286.161555 193.124939 
L 290.580964 199.943558 
L 295.000372 206.297943 
L 298.535899 211.028404 
L 302.071426 215.437421 
L 305.606953 219.524127 
L 309.14248 223.292677 
L 312.678006 226.751411 
L 316.213533 229.912023 
L 319.74906 232.788751 
L 323.284587 235.397635 
L 326.820114 237.755859 
L 330.35564 239.881191 
L 333.891167 241.791513 
L 338.310576 243.903864 
L 342.729984 245.740944 
L 347.149393 247.334008 
L 351.568801 248.712005 
L 356.872092 250.118772 
L 362.175382 251.294649 
L 368.362554 252.422054 
L 374.549726 253.332052 
L 381.620779 254.157394 
L 389.575715 254.870342 
L 399.298413 255.508024 
L 410.788875 256.024938 
L 424.930983 256.427894 
L 443.492498 256.723459 
L 470.892831 256.917701 
L 485.034938 256.963556 
L 485.034938 256.963556 
" clip-path="url(#p158e2e611c)" style="fill: none; stroke: #3987e5; stroke-width: 2.2; stroke-linecap: square"/>
   </g>
   <g id="line2d_32">
    <path d="M 43.977969 22.32 
L 260.528986 22.32 
L 261.412868 28.695199 
L 264.064513 49.636136 
L 266.716158 68.656565 
L 269.367803 85.932616 
L 272.019448 101.624267 
L 274.671093 115.876826 
L 277.322738 128.822271 
L 279.974383 140.580481 
L 282.626029 151.260336 
L 285.277674 160.960734 
L 287.929319 169.771501 
L 290.580964 177.774226 
L 293.232609 185.043015 
L 295.884254 191.645178 
L 298.535899 197.641852 
L 301.187544 203.088567 
L 303.839189 208.035759 
L 306.490834 212.529241 
L 309.14248 216.610622 
L 311.794125 220.317696 
L 314.44577 223.684792 
L 317.097415 226.743089 
L 319.74906 229.520908 
L 322.400705 232.043971 
L 325.936232 235.051837 
L 329.471759 237.697639 
L 333.007286 240.02496 
L 336.542812 242.072137 
L 340.078339 243.87289 
L 343.613866 245.456882 
L 348.033275 247.171497 
L 352.452683 248.632128 
L 356.872092 249.876396 
L 362.175382 251.128702 
L 367.478672 252.161842 
L 373.665844 253.140956 
L 380.736898 254.021325 
L 388.691833 254.776014 
L 397.53065 255.394868 
L 408.13723 255.917756 
L 421.395456 256.343187 
L 439.07309 256.66926 
L 463.821778 256.884195 
L 485.034938 256.963533 
L 485.034938 256.963533 
" clip-path="url(#p158e2e611c)" style="fill: none; stroke-dasharray: 6.66,2.88; stroke-dashoffset: 0; stroke: #d95926; stroke-width: 1.8"/>
   </g>
   <g id="line2d_33">
    <path d="M 264.506454 257.032 
L 264.506454 22.32 
" clip-path="url(#p158e2e611c)" style="fill: none; stroke-dasharray: 1,1.65; stroke-dashoffset: 0; stroke: #6f6e68"/>
   </g>
   <g id="patch_3">
    <path d="M 43.977969 257.032 
L 43.977969 22.32 
" style="fill: none; stroke: #3a3a37; stroke-linejoin: miter; stroke-linecap: square"/>
   </g>
   <g id="patch_4">
    <path d="M 43.977969 257.032 
L 498.817969 257.032 
" style="fill: none; stroke: #3a3a37; stroke-linejoin: miter; stroke-linecap: square"/>
   </g>
   <g id="text_18">
    <!-- Fermi-Dirac -->
    <g style="fill: #3987e5" transform="translate(386.283908 246.776034) scale(0.1 -0.1)">
     <defs>
      <path id="DejaVuSans-Bold-46" d="M 588 4666 
L 3834 4666 
L 3834 3756 
L 1791 3756 
L 1791 2888 
L 3713 2888 
L 3713 1978 
L 1791 1978 
L 1791 0 
L 588 0 
L 588 4666 
z
" transform="scale(0.015625)"/>
      <path id="DejaVuSans-Bold-65" d="M 4031 1759 
L 4031 1441 
L 1416 1441 
Q 1456 1047 1700 850 
Q 1944 653 2381 653 
Q 2734 653 3104 758 
Q 3475 863 3866 1075 
L 3866 213 
Q 3469 63 3072 -14 
Q 2675 -91 2278 -91 
Q 1328 -91 801 392 
Q 275 875 275 1747 
Q 275 2603 792 3093 
Q 1309 3584 2216 3584 
Q 3041 3584 3536 3087 
Q 4031 2591 4031 1759 
z
M 2881 2131 
Q 2881 2450 2695 2645 
Q 2509 2841 2209 2841 
Q 1884 2841 1681 2658 
Q 1478 2475 1428 2131 
L 2881 2131 
z
" transform="scale(0.015625)"/>
      <path id="DejaVuSans-Bold-72" d="M 3138 2547 
Q 2991 2616 2845 2648 
Q 2700 2681 2553 2681 
Q 2122 2681 1889 2404 
Q 1656 2128 1656 1613 
L 1656 0 
L 538 0 
L 538 3500 
L 1656 3500 
L 1656 2925 
Q 1872 3269 2151 3426 
Q 2431 3584 2822 3584 
Q 2878 3584 2943 3579 
Q 3009 3575 3134 3559 
L 3138 2547 
z
" transform="scale(0.015625)"/>
      <path id="DejaVuSans-Bold-6d" d="M 3781 2919 
Q 3994 3244 4286 3414 
Q 4578 3584 4928 3584 
Q 5531 3584 5847 3212 
Q 6163 2841 6163 2131 
L 6163 0 
L 5038 0 
L 5038 1825 
Q 5041 1866 5042 1909 
Q 5044 1953 5044 2034 
Q 5044 2406 4934 2573 
Q 4825 2741 4581 2741 
Q 4263 2741 4089 2478 
Q 3916 2216 3909 1719 
L 3909 0 
L 2784 0 
L 2784 1825 
Q 2784 2406 2684 2573 
Q 2584 2741 2328 2741 
Q 2006 2741 1831 2477 
Q 1656 2213 1656 1722 
L 1656 0 
L 531 0 
L 531 3500 
L 1656 3500 
L 1656 2988 
Q 1863 3284 2130 3434 
Q 2397 3584 2719 3584 
Q 3081 3584 3359 3409 
Q 3638 3234 3781 2919 
z
" transform="scale(0.015625)"/>
      <path id="DejaVuSans-Bold-69" d="M 538 3500 
L 1656 3500 
L 1656 0 
L 538 0 
L 538 3500 
z
M 538 4863 
L 1656 4863 
L 1656 3950 
L 538 3950 
L 538 4863 
z
" transform="scale(0.015625)"/>
      <path id="DejaVuSans-Bold-2d" d="M 347 2297 
L 2309 2297 
L 2309 1388 
L 347 1388 
L 347 2297 
z
" transform="scale(0.015625)"/>
      <path id="DejaVuSans-Bold-44" d="M 1791 3756 
L 1791 909 
L 2222 909 
Q 2959 909 3348 1275 
Q 3738 1641 3738 2338 
Q 3738 3031 3350 3393 
Q 2963 3756 2222 3756 
L 1791 3756 
z
M 588 4666 
L 1856 4666 
Q 2919 4666 3439 4514 
Q 3959 4363 4331 4000 
Q 4659 3684 4818 3271 
Q 4978 2859 4978 2338 
Q 4978 1809 4818 1395 
Q 4659 981 4331 666 
Q 3956 303 3431 151 
Q 2906 0 1856 0 
L 588 0 
L 588 4666 
z
" transform="scale(0.015625)"/>
      <path id="DejaVuSans-Bold-61" d="M 2106 1575 
Q 1756 1575 1579 1456 
Q 1403 1338 1403 1106 
Q 1403 894 1545 773 
Q 1688 653 1941 653 
Q 2256 653 2472 879 
Q 2688 1106 2688 1447 
L 2688 1575 
L 2106 1575 
z
M 3816 1997 
L 3816 0 
L 2688 0 
L 2688 519 
Q 2463 200 2181 54 
Q 1900 -91 1497 -91 
Q 953 -91 614 226 
Q 275 544 275 1050 
Q 275 1666 698 1953 
Q 1122 2241 2028 2241 
L 2688 2241 
L 2688 2328 
Q 2688 2594 2478 2717 
Q 2269 2841 1825 2841 
Q 1466 2841 1156 2769 
Q 847 2697 581 2553 
L 581 3406 
Q 941 3494 1303 3539 
Q 1666 3584 2028 3584 
Q 2975 3584 3395 3211 
Q 3816 2838 3816 1997 
z
" transform="scale(0.015625)"/>
      <path id="DejaVuSans-Bold-63" d="M 3366 3391 
L 3366 2478 
Q 3138 2634 2908 2709 
Q 2678 2784 2431 2784 
Q 1963 2784 1702 2511 
Q 1441 2238 1441 1747 
Q 1441 1256 1702 982 
Q 1963 709 2431 709 
Q 2694 709 2930 787 
Q 3166 866 3366 1019 
L 3366 103 
Q 3103 6 2833 -42 
Q 2563 -91 2291 -91 
Q 1344 -91 809 395 
Q 275 881 275 1747 
Q 275 2613 809 3098 
Q 1344 3584 2291 3584 
Q 2566 3584 2833 3536 
Q 3100 3488 3366 3391 
z
" transform="scale(0.015625)"/>
     </defs>
     <use xlink:href="#DejaVuSans-Bold-46"/>
     <use xlink:href="#DejaVuSans-Bold-65" transform="translate(64.310547 0)"/>
     <use xlink:href="#DejaVuSans-Bold-72" transform="translate(132.132812 0)"/>
     <use xlink:href="#DejaVuSans-Bold-6d" transform="translate(181.449219 0)"/>
     <use xlink:href="#DejaVuSans-Bold-69" transform="translate(285.648438 0)"/>
     <use xlink:href="#DejaVuSans-Bold-2d" transform="translate(319.925781 0)"/>
     <use xlink:href="#DejaVuSans-Bold-44" transform="translate(361.429688 0)"/>
     <use xlink:href="#DejaVuSans-Bold-69" transform="translate(444.4375 0)"/>
     <use xlink:href="#DejaVuSans-Bold-72" transform="translate(478.714844 0)"/>
     <use xlink:href="#DejaVuSans-Bold-61" transform="translate(528.03125 0)"/>
     <use xlink:href="#DejaVuSans-Bold-63" transform="translate(595.511719 0)"/>
    </g>
   </g>
   <g id="text_19">
    <!-- Maxwell-Boltzmann -->
    <g style="fill: #d95926" transform="translate(342.178211 234.632331) scale(0.1 -0.1)">
     <defs>
      <path id="DejaVuSans-Bold-4d" d="M 588 4666 
L 2119 4666 
L 3181 2169 
L 4250 4666 
L 5778 4666 
L 5778 0 
L 4641 0 
L 4641 3413 
L 3566 897 
L 2803 897 
L 1728 3413 
L 1728 0 
L 588 0 
L 588 4666 
z
" transform="scale(0.015625)"/>
      <path id="DejaVuSans-Bold-78" d="M 1422 1791 
L 159 3500 
L 1344 3500 
L 2059 2463 
L 2784 3500 
L 3969 3500 
L 2706 1797 
L 4031 0 
L 2847 0 
L 2059 1106 
L 1281 0 
L 97 0 
L 1422 1791 
z
" transform="scale(0.015625)"/>
      <path id="DejaVuSans-Bold-77" d="M 225 3500 
L 1313 3500 
L 1900 1088 
L 2491 3500 
L 3425 3500 
L 4013 1113 
L 4603 3500 
L 5691 3500 
L 4769 0 
L 3547 0 
L 2956 2406 
L 2369 0 
L 1147 0 
L 225 3500 
z
" transform="scale(0.015625)"/>
      <path id="DejaVuSans-Bold-6c" d="M 538 4863 
L 1656 4863 
L 1656 0 
L 538 0 
L 538 4863 
z
" transform="scale(0.015625)"/>
      <path id="DejaVuSans-Bold-42" d="M 2456 2859 
Q 2741 2859 2887 2984 
Q 3034 3109 3034 3353 
Q 3034 3594 2887 3720 
Q 2741 3847 2456 3847 
L 1791 3847 
L 1791 2859 
L 2456 2859 
z
M 2497 819 
Q 2859 819 3042 972 
Q 3225 1125 3225 1434 
Q 3225 1738 3044 1889 
Q 2863 2041 2497 2041 
L 1791 2041 
L 1791 819 
L 2497 819 
z
M 3616 2497 
Q 4003 2384 4215 2081 
Q 4428 1778 4428 1338 
Q 4428 663 3972 331 
Q 3516 0 2584 0 
L 588 0 
L 588 4666 
L 2394 4666 
Q 3366 4666 3802 4372 
Q 4238 4078 4238 3431 
Q 4238 3091 4078 2852 
Q 3919 2613 3616 2497 
z
" transform="scale(0.015625)"/>
      <path id="DejaVuSans-Bold-6f" d="M 2203 2784 
Q 1831 2784 1636 2517 
Q 1441 2250 1441 1747 
Q 1441 1244 1636 976 
Q 1831 709 2203 709 
Q 2569 709 2762 976 
Q 2956 1244 2956 1747 
Q 2956 2250 2762 2517 
Q 2569 2784 2203 2784 
z
M 2203 3584 
Q 3106 3584 3614 3096 
Q 4122 2609 4122 1747 
Q 4122 884 3614 396 
Q 3106 -91 2203 -91 
Q 1297 -91 786 396 
Q 275 884 275 1747 
Q 275 2609 786 3096 
Q 1297 3584 2203 3584 
z
" transform="scale(0.015625)"/>
      <path id="DejaVuSans-Bold-74" d="M 1759 4494 
L 1759 3500 
L 2913 3500 
L 2913 2700 
L 1759 2700 
L 1759 1216 
Q 1759 972 1856 886 
Q 1953 800 2241 800 
L 2816 800 
L 2816 0 
L 1856 0 
Q 1194 0 917 276 
Q 641 553 641 1216 
L 641 2700 
L 84 2700 
L 84 3500 
L 641 3500 
L 641 4494 
L 1759 4494 
z
" transform="scale(0.015625)"/>
      <path id="DejaVuSans-Bold-7a" d="M 366 3500 
L 3419 3500 
L 3419 2719 
L 1575 800 
L 3419 800 
L 3419 0 
L 288 0 
L 288 781 
L 2131 2700 
L 366 2700 
L 366 3500 
z
" transform="scale(0.015625)"/>
      <path id="DejaVuSans-Bold-6e" d="M 4056 2131 
L 4056 0 
L 2931 0 
L 2931 347 
L 2931 1631 
Q 2931 2084 2911 2256 
Q 2891 2428 2841 2509 
Q 2775 2619 2662 2680 
Q 2550 2741 2406 2741 
Q 2056 2741 1856 2470 
Q 1656 2200 1656 1722 
L 1656 0 
L 538 0 
L 538 3500 
L 1656 3500 
L 1656 2988 
Q 1909 3294 2193 3439 
Q 2478 3584 2822 3584 
Q 3428 3584 3742 3212 
Q 4056 2841 4056 2131 
z
" transform="scale(0.015625)"/>
     </defs>
     <use xlink:href="#DejaVuSans-Bold-4d"/>
     <use xlink:href="#DejaVuSans-Bold-61" transform="translate(99.511719 0)"/>
     <use xlink:href="#DejaVuSans-Bold-78" transform="translate(166.992188 0)"/>
     <use xlink:href="#DejaVuSans-Bold-77" transform="translate(231.494141 0)"/>
     <use xlink:href="#DejaVuSans-Bold-65" transform="translate(323.876953 0)"/>
     <use xlink:href="#DejaVuSans-Bold-6c" transform="translate(391.699219 0)"/>
     <use xlink:href="#DejaVuSans-Bold-6c" transform="translate(425.976562 0)"/>
     <use xlink:href="#DejaVuSans-Bold-2d" transform="translate(460.253906 0)"/>
     <use xlink:href="#DejaVuSans-Bold-42" transform="translate(501.757812 0)"/>
     <use xlink:href="#DejaVuSans-Bold-6f" transform="translate(577.978516 0)"/>
     <use xlink:href="#DejaVuSans-Bold-6c" transform="translate(646.679688 0)"/>
     <use xlink:href="#DejaVuSans-Bold-74" transform="translate(680.957031 0)"/>
     <use xlink:href="#DejaVuSans-Bold-7a" transform="translate(728.759766 0)"/>
     <use xlink:href="#DejaVuSans-Bold-6d" transform="translate(786.962891 0)"/>
     <use xlink:href="#DejaVuSans-Bold-61" transform="translate(891.162109 0)"/>
     <use xlink:href="#DejaVuSans-Bold-6e" transform="translate(958.642578 0)"/>
     <use xlink:href="#DejaVuSans-Bold-6e" transform="translate(1029.833984 0)"/>
    </g>
   </g>
   <g id="text_20">
    <!-- $E=E_F$ -->
    <g style="fill: #c3c2b7" transform="translate(268.641363 44.939968) scale(0.09 -0.09)">
     <defs>
      <path id="DejaVuSans-3d" d="M 678 2906 
L 4684 2906 
L 4684 2381 
L 678 2381 
L 678 2906 
z
M 678 1631 
L 4684 1631 
L 4684 1100 
L 678 1100 
L 678 1631 
z
" transform="scale(0.015625)"/>
     </defs>
     <use xlink:href="#DejaVuSans-Oblique-45" transform="translate(0 0.09375)"/>
     <use xlink:href="#DejaVuSans-3d" transform="translate(82.666016 0.09375)"/>
     <use xlink:href="#DejaVuSans-Oblique-45" transform="translate(185.9375 0.09375)"/>
     <use xlink:href="#DejaVuSans-Oblique-46" transform="translate(249.121094 -16.3125) scale(0.7)"/>
    </g>
   </g>
   <g id="text_21">
    <!-- the two agree for -->
    <g style="fill: #c3c2b7" transform="translate(355.474454 173.775001) scale(0.09 -0.09)">
     <defs>
      <path id="DejaVuSans-68" d="M 3513 2113 
L 3513 0 
L 2938 0 
L 2938 2094 
Q 2938 2591 2744 2837 
Q 2550 3084 2163 3084 
Q 1697 3084 1428 2787 
Q 1159 2491 1159 1978 
L 1159 0 
L 581 0 
L 581 4863 
L 1159 4863 
L 1159 2956 
Q 1366 3272 1645 3428 
Q 1925 3584 2291 3584 
Q 2894 3584 3203 3211 
Q 3513 2838 3513 2113 
z
" transform="scale(0.015625)"/>
      <path id="DejaVuSans-65" d="M 3597 1894 
L 3597 1613 
L 953 1613 
Q 991 1019 1311 708 
Q 1631 397 2203 397 
Q 2534 397 2845 478 
Q 3156 559 3463 722 
L 3463 178 
Q 3153 47 2828 -22 
Q 2503 -91 2169 -91 
Q 1331 -91 842 396 
Q 353 884 353 1716 
Q 353 2575 817 3079 
Q 1281 3584 2069 3584 
Q 2775 3584 3186 3129 
Q 3597 2675 3597 1894 
z
M 3022 2063 
Q 3016 2534 2758 2815 
Q 2500 3097 2075 3097 
Q 1594 3097 1305 2825 
Q 1016 2553 972 2059 
L 3022 2063 
z
" transform="scale(0.015625)"/>
      <path id="DejaVuSans-77" d="M 269 3500 
L 844 3500 
L 1563 769 
L 2278 3500 
L 2956 3500 
L 3675 769 
L 4391 3500 
L 4966 3500 
L 4050 0 
L 3372 0 
L 2619 2869 
L 1863 0 
L 1184 0 
L 269 3500 
z
" transform="scale(0.015625)"/>
      <path id="DejaVuSans-67" d="M 2906 1791 
Q 2906 2416 2648 2759 
Q 2391 3103 1925 3103 
Q 1463 3103 1205 2759 
Q 947 2416 947 1791 
Q 947 1169 1205 825 
Q 1463 481 1925 481 
Q 2391 481 2648 825 
Q 2906 1169 2906 1791 
z
M 3481 434 
Q 3481 -459 3084 -895 
Q 2688 -1331 1869 -1331 
Q 1566 -1331 1297 -1286 
Q 1028 -1241 775 -1147 
L 775 -588 
Q 1028 -725 1275 -790 
Q 1522 -856 1778 -856 
Q 2344 -856 2625 -561 
Q 2906 -266 2906 331 
L 2906 616 
Q 2728 306 2450 153 
Q 2172 0 1784 0 
Q 1141 0 747 490 
Q 353 981 353 1791 
Q 353 2603 747 3093 
Q 1141 3584 1784 3584 
Q 2172 3584 2450 3431 
Q 2728 3278 2906 2969 
L 2906 3500 
L 3481 3500 
L 3481 434 
z
" transform="scale(0.015625)"/>
      <path id="DejaVuSans-72" d="M 2631 2963 
Q 2534 3019 2420 3045 
Q 2306 3072 2169 3072 
Q 1681 3072 1420 2755 
Q 1159 2438 1159 1844 
L 1159 0 
L 581 0 
L 581 3500 
L 1159 3500 
L 1159 2956 
Q 1341 3275 1631 3429 
Q 1922 3584 2338 3584 
Q 2397 3584 2469 3576 
Q 2541 3569 2628 3553 
L 2631 2963 
z
" transform="scale(0.015625)"/>
      <path id="DejaVuSans-66" d="M 2375 4863 
L 2375 4384 
L 1825 4384 
Q 1516 4384 1395 4259 
Q 1275 4134 1275 3809 
L 1275 3500 
L 2222 3500 
L 2222 3053 
L 1275 3053 
L 1275 0 
L 697 0 
L 697 3053 
L 147 3053 
L 147 3500 
L 697 3500 
L 697 3744 
Q 697 4328 969 4595 
Q 1241 4863 1831 4863 
L 2375 4863 
z
" transform="scale(0.015625)"/>
     </defs>
     <use xlink:href="#DejaVuSans-74"/>
     <use xlink:href="#DejaVuSans-68" transform="translate(39.208984 0)"/>
     <use xlink:href="#DejaVuSans-65" transform="translate(102.587891 0)"/>
     <use xlink:href="#DejaVuSans-20" transform="translate(164.111328 0)"/>
     <use xlink:href="#DejaVuSans-74" transform="translate(195.898438 0)"/>
     <use xlink:href="#DejaVuSans-77" transform="translate(235.107422 0)"/>
     <use xlink:href="#DejaVuSans-6f" transform="translate(316.894531 0)"/>
     <use xlink:href="#DejaVuSans-20" transform="translate(378.076172 0)"/>
     <use xlink:href="#DejaVuSans-61" transform="translate(409.863281 0)"/>
     <use xlink:href="#DejaVuSans-67" transform="translate(471.142578 0)"/>
     <use xlink:href="#DejaVuSans-72" transform="translate(534.619141 0)"/>
     <use xlink:href="#DejaVuSans-65" transform="translate(573.482422 0)"/>
     <use xlink:href="#DejaVuSans-65" transform="translate(635.005859 0)"/>
     <use xlink:href="#DejaVuSans-20" transform="translate(696.529297 0)"/>
     <use xlink:href="#DejaVuSans-66" transform="translate(728.316406 0)"/>
     <use xlink:href="#DejaVuSans-6f" transform="translate(763.521484 0)"/>
     <use xlink:href="#DejaVuSans-72" transform="translate(824.703125 0)"/>
    </g>
    <!-- $E-E_F\gtrsim 3k_BT$: -->
    <g style="fill: #c3c2b7" transform="translate(355.474454 183.853033) scale(0.09 -0.09)">
     <defs>
      <path id="DejaVuSans-2273" d="M 4688 844 
L 4688 288 
Q 4356 44 4078 -65 
Q 3800 -175 3494 -175 
Q 3150 -175 2694 13 
Q 2663 25 2644 31 
Q 2625 38 2575 56 
Q 2094 250 1800 250 
Q 1525 250 1256 131 
Q 988 13 681 -250 
L 681 306 
Q 1006 550 1287 659 
Q 1569 769 1869 769 
Q 2213 769 2675 581 
Q 2706 569 2725 562 
Q 2744 556 2788 538 
Q 3275 344 3569 344 
Q 3838 344 4100 462 
Q 4363 581 4688 844 
z
M 681 3175 
L 681 3725 
L 4688 2578 
L 4688 2047 
L 681 897 
L 681 1453 
L 3684 2309 
L 681 3175 
z
" transform="scale(0.015625)"/>
      <path id="DejaVuSans-33" d="M 2597 2516 
Q 3050 2419 3304 2112 
Q 3559 1806 3559 1356 
Q 3559 666 3084 287 
Q 2609 -91 1734 -91 
Q 1441 -91 1130 -33 
Q 819 25 488 141 
L 488 750 
Q 750 597 1062 519 
Q 1375 441 1716 441 
Q 2309 441 2620 675 
Q 2931 909 2931 1356 
Q 2931 1769 2642 2001 
Q 2353 2234 1838 2234 
L 1294 2234 
L 1294 2753 
L 1863 2753 
Q 2328 2753 2575 2939 
Q 2822 3125 2822 3475 
Q 2822 3834 2567 4026 
Q 2313 4219 1838 4219 
Q 1578 4219 1281 4162 
Q 984 4106 628 3988 
L 628 4550 
Q 988 4650 1302 4700 
Q 1616 4750 1894 4750 
Q 2613 4750 3031 4423 
Q 3450 4097 3450 3541 
Q 3450 3153 3228 2886 
Q 3006 2619 2597 2516 
z
" transform="scale(0.015625)"/>
      <path id="DejaVuSans-3a" d="M 750 794 
L 1409 794 
L 1409 0 
L 750 0 
L 750 794 
z
M 750 3309 
L 1409 3309 
L 1409 2516 
L 750 2516 
L 750 3309 
z
" transform="scale(0.015625)"/>
     </defs>
     <use xlink:href="#DejaVuSans-Oblique-45" transform="translate(0 0.015625)"/>
     <use xlink:href="#DejaVuSans-2212" transform="translate(82.666016 0.015625)"/>
     <use xlink:href="#DejaVuSans-Oblique-45" transform="translate(185.9375 0.015625)"/>
     <use xlink:href="#DejaVuSans-Oblique-46" transform="translate(249.121094 -16.390625) scale(0.7)"/>
     <use xlink:href="#DejaVuSans-2273" transform="translate(311.601562 0.015625)"/>
     <use xlink:href="#DejaVuSans-33" transform="translate(414.873047 0.015625)"/>
     <use xlink:href="#DejaVuSans-Oblique-6b" transform="translate(478.496094 0.015625)"/>
     <use xlink:href="#DejaVuSans-Oblique-42" transform="translate(536.40625 -16.390625) scale(0.7)"/>
     <use xlink:href="#DejaVuSans-Oblique-54" transform="translate(587.163086 0.015625)"/>
     <use xlink:href="#DejaVuSans-3a" transform="translate(648.24707 0.015625)"/>
    </g>
    <!-- the non-degenerate limit -->
    <g style="fill: #c3c2b7" transform="translate(355.474454 193.931064) scale(0.09 -0.09)">
     <defs>
      <path id="DejaVuSans-2d" d="M 313 2009 
L 1997 2009 
L 1997 1497 
L 313 1497 
L 313 2009 
z
" transform="scale(0.015625)"/>
      <path id="DejaVuSans-64" d="M 2906 2969 
L 2906 4863 
L 3481 4863 
L 3481 0 
L 2906 0 
L 2906 525 
Q 2725 213 2448 61 
Q 2172 -91 1784 -91 
Q 1150 -91 751 415 
Q 353 922 353 1747 
Q 353 2572 751 3078 
Q 1150 3584 1784 3584 
Q 2172 3584 2448 3432 
Q 2725 3281 2906 2969 
z
M 947 1747 
Q 947 1113 1208 752 
Q 1469 391 1925 391 
Q 2381 391 2643 752 
Q 2906 1113 2906 1747 
Q 2906 2381 2643 2742 
Q 2381 3103 1925 3103 
Q 1469 3103 1208 2742 
Q 947 2381 947 1747 
z
" transform="scale(0.015625)"/>
      <path id="DejaVuSans-6c" d="M 603 4863 
L 1178 4863 
L 1178 0 
L 603 0 
L 603 4863 
z
" transform="scale(0.015625)"/>
      <path id="DejaVuSans-6d" d="M 3328 2828 
Q 3544 3216 3844 3400 
Q 4144 3584 4550 3584 
Q 5097 3584 5394 3201 
Q 5691 2819 5691 2113 
L 5691 0 
L 5113 0 
L 5113 2094 
Q 5113 2597 4934 2840 
Q 4756 3084 4391 3084 
Q 3944 3084 3684 2787 
Q 3425 2491 3425 1978 
L 3425 0 
L 2847 0 
L 2847 2094 
Q 2847 2600 2669 2842 
Q 2491 3084 2119 3084 
Q 1678 3084 1418 2786 
Q 1159 2488 1159 1978 
L 1159 0 
L 581 0 
L 581 3500 
L 1159 3500 
L 1159 2956 
Q 1356 3278 1631 3431 
Q 1906 3584 2284 3584 
Q 2666 3584 2933 3390 
Q 3200 3197 3328 2828 
z
" transform="scale(0.015625)"/>
     </defs>
     <use xlink:href="#DejaVuSans-74"/>
     <use xlink:href="#DejaVuSans-68" transform="translate(39.208984 0)"/>
     <use xlink:href="#DejaVuSans-65" transform="translate(102.587891 0)"/>
     <use xlink:href="#DejaVuSans-20" transform="translate(164.111328 0)"/>
     <use xlink:href="#DejaVuSans-6e" transform="translate(195.898438 0)"/>
     <use xlink:href="#DejaVuSans-6f" transform="translate(259.277344 0)"/>
     <use xlink:href="#DejaVuSans-6e" transform="translate(320.458984 0)"/>
     <use xlink:href="#DejaVuSans-2d" transform="translate(383.837891 0)"/>
     <use xlink:href="#DejaVuSans-64" transform="translate(419.921875 0)"/>
     <use xlink:href="#DejaVuSans-65" transform="translate(483.398438 0)"/>
     <use xlink:href="#DejaVuSans-67" transform="translate(544.921875 0)"/>
     <use xlink:href="#DejaVuSans-65" transform="translate(608.398438 0)"/>
     <use xlink:href="#DejaVuSans-6e" transform="translate(669.921875 0)"/>
     <use xlink:href="#DejaVuSans-65" transform="translate(733.300781 0)"/>
     <use xlink:href="#DejaVuSans-72" transform="translate(794.824219 0)"/>
     <use xlink:href="#DejaVuSans-61" transform="translate(835.9375 0)"/>
     <use xlink:href="#DejaVuSans-74" transform="translate(897.216797 0)"/>
     <use xlink:href="#DejaVuSans-65" transform="translate(936.425781 0)"/>
     <use xlink:href="#DejaVuSans-20" transform="translate(997.949219 0)"/>
     <use xlink:href="#DejaVuSans-6c" transform="translate(1029.736328 0)"/>
     <use xlink:href="#DejaVuSans-69" transform="translate(1057.519531 0)"/>
     <use xlink:href="#DejaVuSans-6d" transform="translate(1085.302734 0)"/>
     <use xlink:href="#DejaVuSans-69" transform="translate(1182.714844 0)"/>
     <use xlink:href="#DejaVuSans-74" transform="translate(1210.498047 0)"/>
    </g>
   </g>
   <g id="text_22">
    <!-- Degenerate or not is a question about where $E_F$ sits -->
    <g style="fill: #ffffff" transform="translate(96.377969 16.32) scale(0.12 -0.12)">
     <defs>
      <path id="DejaVuSans-Bold-67" d="M 2919 594 
Q 2688 288 2409 144 
Q 2131 0 1766 0 
Q 1125 0 706 504 
Q 288 1009 288 1791 
Q 288 2575 706 3076 
Q 1125 3578 1766 3578 
Q 2131 3578 2409 3434 
Q 2688 3291 2919 2981 
L 2919 3500 
L 4044 3500 
L 4044 353 
Q 4044 -491 3511 -936 
Q 2978 -1381 1966 -1381 
Q 1638 -1381 1331 -1331 
Q 1025 -1281 716 -1178 
L 716 -306 
Q 1009 -475 1290 -558 
Q 1572 -641 1856 -641 
Q 2406 -641 2662 -400 
Q 2919 -159 2919 353 
L 2919 594 
z
M 2181 2772 
Q 1834 2772 1640 2515 
Q 1447 2259 1447 1791 
Q 1447 1309 1634 1061 
Q 1822 813 2181 813 
Q 2531 813 2725 1069 
Q 2919 1325 2919 1791 
Q 2919 2259 2725 2515 
Q 2531 2772 2181 2772 
z
" transform="scale(0.015625)"/>
      <path id="DejaVuSans-Bold-20" transform="scale(0.015625)"/>
      <path id="DejaVuSans-Bold-73" d="M 3272 3391 
L 3272 2541 
Q 2913 2691 2578 2766 
Q 2244 2841 1947 2841 
Q 1628 2841 1473 2761 
Q 1319 2681 1319 2516 
Q 1319 2381 1436 2309 
Q 1553 2238 1856 2203 
L 2053 2175 
Q 2913 2066 3209 1816 
Q 3506 1566 3506 1031 
Q 3506 472 3093 190 
Q 2681 -91 1863 -91 
Q 1516 -91 1145 -36 
Q 775 19 384 128 
L 384 978 
Q 719 816 1070 734 
Q 1422 653 1784 653 
Q 2113 653 2278 743 
Q 2444 834 2444 1013 
Q 2444 1163 2330 1236 
Q 2216 1309 1875 1350 
L 1678 1375 
Q 931 1469 631 1722 
Q 331 1975 331 2491 
Q 331 3047 712 3315 
Q 1094 3584 1881 3584 
Q 2191 3584 2531 3537 
Q 2872 3491 3272 3391 
z
" transform="scale(0.015625)"/>
      <path id="DejaVuSans-Bold-71" d="M 2181 2772 
Q 1825 2772 1636 2509 
Q 1447 2247 1447 1747 
Q 1447 1247 1636 984 
Q 1825 722 2181 722 
Q 2541 722 2730 984 
Q 2919 1247 2919 1747 
Q 2919 2247 2730 2509 
Q 2541 2772 2181 2772 
z
M 2919 506 
Q 2688 197 2409 53 
Q 2131 -91 1766 -91 
Q 1119 -91 703 423 
Q 288 938 288 1747 
Q 288 2556 703 3067 
Q 1119 3578 1766 3578 
Q 2131 3578 2409 3434 
Q 2688 3291 2919 2981 
L 2919 3500 
L 4044 3500 
L 4044 -1331 
L 2919 -1331 
L 2919 506 
z
" transform="scale(0.015625)"/>
      <path id="DejaVuSans-Bold-75" d="M 500 1363 
L 500 3500 
L 1625 3500 
L 1625 3150 
Q 1625 2866 1622 2436 
Q 1619 2006 1619 1863 
Q 1619 1441 1641 1255 
Q 1663 1069 1716 984 
Q 1784 875 1895 815 
Q 2006 756 2150 756 
Q 2500 756 2700 1025 
Q 2900 1294 2900 1772 
L 2900 3500 
L 4019 3500 
L 4019 0 
L 2900 0 
L 2900 506 
Q 2647 200 2364 54 
Q 2081 -91 1741 -91 
Q 1134 -91 817 281 
Q 500 653 500 1363 
z
" transform="scale(0.015625)"/>
      <path id="DejaVuSans-Bold-62" d="M 2400 722 
Q 2759 722 2948 984 
Q 3138 1247 3138 1747 
Q 3138 2247 2948 2509 
Q 2759 2772 2400 2772 
Q 2041 2772 1848 2508 
Q 1656 2244 1656 1747 
Q 1656 1250 1848 986 
Q 2041 722 2400 722 
z
M 1656 2988 
Q 1888 3294 2169 3439 
Q 2450 3584 2816 3584 
Q 3463 3584 3878 3070 
Q 4294 2556 4294 1747 
Q 4294 938 3878 423 
Q 3463 -91 2816 -91 
Q 2450 -91 2169 54 
Q 1888 200 1656 506 
L 1656 0 
L 538 0 
L 538 4863 
L 1656 4863 
L 1656 2988 
z
" transform="scale(0.015625)"/>
      <path id="DejaVuSans-Bold-68" d="M 4056 2131 
L 4056 0 
L 2931 0 
L 2931 347 
L 2931 1625 
Q 2931 2084 2911 2256 
Q 2891 2428 2841 2509 
Q 2775 2619 2662 2680 
Q 2550 2741 2406 2741 
Q 2056 2741 1856 2470 
Q 1656 2200 1656 1722 
L 1656 0 
L 538 0 
L 538 4863 
L 1656 4863 
L 1656 2988 
Q 1909 3294 2193 3439 
Q 2478 3584 2822 3584 
Q 3428 3584 3742 3212 
Q 4056 2841 4056 2131 
z
" transform="scale(0.015625)"/>
     </defs>
     <use xlink:href="#DejaVuSans-Bold-44" transform="translate(0 0.015625)"/>
     <use xlink:href="#DejaVuSans-Bold-65" transform="translate(83.007812 0.015625)"/>
     <use xlink:href="#DejaVuSans-Bold-67" transform="translate(150.830078 0.015625)"/>
     <use xlink:href="#DejaVuSans-Bold-65" transform="translate(222.412109 0.015625)"/>
     <use xlink:href="#DejaVuSans-Bold-6e" transform="translate(290.234375 0.015625)"/>
     <use xlink:href="#DejaVuSans-Bold-65" transform="translate(361.425781 0.015625)"/>
     <use xlink:href="#DejaVuSans-Bold-72" transform="translate(429.248047 0.015625)"/>
     <use xlink:href="#DejaVuSans-Bold-61" transform="translate(478.564453 0.015625)"/>
     <use xlink:href="#DejaVuSans-Bold-74" transform="translate(546.044922 0.015625)"/>
     <use xlink:href="#DejaVuSans-Bold-65" transform="translate(593.847656 0.015625)"/>
     <use xlink:href="#DejaVuSans-Bold-20" transform="translate(661.669922 0.015625)"/>
     <use xlink:href="#DejaVuSans-Bold-6f" transform="translate(696.484375 0.015625)"/>
     <use xlink:href="#DejaVuSans-Bold-72" transform="translate(765.185547 0.015625)"/>
     <use xlink:href="#DejaVuSans-Bold-20" transform="translate(814.501953 0.015625)"/>
     <use xlink:href="#DejaVuSans-Bold-6e" transform="translate(849.316406 0.015625)"/>
     <use xlink:href="#DejaVuSans-Bold-6f" transform="translate(920.507812 0.015625)"/>
     <use xlink:href="#DejaVuSans-Bold-74" transform="translate(989.208984 0.015625)"/>
     <use xlink:href="#DejaVuSans-Bold-20" transform="translate(1037.011719 0.015625)"/>
     <use xlink:href="#DejaVuSans-Bold-69" transform="translate(1071.826172 0.015625)"/>
     <use xlink:href="#DejaVuSans-Bold-73" transform="translate(1106.103516 0.015625)"/>
     <use xlink:href="#DejaVuSans-Bold-20" transform="translate(1165.625 0.015625)"/>
     <use xlink:href="#DejaVuSans-Bold-61" transform="translate(1200.439453 0.015625)"/>
     <use xlink:href="#DejaVuSans-Bold-20" transform="translate(1267.919922 0.015625)"/>
     <use xlink:href="#DejaVuSans-Bold-71" transform="translate(1302.734375 0.015625)"/>
     <use xlink:href="#DejaVuSans-Bold-75" transform="translate(1374.316406 0.015625)"/>
     <use xlink:href="#DejaVuSans-Bold-65" transform="translate(1445.507812 0.015625)"/>
     <use xlink:href="#DejaVuSans-Bold-73" transform="translate(1513.330078 0.015625)"/>
     <use xlink:href="#DejaVuSans-Bold-74" transform="translate(1572.851562 0.015625)"/>
     <use xlink:href="#DejaVuSans-Bold-69" transform="translate(1620.654297 0.015625)"/>
     <use xlink:href="#DejaVuSans-Bold-6f" transform="translate(1654.931641 0.015625)"/>
     <use xlink:href="#DejaVuSans-Bold-6e" transform="translate(1723.632812 0.015625)"/>
     <use xlink:href="#DejaVuSans-Bold-20" transform="translate(1794.824219 0.015625)"/>
     <use xlink:href="#DejaVuSans-Bold-61" transform="translate(1829.638672 0.015625)"/>
     <use xlink:href="#DejaVuSans-Bold-62" transform="translate(1897.119141 0.015625)"/>
     <use xlink:href="#DejaVuSans-Bold-6f" transform="translate(1968.701172 0.015625)"/>
     <use xlink:href="#DejaVuSans-Bold-75" transform="translate(2037.402344 0.015625)"/>
     <use xlink:href="#DejaVuSans-Bold-74" transform="translate(2108.59375 0.015625)"/>
     <use xlink:href="#DejaVuSans-Bold-20" transform="translate(2156.396484 0.015625)"/>
     <use xlink:href="#DejaVuSans-Bold-77" transform="translate(2191.210938 0.015625)"/>
     <use xlink:href="#DejaVuSans-Bold-68" transform="translate(2283.59375 0.015625)"/>
     <use xlink:href="#DejaVuSans-Bold-65" transform="translate(2354.785156 0.015625)"/>
     <use xlink:href="#DejaVuSans-Bold-72" transform="translate(2422.607422 0.015625)"/>
     <use xlink:href="#DejaVuSans-Bold-65" transform="translate(2471.923828 0.015625)"/>
     <use xlink:href="#DejaVuSans-Bold-20" transform="translate(2539.746094 0.015625)"/>
     <use xlink:href="#DejaVuSans-Oblique-45" transform="translate(2574.560547 0.015625)"/>
     <use xlink:href="#DejaVuSans-Oblique-46" transform="translate(2637.744141 -16.390625) scale(0.7)"/>
     <use xlink:href="#DejaVuSans-Bold-20" transform="translate(2680.742188 0.015625)"/>
     <use xlink:href="#DejaVuSans-Bold-73" transform="translate(2715.556641 0.015625)"/>
     <use xlink:href="#DejaVuSans-Bold-69" transform="translate(2775.078125 0.015625)"/>
     <use xlink:href="#DejaVuSans-Bold-74" transform="translate(2809.355469 0.015625)"/>
     <use xlink:href="#DejaVuSans-Bold-73" transform="translate(2857.158203 0.015625)"/>
    </g>
   </g>
  </g>
 </g>
 <defs>
  <clipPath id="p158e2e611c">
   <rect x="43.977969" y="22.32" width="454.84" height="234.712"/>
  </clipPath>
 </defs>
</svg>
