<?xml version="1.0" encoding="utf-8" standalone="no"?>
<!DOCTYPE svg PUBLIC "-//W3C//DTD SVG 1.1//EN"
  "http://www.w3.org/Graphics/SVG/1.1/DTD/svg11.dtd">
<svg xmlns:xlink="http://www.w3.org/1999/xlink" width="358.708565pt" height="362.320156pt" viewBox="0 0 358.708565 362.320156" xmlns="http://www.w3.org/2000/svg" version="1.1">
 <metadata>
  <rdf:RDF xmlns:dc="http://purl.org/dc/elements/1.1/" xmlns:cc="http://creativecommons.org/ns#" xmlns:rdf="http://www.w3.org/1999/02/22-rdf-syntax-ns#">
   <cc:Work>
    <dc:type rdf:resource="http://purl.org/dc/dcmitype/StillImage"/>
    <dc:date>2026-08-17T12:07:07.720064</dc:date>
    <dc:format>image/svg+xml</dc:format>
    <dc:creator>
     <cc:Agent>
      <dc:title>Matplotlib v3.10.8, https://matplotlib.org/</dc:title>
     </cc:Agent>
    </dc:creator>
   </cc:Work>
  </rdf:RDF>
 </metadata>
 <defs>
  <style type="text/css">*{stroke-linejoin: round; stroke-linecap: butt}</style>
 </defs>
 <g id="figure_1">
  <g id="patch_1">
   <path d="M 0 362.320156 
L 358.708565 362.320156 
L 358.708565 0 
L 0 0 
L 0 362.320156 
z
" style="fill: none"/>
  </g>
  <g id="axes_1">
   <g id="patch_2">
    <path d="M 34.890313 324.28 
L 351.508565 324.28 
L 351.508565 22.32 
L 34.890313 22.32 
L 34.890313 324.28 
z
" style="fill: none"/>
   </g>
   <g id="matplotlib.axis_1">
    <g id="xtick_1">
     <g id="line2d_1">
      <path d="M 75.933419 324.28 
L 75.933419 22.32 
" clip-path="url(#p8d49fb827c)" style="fill: none; stroke: #3a3a37; stroke-opacity: 0.55; stroke-width: 0.7; stroke-linecap: square"/>
     </g>
     <g id="line2d_2">
      <defs>
       <path id="ma0bd9b1bed" d="M 0 0 
L 0 3.5 
" style="stroke: #c3c2b7; stroke-width: 0.8"/>
      </defs>
      <g>
       <use xlink:href="#ma0bd9b1bed" x="75.933419" y="324.28" style="fill: #c3c2b7; stroke: #c3c2b7; stroke-width: 0.8"/>
      </g>
     </g>
     <g id="text_1">
      <!-- −8 -->
      <g style="fill: #c3c2b7" transform="translate(68.93088 338.498516) scale(0.095 -0.095)">
       <defs>
        <path id="DejaVuSans-2212" d="M 678 2272 
L 4684 2272 
L 4684 1741 
L 678 1741 
L 678 2272 
z
" transform="scale(0.015625)"/>
        <path id="DejaVuSans-38" d="M 2034 2216 
Q 1584 2216 1326 1975 
Q 1069 1734 1069 1313 
Q 1069 891 1326 650 
Q 1584 409 2034 409 
Q 2484 409 2743 651 
Q 3003 894 3003 1313 
Q 3003 1734 2745 1975 
Q 2488 2216 2034 2216 
z
M 1403 2484 
Q 997 2584 770 2862 
Q 544 3141 544 3541 
Q 544 4100 942 4425 
Q 1341 4750 2034 4750 
Q 2731 4750 3128 4425 
Q 3525 4100 3525 3541 
Q 3525 3141 3298 2862 
Q 3072 2584 2669 2484 
Q 3125 2378 3379 2068 
Q 3634 1759 3634 1313 
Q 3634 634 3220 271 
Q 2806 -91 2034 -91 
Q 1263 -91 848 271 
Q 434 634 434 1313 
Q 434 1759 690 2068 
Q 947 2378 1403 2484 
z
M 1172 3481 
Q 1172 3119 1398 2916 
Q 1625 2713 2034 2713 
Q 2441 2713 2670 2916 
Q 2900 3119 2900 3481 
Q 2900 3844 2670 4047 
Q 2441 4250 2034 4250 
Q 1625 4250 1398 4047 
Q 1172 3844 1172 3481 
z
" transform="scale(0.015625)"/>
       </defs>
       <use xlink:href="#DejaVuSans-2212"/>
       <use xlink:href="#DejaVuSans-38" transform="translate(83.789062 0)"/>
      </g>
     </g>
    </g>
    <g id="xtick_2">
     <g id="line2d_3">
      <path d="M 134.566429 324.28 
L 134.566429 22.32 
" clip-path="url(#p8d49fb827c)" style="fill: none; stroke: #3a3a37; stroke-opacity: 0.55; stroke-width: 0.7; stroke-linecap: square"/>
     </g>
     <g id="line2d_4">
      <g>
       <use xlink:href="#ma0bd9b1bed" x="134.566429" y="324.28" style="fill: #c3c2b7; stroke: #c3c2b7; stroke-width: 0.8"/>
      </g>
     </g>
     <g id="text_2">
      <!-- −6 -->
      <g style="fill: #c3c2b7" transform="translate(127.56389 338.498516) scale(0.095 -0.095)">
       <defs>
        <path id="DejaVuSans-36" d="M 2113 2584 
Q 1688 2584 1439 2293 
Q 1191 2003 1191 1497 
Q 1191 994 1439 701 
Q 1688 409 2113 409 
Q 2538 409 2786 701 
Q 3034 994 3034 1497 
Q 3034 2003 2786 2293 
Q 2538 2584 2113 2584 
z
M 3366 4563 
L 3366 3988 
Q 3128 4100 2886 4159 
Q 2644 4219 2406 4219 
Q 1781 4219 1451 3797 
Q 1122 3375 1075 2522 
Q 1259 2794 1537 2939 
Q 1816 3084 2150 3084 
Q 2853 3084 3261 2657 
Q 3669 2231 3669 1497 
Q 3669 778 3244 343 
Q 2819 -91 2113 -91 
Q 1303 -91 875 529 
Q 447 1150 447 2328 
Q 447 3434 972 4092 
Q 1497 4750 2381 4750 
Q 2619 4750 2861 4703 
Q 3103 4656 3366 4563 
z
" transform="scale(0.015625)"/>
       </defs>
       <use xlink:href="#DejaVuSans-2212"/>
       <use xlink:href="#DejaVuSans-36" transform="translate(83.789062 0)"/>
      </g>
     </g>
    </g>
    <g id="xtick_3">
     <g id="line2d_5">
      <path d="M 193.199439 324.28 
L 193.199439 22.32 
" clip-path="url(#p8d49fb827c)" style="fill: none; stroke: #3a3a37; stroke-opacity: 0.55; stroke-width: 0.7; stroke-linecap: square"/>
     </g>
     <g id="line2d_6">
      <g>
       <use xlink:href="#ma0bd9b1bed" x="193.199439" y="324.28" style="fill: #c3c2b7; stroke: #c3c2b7; stroke-width: 0.8"/>
      </g>
     </g>
     <g id="text_3">
      <!-- −4 -->
      <g style="fill: #c3c2b7" transform="translate(186.1969 338.498516) scale(0.095 -0.095)">
       <defs>
        <path id="DejaVuSans-34" d="M 2419 4116 
L 825 1625 
L 2419 1625 
L 2419 4116 
z
M 2253 4666 
L 3047 4666 
L 3047 1625 
L 3713 1625 
L 3713 1100 
L 3047 1100 
L 3047 0 
L 2419 0 
L 2419 1100 
L 313 1100 
L 313 1709 
L 2253 4666 
z
" transform="scale(0.015625)"/>
       </defs>
       <use xlink:href="#DejaVuSans-2212"/>
       <use xlink:href="#DejaVuSans-34" transform="translate(83.789062 0)"/>
      </g>
     </g>
    </g>
    <g id="xtick_4">
     <g id="line2d_7">
      <path d="M 251.832448 324.28 
L 251.832448 22.32 
" clip-path="url(#p8d49fb827c)" style="fill: none; stroke: #3a3a37; stroke-opacity: 0.55; stroke-width: 0.7; stroke-linecap: square"/>
     </g>
     <g id="line2d_8">
      <g>
       <use xlink:href="#ma0bd9b1bed" x="251.832448" y="324.28" style="fill: #c3c2b7; stroke: #c3c2b7; stroke-width: 0.8"/>
      </g>
     </g>
     <g id="text_4">
      <!-- −2 -->
      <g style="fill: #c3c2b7" transform="translate(244.829909 338.498516) scale(0.095 -0.095)">
       <defs>
        <path id="DejaVuSans-32" d="M 1228 531 
L 3431 531 
L 3431 0 
L 469 0 
L 469 531 
Q 828 903 1448 1529 
Q 2069 2156 2228 2338 
Q 2531 2678 2651 2914 
Q 2772 3150 2772 3378 
Q 2772 3750 2511 3984 
Q 2250 4219 1831 4219 
Q 1534 4219 1204 4116 
Q 875 4013 500 3803 
L 500 4441 
Q 881 4594 1212 4672 
Q 1544 4750 1819 4750 
Q 2544 4750 2975 4387 
Q 3406 4025 3406 3419 
Q 3406 3131 3298 2873 
Q 3191 2616 2906 2266 
Q 2828 2175 2409 1742 
Q 1991 1309 1228 531 
z
" transform="scale(0.015625)"/>
       </defs>
       <use xlink:href="#DejaVuSans-2212"/>
       <use xlink:href="#DejaVuSans-32" transform="translate(83.789062 0)"/>
      </g>
     </g>
    </g>
    <g id="xtick_5">
     <g id="line2d_9">
      <path d="M 310.465458 324.28 
L 310.465458 22.32 
" clip-path="url(#p8d49fb827c)" style="fill: none; stroke: #3a3a37; stroke-opacity: 0.55; stroke-width: 0.7; stroke-linecap: square"/>
     </g>
     <g id="line2d_10">
      <g>
       <use xlink:href="#ma0bd9b1bed" x="310.465458" y="324.28" style="fill: #c3c2b7; stroke: #c3c2b7; stroke-width: 0.8"/>
      </g>
     </g>
     <g id="text_5">
      <!-- 0 -->
      <g style="fill: #c3c2b7" transform="translate(307.443271 338.498516) scale(0.095 -0.095)">
       <defs>
        <path id="DejaVuSans-30" d="M 2034 4250 
Q 1547 4250 1301 3770 
Q 1056 3291 1056 2328 
Q 1056 1369 1301 889 
Q 1547 409 2034 409 
Q 2525 409 2770 889 
Q 3016 1369 3016 2328 
Q 3016 3291 2770 3770 
Q 2525 4250 2034 4250 
z
M 2034 4750 
Q 2819 4750 3233 4129 
Q 3647 3509 3647 2328 
Q 3647 1150 3233 529 
Q 2819 -91 2034 -91 
Q 1250 -91 836 529 
Q 422 1150 422 2328 
Q 422 3509 836 4129 
Q 1250 4750 2034 4750 
z
" transform="scale(0.015625)"/>
       </defs>
       <use xlink:href="#DejaVuSans-30"/>
      </g>
     </g>
    </g>
    <g id="text_6">
     <!-- Re(s)  [1/s] -->
     <g style="fill: #c3c2b7" transform="translate(163.079204 352.8325) scale(0.11 -0.11)">
      <defs>
       <path id="DejaVuSans-52" d="M 2841 2188 
Q 3044 2119 3236 1894 
Q 3428 1669 3622 1275 
L 4263 0 
L 3584 0 
L 2988 1197 
Q 2756 1666 2539 1819 
Q 2322 1972 1947 1972 
L 1259 1972 
L 1259 0 
L 628 0 
L 628 4666 
L 2053 4666 
Q 2853 4666 3247 4331 
Q 3641 3997 3641 3322 
Q 3641 2881 3436 2590 
Q 3231 2300 2841 2188 
z
M 1259 4147 
L 1259 2491 
L 2053 2491 
Q 2509 2491 2742 2702 
Q 2975 2913 2975 3322 
Q 2975 3731 2742 3939 
Q 2509 4147 2053 4147 
L 1259 4147 
z
" transform="scale(0.015625)"/>
       <path id="DejaVuSans-65" d="M 3597 1894 
L 3597 1613 
L 953 1613 
Q 991 1019 1311 708 
Q 1631 397 2203 397 
Q 2534 397 2845 478 
Q 3156 559 3463 722 
L 3463 178 
Q 3153 47 2828 -22 
Q 2503 -91 2169 -91 
Q 1331 -91 842 396 
Q 353 884 353 1716 
Q 353 2575 817 3079 
Q 1281 3584 2069 3584 
Q 2775 3584 3186 3129 
Q 3597 2675 3597 1894 
z
M 3022 2063 
Q 3016 2534 2758 2815 
Q 2500 3097 2075 3097 
Q 1594 3097 1305 2825 
Q 1016 2553 972 2059 
L 3022 2063 
z
" transform="scale(0.015625)"/>
       <path id="DejaVuSans-28" d="M 1984 4856 
Q 1566 4138 1362 3434 
Q 1159 2731 1159 2009 
Q 1159 1288 1364 580 
Q 1569 -128 1984 -844 
L 1484 -844 
Q 1016 -109 783 600 
Q 550 1309 550 2009 
Q 550 2706 781 3412 
Q 1013 4119 1484 4856 
L 1984 4856 
z
" transform="scale(0.015625)"/>
       <path id="DejaVuSans-73" d="M 2834 3397 
L 2834 2853 
Q 2591 2978 2328 3040 
Q 2066 3103 1784 3103 
Q 1356 3103 1142 2972 
Q 928 2841 928 2578 
Q 928 2378 1081 2264 
Q 1234 2150 1697 2047 
L 1894 2003 
Q 2506 1872 2764 1633 
Q 3022 1394 3022 966 
Q 3022 478 2636 193 
Q 2250 -91 1575 -91 
Q 1294 -91 989 -36 
Q 684 19 347 128 
L 347 722 
Q 666 556 975 473 
Q 1284 391 1588 391 
Q 1994 391 2212 530 
Q 2431 669 2431 922 
Q 2431 1156 2273 1281 
Q 2116 1406 1581 1522 
L 1381 1569 
Q 847 1681 609 1914 
Q 372 2147 372 2553 
Q 372 3047 722 3315 
Q 1072 3584 1716 3584 
Q 2034 3584 2315 3537 
Q 2597 3491 2834 3397 
z
" transform="scale(0.015625)"/>
       <path id="DejaVuSans-29" d="M 513 4856 
L 1013 4856 
Q 1481 4119 1714 3412 
Q 1947 2706 1947 2009 
Q 1947 1309 1714 600 
Q 1481 -109 1013 -844 
L 513 -844 
Q 928 -128 1133 580 
Q 1338 1288 1338 2009 
Q 1338 2731 1133 3434 
Q 928 4138 513 4856 
z
" transform="scale(0.015625)"/>
       <path id="DejaVuSans-20" transform="scale(0.015625)"/>
       <path id="DejaVuSans-5b" d="M 550 4863 
L 1875 4863 
L 1875 4416 
L 1125 4416 
L 1125 -397 
L 1875 -397 
L 1875 -844 
L 550 -844 
L 550 4863 
z
" transform="scale(0.015625)"/>
       <path id="DejaVuSans-31" d="M 794 531 
L 1825 531 
L 1825 4091 
L 703 3866 
L 703 4441 
L 1819 4666 
L 2450 4666 
L 2450 531 
L 3481 531 
L 3481 0 
L 794 0 
L 794 531 
z
" transform="scale(0.015625)"/>
       <path id="DejaVuSans-2f" d="M 1625 4666 
L 2156 4666 
L 531 -594 
L 0 -594 
L 1625 4666 
z
" transform="scale(0.015625)"/>
       <path id="DejaVuSans-5d" d="M 1947 4863 
L 1947 -844 
L 622 -844 
L 622 -397 
L 1369 -397 
L 1369 4416 
L 622 4416 
L 622 4863 
L 1947 4863 
z
" transform="scale(0.015625)"/>
      </defs>
      <use xlink:href="#DejaVuSans-52"/>
      <use xlink:href="#DejaVuSans-65" transform="translate(64.982422 0)"/>
      <use xlink:href="#DejaVuSans-28" transform="translate(126.505859 0)"/>
      <use xlink:href="#DejaVuSans-73" transform="translate(165.519531 0)"/>
      <use xlink:href="#DejaVuSans-29" transform="translate(217.619141 0)"/>
      <use xlink:href="#DejaVuSans-20" transform="translate(256.632812 0)"/>
      <use xlink:href="#DejaVuSans-20" transform="translate(288.419922 0)"/>
      <use xlink:href="#DejaVuSans-5b" transform="translate(320.207031 0)"/>
      <use xlink:href="#DejaVuSans-31" transform="translate(359.220703 0)"/>
      <use xlink:href="#DejaVuSans-2f" transform="translate(422.84375 0)"/>
      <use xlink:href="#DejaVuSans-73" transform="translate(456.535156 0)"/>
      <use xlink:href="#DejaVuSans-5d" transform="translate(508.634766 0)"/>
     </g>
    </g>
   </g>
   <g id="matplotlib.axis_2">
    <g id="ytick_1">
     <g id="line2d_11">
      <path d="M 34.890313 292.031845 
L 351.508565 292.031845 
" clip-path="url(#p8d49fb827c)" style="fill: none; stroke: #3a3a37; stroke-opacity: 0.55; stroke-width: 0.7; stroke-linecap: square"/>
     </g>
     <g id="line2d_12">
      <defs>
       <path id="m14982721c4" d="M 0 0 
L -3.5 0 
" style="stroke: #c3c2b7; stroke-width: 0.8"/>
      </defs>
      <g>
       <use xlink:href="#m14982721c4" x="34.890313" y="292.031845" style="fill: #c3c2b7; stroke: #c3c2b7; stroke-width: 0.8"/>
      </g>
     </g>
     <g id="text_7">
      <!-- 0 -->
      <g style="fill: #c3c2b7" transform="translate(21.845938 295.641102) scale(0.095 -0.095)">
       <use xlink:href="#DejaVuSans-30"/>
      </g>
     </g>
    </g>
    <g id="ytick_2">
     <g id="line2d_13">
      <path d="M 34.890313 233.398835 
L 351.508565 233.398835 
" clip-path="url(#p8d49fb827c)" style="fill: none; stroke: #3a3a37; stroke-opacity: 0.55; stroke-width: 0.7; stroke-linecap: square"/>
     </g>
     <g id="line2d_14">
      <g>
       <use xlink:href="#m14982721c4" x="34.890313" y="233.398835" style="fill: #c3c2b7; stroke: #c3c2b7; stroke-width: 0.8"/>
      </g>
     </g>
     <g id="text_8">
      <!-- 2 -->
      <g style="fill: #c3c2b7" transform="translate(21.845938 237.008093) scale(0.095 -0.095)">
       <use xlink:href="#DejaVuSans-32"/>
      </g>
     </g>
    </g>
    <g id="ytick_3">
     <g id="line2d_15">
      <path d="M 34.890313 174.765825 
L 351.508565 174.765825 
" clip-path="url(#p8d49fb827c)" style="fill: none; stroke: #3a3a37; stroke-opacity: 0.55; stroke-width: 0.7; stroke-linecap: square"/>
     </g>
     <g id="line2d_16">
      <g>
       <use xlink:href="#m14982721c4" x="34.890313" y="174.765825" style="fill: #c3c2b7; stroke: #c3c2b7; stroke-width: 0.8"/>
      </g>
     </g>
     <g id="text_9">
      <!-- 4 -->
      <g style="fill: #c3c2b7" transform="translate(21.845938 178.375083) scale(0.095 -0.095)">
       <use xlink:href="#DejaVuSans-34"/>
      </g>
     </g>
    </g>
    <g id="ytick_4">
     <g id="line2d_17">
      <path d="M 34.890313 116.132816 
L 351.508565 116.132816 
" clip-path="url(#p8d49fb827c)" style="fill: none; stroke: #3a3a37; stroke-opacity: 0.55; stroke-width: 0.7; stroke-linecap: square"/>
     </g>
     <g id="line2d_18">
      <g>
       <use xlink:href="#m14982721c4" x="34.890313" y="116.132816" style="fill: #c3c2b7; stroke: #c3c2b7; stroke-width: 0.8"/>
      </g>
     </g>
     <g id="text_10">
      <!-- 6 -->
      <g style="fill: #c3c2b7" transform="translate(21.845938 119.742073) scale(0.095 -0.095)">
       <use xlink:href="#DejaVuSans-36"/>
      </g>
     </g>
    </g>
    <g id="ytick_5">
     <g id="line2d_19">
      <path d="M 34.890313 57.499806 
L 351.508565 57.499806 
" clip-path="url(#p8d49fb827c)" style="fill: none; stroke: #3a3a37; stroke-opacity: 0.55; stroke-width: 0.7; stroke-linecap: square"/>
     </g>
     <g id="line2d_20">
      <g>
       <use xlink:href="#m14982721c4" x="34.890313" y="57.499806" style="fill: #c3c2b7; stroke: #c3c2b7; stroke-width: 0.8"/>
      </g>
     </g>
     <g id="text_11">
      <!-- 8 -->
      <g style="fill: #c3c2b7" transform="translate(21.845938 61.109064) scale(0.095 -0.095)">
       <use xlink:href="#DejaVuSans-38"/>
      </g>
     </g>
    </g>
    <g id="text_12">
     <!-- Im(s)  [rad/s] -->
     <g style="fill: #c3c2b7" transform="translate(15.558281 209.065469) rotate(-90) scale(0.11 -0.11)">
      <defs>
       <path id="DejaVuSans-49" d="M 628 4666 
L 1259 4666 
L 1259 0 
L 628 0 
L 628 4666 
z
" transform="scale(0.015625)"/>
       <path id="DejaVuSans-6d" d="M 3328 2828 
Q 3544 3216 3844 3400 
Q 4144 3584 4550 3584 
Q 5097 3584 5394 3201 
Q 5691 2819 5691 2113 
L 5691 0 
L 5113 0 
L 5113 2094 
Q 5113 2597 4934 2840 
Q 4756 3084 4391 3084 
Q 3944 3084 3684 2787 
Q 3425 2491 3425 1978 
L 3425 0 
L 2847 0 
L 2847 2094 
Q 2847 2600 2669 2842 
Q 2491 3084 2119 3084 
Q 1678 3084 1418 2786 
Q 1159 2488 1159 1978 
L 1159 0 
L 581 0 
L 581 3500 
L 1159 3500 
L 1159 2956 
Q 1356 3278 1631 3431 
Q 1906 3584 2284 3584 
Q 2666 3584 2933 3390 
Q 3200 3197 3328 2828 
z
" transform="scale(0.015625)"/>
       <path id="DejaVuSans-72" d="M 2631 2963 
Q 2534 3019 2420 3045 
Q 2306 3072 2169 3072 
Q 1681 3072 1420 2755 
Q 1159 2438 1159 1844 
L 1159 0 
L 581 0 
L 581 3500 
L 1159 3500 
L 1159 2956 
Q 1341 3275 1631 3429 
Q 1922 3584 2338 3584 
Q 2397 3584 2469 3576 
Q 2541 3569 2628 3553 
L 2631 2963 
z
" transform="scale(0.015625)"/>
       <path id="DejaVuSans-61" d="M 2194 1759 
Q 1497 1759 1228 1600 
Q 959 1441 959 1056 
Q 959 750 1161 570 
Q 1363 391 1709 391 
Q 2188 391 2477 730 
Q 2766 1069 2766 1631 
L 2766 1759 
L 2194 1759 
z
M 3341 1997 
L 3341 0 
L 2766 0 
L 2766 531 
Q 2569 213 2275 61 
Q 1981 -91 1556 -91 
Q 1019 -91 701 211 
Q 384 513 384 1019 
Q 384 1609 779 1909 
Q 1175 2209 1959 2209 
L 2766 2209 
L 2766 2266 
Q 2766 2663 2505 2880 
Q 2244 3097 1772 3097 
Q 1472 3097 1187 3025 
Q 903 2953 641 2809 
L 641 3341 
Q 956 3463 1253 3523 
Q 1550 3584 1831 3584 
Q 2591 3584 2966 3190 
Q 3341 2797 3341 1997 
z
" transform="scale(0.015625)"/>
       <path id="DejaVuSans-64" d="M 2906 2969 
L 2906 4863 
L 3481 4863 
L 3481 0 
L 2906 0 
L 2906 525 
Q 2725 213 2448 61 
Q 2172 -91 1784 -91 
Q 1150 -91 751 415 
Q 353 922 353 1747 
Q 353 2572 751 3078 
Q 1150 3584 1784 3584 
Q 2172 3584 2448 3432 
Q 2725 3281 2906 2969 
z
M 947 1747 
Q 947 1113 1208 752 
Q 1469 391 1925 391 
Q 2381 391 2643 752 
Q 2906 1113 2906 1747 
Q 2906 2381 2643 2742 
Q 2381 3103 1925 3103 
Q 1469 3103 1208 2742 
Q 947 2381 947 1747 
z
" transform="scale(0.015625)"/>
      </defs>
      <use xlink:href="#DejaVuSans-49"/>
      <use xlink:href="#DejaVuSans-6d" transform="translate(29.492188 0)"/>
      <use xlink:href="#DejaVuSans-28" transform="translate(126.904297 0)"/>
      <use xlink:href="#DejaVuSans-73" transform="translate(165.917969 0)"/>
      <use xlink:href="#DejaVuSans-29" transform="translate(218.017578 0)"/>
      <use xlink:href="#DejaVuSans-20" transform="translate(257.03125 0)"/>
      <use xlink:href="#DejaVuSans-20" transform="translate(288.818359 0)"/>
      <use xlink:href="#DejaVuSans-5b" transform="translate(320.605469 0)"/>
      <use xlink:href="#DejaVuSans-72" transform="translate(359.619141 0)"/>
      <use xlink:href="#DejaVuSans-61" transform="translate(400.732422 0)"/>
      <use xlink:href="#DejaVuSans-64" transform="translate(462.011719 0)"/>
      <use xlink:href="#DejaVuSans-2f" transform="translate(525.488281 0)"/>
      <use xlink:href="#DejaVuSans-73" transform="translate(559.179688 0)"/>
      <use xlink:href="#DejaVuSans-5d" transform="translate(611.279297 0)"/>
     </g>
    </g>
   </g>
   <g id="patch_3">
    <path d="M 251.832448 292.031845 
L 251.832448 190.476493 
L 193.199439 88.921141 
L 192.379175 89.396934 
L 191.560843 89.876039 
L 190.744453 90.35845 
L 189.930022 90.844157 
L 189.11756 91.333153 
L 188.307083 91.82543 
L 187.498602 92.32098 
L 186.692132 92.819795 
L 185.887685 93.321866 
L 185.085274 93.827186 
L 184.284913 94.335746 
L 183.486615 94.847538 
L 182.690393 95.362554 
L 181.89626 95.880784 
L 181.104228 96.402221 
L 180.314312 96.926857 
L 179.526522 97.454682 
L 178.740874 97.985687 
L 177.957379 98.519865 
L 177.17605 99.057207 
L 176.3969 99.597703 
L 175.619942 100.141345 
L 174.845188 100.688124 
L 174.072651 101.238031 
L 173.302344 101.791057 
L 172.534279 102.347193 
L 171.768469 102.90643 
L 171.004927 103.468758 
L 170.243664 104.03417 
L 169.484694 104.602654 
L 168.728028 105.174203 
L 167.97368 105.748806 
L 167.221661 106.326455 
L 166.471983 106.90714 
L 165.72466 107.49085 
L 164.979703 108.077578 
L 164.237124 108.667313 
L 163.496935 109.260046 
L 162.75915 109.855766 
L 162.023778 110.454465 
L 161.290834 111.056132 
L 160.560328 111.660757 
L 159.832273 112.268331 
L 159.10668 112.878844 
L 158.383562 113.492286 
L 157.66293 114.108646 
L 156.944796 114.727915 
L 156.229171 115.350083 
L 155.516068 115.975138 
L 154.805498 116.603072 
L 154.097473 117.233874 
L 153.392004 117.867534 
L 152.689103 118.50404 
L 151.988781 119.143383 
L 151.29105 119.785553 
L 150.595921 120.430539 
L 149.903405 121.078329 
L 149.213514 121.728915 
L 148.52626 122.382285 
L 147.841652 123.038427 
L 147.159704 123.697333 
L 146.480425 124.358991 
L 145.803826 125.023389 
L 145.12992 125.690518 
L 144.458716 126.360366 
L 143.790226 127.032922 
L 143.124461 127.708176 
L 142.461432 128.386116 
L 141.801149 129.066732 
L 141.143623 129.750011 
L 140.488866 130.435943 
L 139.836887 131.124517 
L 139.187698 131.815722 
L 138.541308 132.509546 
L 137.897729 133.205977 
L 137.256971 133.905005 
L 136.619045 134.606618 
L 135.983961 135.310805 
L 135.351729 136.017553 
L 134.72236 136.726852 
L 134.095864 137.43869 
L 133.472251 138.153056 
L 132.851531 138.869936 
L 132.233715 139.589321 
L 131.618813 140.311198 
L 131.006834 141.035555 
L 130.39779 141.76238 
L 129.791689 142.491662 
L 129.188541 143.223389 
L 128.588357 143.957548 
L 127.991146 144.694128 
L 127.396919 145.433116 
L 126.805684 146.174502 
L 126.217451 146.918271 
L 125.632231 147.664413 
L 125.050032 148.412915 
L 124.470864 149.163765 
L 123.894737 149.91695 
L 123.32166 150.672459 
L 122.751642 151.430278 
L 122.184693 152.190396 
L 121.620822 152.952801 
L 121.060038 153.717478 
L 120.50235 154.484417 
L 119.947768 155.253605 
L 119.3963 156.025028 
L 118.847956 156.798675 
L 118.302745 157.574533 
L 117.760674 158.352588 
L 117.221755 159.132829 
L 116.685994 159.915243 
L 116.153401 160.699816 
L 115.623985 161.486537 
L 115.097753 162.275391 
L 114.574716 163.066367 
L 114.054881 163.859451 
L 113.538257 164.654631 
L 113.024852 165.451892 
L 112.514675 166.251223 
L 112.007734 167.05261 
L 111.504037 167.856041 
L 111.003593 168.661501 
L 110.50641 169.468978 
L 110.012495 170.278459 
L 109.521858 171.08993 
L 109.034505 171.903379 
L 108.550445 172.718791 
L 108.069686 173.536153 
L 107.592236 174.355453 
L 107.118103 175.176677 
L 106.647293 175.99981 
L 106.179816 176.824841 
L 105.715678 177.651755 
L 105.254888 178.480539 
L 104.797452 179.311179 
L 104.343378 180.143662 
L 103.892674 180.977974 
L 103.445347 181.814102 
L 103.001404 182.652031 
L 102.560853 183.491749 
L 102.123701 184.33324 
L 101.689954 185.176493 
L 101.259621 186.021492 
L 100.832707 186.868224 
L 100.409221 187.716676 
L 99.989168 188.566833 
L 99.572557 189.418681 
L 99.159393 190.272207 
L 98.749683 191.127396 
L 98.343434 191.984235 
L 97.940653 192.842709 
L 97.541347 193.702805 
L 97.145521 194.564508 
L 96.753182 195.427805 
L 96.364338 196.292681 
L 95.978993 197.159122 
L 95.597155 198.027114 
L 95.218829 198.896643 
L 94.844022 199.767694 
L 94.47274 200.640254 
L 94.104989 201.514308 
L 93.740775 202.389841 
L 93.380103 203.26684 
L 93.022981 204.14529 
L 92.669414 205.025177 
L 92.319407 205.906486 
L 91.972966 206.789203 
L 91.630097 207.673314 
L 91.290805 208.558803 
L 90.955096 209.445657 
L 90.622976 210.333862 
L 90.29445 211.223402 
L 89.969523 212.114263 
L 89.648201 213.00643 
L 89.330488 213.899889 
L 89.016391 214.794626 
L 88.705914 215.690625 
L 88.399062 216.587872 
L 88.09584 217.486353 
L 87.796254 218.386052 
L 87.500308 219.286955 
L 87.208006 220.189048 
L 86.919355 221.092315 
L 86.634358 221.996741 
L 86.35302 222.902313 
L 86.075346 223.809014 
L 85.80134 224.716831 
L 85.531006 225.625748 
L 85.26435 226.535751 
L 85.001376 227.446825 
L 84.742087 228.358954 
L 84.486488 229.272125 
L 84.234584 230.186321 
L 83.986378 231.101528 
L 83.741874 232.017732 
L 83.501077 232.934916 
L 83.26399 233.853067 
L 83.030618 234.772168 
L 82.800963 235.692206 
L 82.57503 236.613165 
L 82.352823 237.53503 
L 82.134345 238.457785 
L 81.919599 239.381417 
L 81.70859 240.305909 
L 81.50132 241.231247 
L 81.297793 242.157415 
L 81.098013 243.084399 
L 80.901983 244.012182 
L 80.709705 244.940751 
L 80.521183 245.87009 
L 80.33642 246.800183 
L 80.15542 247.731016 
L 79.978184 248.662573 
L 79.804716 249.594839 
L 79.63502 250.527798 
L 79.469096 251.461436 
L 79.306949 252.395738 
L 79.148581 253.330687 
L 78.993994 254.266269 
L 78.843192 255.202468 
L 78.696176 256.13927 
L 78.552948 257.076658 
L 78.413512 258.014618 
L 78.27787 258.953134 
L 78.146023 259.89219 
L 78.017974 260.831772 
L 77.893726 261.771864 
L 77.773279 262.712451 
L 77.656636 263.653517 
L 77.543799 264.595046 
L 77.43477 265.537025 
L 77.32955 266.479436 
L 77.228142 267.422266 
L 77.130546 268.365497 
L 77.036765 269.309116 
L 76.9468 270.253106 
L 76.860652 271.197452 
L 76.778324 272.142138 
L 76.699815 273.08715 
L 76.625128 274.032471 
L 76.554264 274.978087 
L 76.487224 275.923982 
L 76.424009 276.870139 
L 76.36462 277.816545 
L 76.309058 278.763183 
L 76.257324 279.710038 
L 76.209418 280.657094 
L 76.165342 281.604337 
L 76.125097 282.551749 
L 76.088682 283.499317 
L 76.056099 284.447025 
L 76.027348 285.394856 
L 76.002429 286.342796 
L 75.981344 287.290828 
L 75.964091 288.238939 
L 75.950672 289.187111 
L 75.941087 290.13533 
L 75.935336 291.083579 
L 75.933419 292.031845 
z
" clip-path="url(#p8d49fb827c)" style="fill: #3987e5; opacity: 0.16; stroke: #3987e5; stroke-width: 1.4; stroke-linejoin: miter"/>
   </g>
   <g id="patch_4">
    <path d="M 280.562623 252.161398 
C 274.373214 256.803455 269.348928 262.823618 265.888944 269.743587 
C 262.428959 276.663557 260.6274 284.295084 260.6274 292.031845 
L 310.465458 292.031845 
L 280.562623 252.161398 
z
" clip-path="url(#p8d49fb827c)" style="fill: none; stroke: #c3c2b7; stroke-width: 1.1; stroke-linejoin: miter"/>
   </g>
   <g id="line2d_21">
    <path d="M 310.465458 233.398835 
L 306.771564 233.515309 
L 303.092346 233.864267 
L 299.442421 234.444324 
L 295.836291 235.253175 
L 292.288281 236.287607 
L 288.812489 237.543509 
L 285.422724 239.015891 
L 282.132453 240.698905 
L 278.954749 242.585864 
L 275.902236 244.66927 
L 272.987041 246.940847 
L 270.220748 249.391569 
L 267.614346 252.0117 
L 265.17819 254.79083 
L 262.92196 257.717917 
L 260.854619 260.781334 
L 258.98438 263.968907 
L 257.318675 267.267974 
L 255.864121 270.665428 
L 254.626496 274.14777 
L 253.610718 277.701164 
L 252.820823 281.311494 
L 252.259949 284.964416 
L 251.930324 288.645417 
L 251.832448 292.031845 
L 251.832448 292.031845 
" clip-path="url(#p8d49fb827c)" style="fill: none; stroke-dasharray: 1,1.65; stroke-dashoffset: 0; stroke: #6f6e68"/>
   </g>
   <g id="line2d_22">
    <path d="M 310.465458 145.44932 
L 305.076175 145.548426 
L 299.694178 145.845607 
L 294.326747 146.340464 
L 288.981139 147.032326 
L 283.664583 147.920258 
L 278.384266 149.003059 
L 273.14733 150.279265 
L 267.960857 151.747151 
L 262.831858 153.404731 
L 257.76727 155.249765 
L 252.773941 157.279756 
L 247.858624 159.491961 
L 243.027964 161.883388 
L 238.288493 164.450803 
L 233.646621 167.190735 
L 229.108625 170.099478 
L 224.68064 173.173099 
L 220.368654 176.407443 
L 216.178498 179.798135 
L 212.115838 183.340591 
L 208.186168 187.03002 
L 204.394801 190.861434 
L 200.746863 194.829652 
L 197.247289 198.929307 
L 193.900809 203.154857 
L 190.711949 207.500587 
L 187.685021 211.960622 
L 184.824119 216.528929 
L 182.133109 221.199333 
L 179.615633 225.965517 
L 177.275093 230.821037 
L 175.114654 235.759326 
L 173.137239 240.773708 
L 171.34552 245.857402 
L 169.74192 251.003533 
L 168.328609 256.205144 
L 167.107496 261.455199 
L 166.080234 266.746601 
L 165.248211 272.072194 
L 164.612553 277.424776 
L 164.174118 282.79711 
L 163.933501 288.181931 
L 163.882934 292.031845 
L 163.882934 292.031845 
" clip-path="url(#p8d49fb827c)" style="fill: none; stroke-dasharray: 1,1.65; stroke-dashoffset: 0; stroke: #6f6e68"/>
   </g>
   <g id="line2d_23">
    <path d="M 310.465458 57.499806 
L 303.073999 57.616309 
L 295.689883 57.965701 
L 288.320446 58.547636 
L 280.97301 59.361536 
L 273.654875 60.406591 
L 266.37331 61.681764 
L 259.135551 63.185787 
L 251.948788 64.917168 
L 244.82016 66.874184 
L 237.75675 69.054893 
L 230.765576 71.457127 
L 223.853583 74.0785 
L 217.027638 76.916408 
L 210.294523 79.968031 
L 203.660927 83.230338 
L 197.133439 86.700087 
L 190.718547 90.373831 
L 184.422621 94.247921 
L 178.251919 98.318507 
L 172.212569 102.581546 
L 166.310572 107.032801 
L 160.551792 111.667852 
L 154.941949 116.482093 
L 149.486618 121.470741 
L 144.191218 126.628839 
L 139.061009 131.951264 
L 134.10109 137.432728 
L 129.316387 143.067785 
L 124.711654 148.850836 
L 120.291465 154.776136 
L 116.060213 160.837798 
L 112.022101 167.0298 
L 108.18114 173.345991 
L 104.541147 179.780095 
L 101.105738 186.32572 
L 97.878326 192.976364 
L 94.862117 199.725418 
L 92.060108 206.566177 
L 89.475083 213.491846 
L 87.10961 220.495544 
L 84.966039 227.570313 
L 83.046499 234.709123 
L 81.352899 241.904883 
L 79.886919 249.150444 
L 78.650017 256.438607 
L 77.643422 263.762131 
L 76.868133 271.113742 
L 76.324921 278.486134 
L 76.014326 285.871983 
L 75.933419 292.031845 
L 75.933419 292.031845 
" clip-path="url(#p8d49fb827c)" style="fill: none; stroke-dasharray: 1,1.65; stroke-dashoffset: 0; stroke: #6f6e68"/>
   </g>
   <g id="line2d_24">
    <path d="M 310.465458 292.031845 
L 231.310895 40.336376 
" clip-path="url(#p8d49fb827c)" style="fill: none; stroke-dasharray: 4.44,1.92; stroke-dashoffset: 0; stroke: #d95926; stroke-width: 1.2"/>
   </g>
   <g id="line2d_25">
    <path d="M 310.465458 292.031845 
L 152.156332 80.95301 
" clip-path="url(#p8d49fb827c)" style="fill: none; stroke-dasharray: 4.44,1.92; stroke-dashoffset: 0; stroke: #d95926; stroke-width: 1.2"/>
   </g>
   <g id="line2d_26">
    <path d="M 310.465458 292.031845 
L 73.001769 177.022931 
" clip-path="url(#p8d49fb827c)" style="fill: none; stroke-dasharray: 4.44,1.92; stroke-dashoffset: 0; stroke: #d95926; stroke-width: 1.2"/>
   </g>
   <g id="line2d_27">
    <path d="M 251.832448 292.031845 
L 251.832448 39.909903 
" clip-path="url(#p8d49fb827c)" style="fill: none; stroke-dasharray: 7.68,1.92,1.2,1.92; stroke-dashoffset: 0; stroke: #3987e5; stroke-width: 1.2"/>
   </g>
   <g id="line2d_28">
    <defs>
     <path id="m8f03d95217" d="M -5 5 
L 5 -5 
M -5 -5 
L 5 5 
" style="stroke: #199e70; stroke-width: 2"/>
    </defs>
    <g>
     <use xlink:href="#m8f03d95217" x="222.515944" y="174.765825" style="fill: #199e70; stroke: #199e70; stroke-width: 2"/>
    </g>
   </g>
   <g id="line2d_29">
    <path d="M 310.465458 292.031845 
L 222.515944 174.765825 
" clip-path="url(#p8d49fb827c)" style="fill: none; stroke: #c3c2b7; stroke-width: 1.2; stroke-linecap: square"/>
   </g>
   <g id="line2d_30">
    <path d="M 34.890313 292.031845 
L 351.508565 292.031845 
" clip-path="url(#p8d49fb827c)" style="fill: none; stroke: #c3c2b7; stroke-linecap: square"/>
   </g>
   <g id="line2d_31">
    <path d="M 310.465458 324.28 
L 310.465458 22.32 
" clip-path="url(#p8d49fb827c)" style="fill: none; stroke: #c3c2b7; stroke-width: 1.4; stroke-linecap: square"/>
   </g>
   <g id="patch_5">
    <path d="M 34.890313 324.28 
L 34.890313 22.32 
" style="fill: none; stroke: #3a3a37; stroke-linejoin: miter; stroke-linecap: square"/>
   </g>
   <g id="patch_6">
    <path d="M 34.890313 324.28 
L 351.508565 324.28 
" style="fill: none; stroke: #3a3a37; stroke-linejoin: miter; stroke-linecap: square"/>
   </g>
   <g id="text_13">
    <!-- $\omega_n$ = 2 -->
    <g style="fill: #c3c2b7" transform="translate(276.997982 231.631101) scale(0.085 -0.085)">
     <defs>
      <path id="DejaVuSans-Oblique-3c9" d="M 1369 -91 
Q 72 -91 434 1766 
Q 575 2500 1256 3500 
L 1875 3500 
Q 1231 2500 1088 1750 
Q 819 397 1519 397 
Q 2166 397 2478 2078 
L 3009 2078 
Q 2669 388 3316 397 
Q 4013 403 4275 1750 
Q 4419 2500 4169 3500 
L 4788 3500 
Q 5075 2500 4934 1766 
Q 4578 -94 3278 -91 
Q 2428 -88 2503 844 
Q 2194 -91 1369 -91 
z
" transform="scale(0.015625)"/>
      <path id="DejaVuSans-Oblique-6e" d="M 3566 2113 
L 3156 0 
L 2578 0 
L 2988 2091 
Q 3016 2238 3031 2350 
Q 3047 2463 3047 2528 
Q 3047 2791 2881 2937 
Q 2716 3084 2419 3084 
Q 1956 3084 1622 2776 
Q 1288 2469 1184 1941 
L 800 0 
L 225 0 
L 903 3500 
L 1478 3500 
L 1363 2950 
Q 1603 3253 1940 3418 
Q 2278 3584 2650 3584 
Q 3113 3584 3367 3334 
Q 3622 3084 3622 2631 
Q 3622 2519 3608 2391 
Q 3594 2263 3566 2113 
z
" transform="scale(0.015625)"/>
      <path id="DejaVuSans-3d" d="M 678 2906 
L 4684 2906 
L 4684 2381 
L 678 2381 
L 678 2906 
z
M 678 1631 
L 4684 1631 
L 4684 1100 
L 678 1100 
L 678 1631 
z
" transform="scale(0.015625)"/>
     </defs>
     <use xlink:href="#DejaVuSans-Oblique-3c9" transform="translate(0 0.78125)"/>
     <use xlink:href="#DejaVuSans-Oblique-6e" transform="translate(83.740234 -15.625) scale(0.7)"/>
     <use xlink:href="#DejaVuSans-20" transform="translate(130.839844 0.78125)"/>
     <use xlink:href="#DejaVuSans-3d" transform="translate(162.626953 0.78125)"/>
     <use xlink:href="#DejaVuSans-20" transform="translate(246.416016 0.78125)"/>
     <use xlink:href="#DejaVuSans-32" transform="translate(278.203125 0.78125)"/>
    </g>
   </g>
   <g id="text_14">
    <!-- $\omega_n$ = 5 -->
    <g style="fill: #c3c2b7" transform="translate(276.997982 143.681586) scale(0.085 -0.085)">
     <defs>
      <path id="DejaVuSans-35" d="M 691 4666 
L 3169 4666 
L 3169 4134 
L 1269 4134 
L 1269 2991 
Q 1406 3038 1543 3061 
Q 1681 3084 1819 3084 
Q 2600 3084 3056 2656 
Q 3513 2228 3513 1497 
Q 3513 744 3044 326 
Q 2575 -91 1722 -91 
Q 1428 -91 1123 -41 
Q 819 9 494 109 
L 494 744 
Q 775 591 1075 516 
Q 1375 441 1709 441 
Q 2250 441 2565 725 
Q 2881 1009 2881 1497 
Q 2881 1984 2565 2268 
Q 2250 2553 1709 2553 
Q 1456 2553 1204 2497 
Q 953 2441 691 2322 
L 691 4666 
z
" transform="scale(0.015625)"/>
     </defs>
     <use xlink:href="#DejaVuSans-Oblique-3c9" transform="translate(0 0.09375)"/>
     <use xlink:href="#DejaVuSans-Oblique-6e" transform="translate(83.740234 -16.3125) scale(0.7)"/>
     <use xlink:href="#DejaVuSans-20" transform="translate(130.839844 0.09375)"/>
     <use xlink:href="#DejaVuSans-3d" transform="translate(162.626953 0.09375)"/>
     <use xlink:href="#DejaVuSans-20" transform="translate(246.416016 0.09375)"/>
     <use xlink:href="#DejaVuSans-35" transform="translate(278.203125 0.09375)"/>
    </g>
   </g>
   <g id="text_15">
    <!-- $\omega_n$ = 8 -->
    <g style="fill: #c3c2b7" transform="translate(276.997982 55.732071) scale(0.085 -0.085)">
     <use xlink:href="#DejaVuSans-Oblique-3c9" transform="translate(0 0.78125)"/>
     <use xlink:href="#DejaVuSans-Oblique-6e" transform="translate(83.740234 -15.625) scale(0.7)"/>
     <use xlink:href="#DejaVuSans-20" transform="translate(130.839844 0.78125)"/>
     <use xlink:href="#DejaVuSans-3d" transform="translate(162.626953 0.78125)"/>
     <use xlink:href="#DejaVuSans-20" transform="translate(246.416016 0.78125)"/>
     <use xlink:href="#DejaVuSans-38" transform="translate(278.203125 0.78125)"/>
    </g>
   </g>
   <g id="text_16">
    <!-- $\zeta$ = 0.3 -->
    <g style="fill: #c3c2b7" transform="translate(229.137817 79.674256) scale(0.09 -0.09)">
     <defs>
      <path id="DejaVuSans-Oblique-3b6" d="M 1966 397 
Q 2378 394 2578 159 
Q 2794 -88 2722 -463 
Q 2650 -822 2372 -1072 
Q 2069 -1344 1559 -1344 
Q 1606 -1109 1650 -872 
Q 1863 -888 2022 -750 
Q 2144 -641 2166 -525 
Q 2197 -359 2125 -222 
Q 2050 -91 1872 -91 
Q -22 -91 316 1669 
Q 616 3206 2609 4284 
L 947 4284 
L 1059 4863 
L 3778 4863 
L 3666 4284 
Q 1181 3147 894 1669 
Q 647 397 1966 397 
z
" transform="scale(0.015625)"/>
      <path id="DejaVuSans-2e" d="M 684 794 
L 1344 794 
L 1344 0 
L 684 0 
L 684 794 
z
" transform="scale(0.015625)"/>
      <path id="DejaVuSans-33" d="M 2597 2516 
Q 3050 2419 3304 2112 
Q 3559 1806 3559 1356 
Q 3559 666 3084 287 
Q 2609 -91 1734 -91 
Q 1441 -91 1130 -33 
Q 819 25 488 141 
L 488 750 
Q 750 597 1062 519 
Q 1375 441 1716 441 
Q 2309 441 2620 675 
Q 2931 909 2931 1356 
Q 2931 1769 2642 2001 
Q 2353 2234 1838 2234 
L 1294 2234 
L 1294 2753 
L 1863 2753 
Q 2328 2753 2575 2939 
Q 2822 3125 2822 3475 
Q 2822 3834 2567 4026 
Q 2313 4219 1838 4219 
Q 1578 4219 1281 4162 
Q 984 4106 628 3988 
L 628 4550 
Q 988 4650 1302 4700 
Q 1616 4750 1894 4750 
Q 2613 4750 3031 4423 
Q 3450 4097 3450 3541 
Q 3450 3153 3228 2886 
Q 3006 2619 2597 2516 
z
" transform="scale(0.015625)"/>
     </defs>
     <use xlink:href="#DejaVuSans-Oblique-3b6" transform="translate(0 0.015625)"/>
     <use xlink:href="#DejaVuSans-20" transform="translate(54.394531 0.015625)"/>
     <use xlink:href="#DejaVuSans-3d" transform="translate(86.181641 0.015625)"/>
     <use xlink:href="#DejaVuSans-20" transform="translate(169.970703 0.015625)"/>
     <use xlink:href="#DejaVuSans-30" transform="translate(201.757812 0.015625)"/>
     <use xlink:href="#DejaVuSans-2e" transform="translate(265.380859 0.015625)"/>
     <use xlink:href="#DejaVuSans-33" transform="translate(297.167969 0.015625)"/>
    </g>
   </g>
   <g id="text_17">
    <!-- $\zeta$ = 0.6 -->
    <g style="fill: #c3c2b7" transform="translate(164.055177 113.070155) scale(0.09 -0.09)">
     <use xlink:href="#DejaVuSans-Oblique-3b6" transform="translate(0 0.015625)"/>
     <use xlink:href="#DejaVuSans-20" transform="translate(54.394531 0.015625)"/>
     <use xlink:href="#DejaVuSans-3d" transform="translate(86.181641 0.015625)"/>
     <use xlink:href="#DejaVuSans-20" transform="translate(169.970703 0.015625)"/>
     <use xlink:href="#DejaVuSans-30" transform="translate(201.757812 0.015625)"/>
     <use xlink:href="#DejaVuSans-2e" transform="translate(265.380859 0.015625)"/>
     <use xlink:href="#DejaVuSans-36" transform="translate(297.167969 0.015625)"/>
    </g>
   </g>
   <g id="text_18">
    <!-- $\zeta$ = 0.9 -->
    <g style="fill: #c3c2b7" transform="translate(98.972536 192.060979) scale(0.09 -0.09)">
     <defs>
      <path id="DejaVuSans-39" d="M 703 97 
L 703 672 
Q 941 559 1184 500 
Q 1428 441 1663 441 
Q 2288 441 2617 861 
Q 2947 1281 2994 2138 
Q 2813 1869 2534 1725 
Q 2256 1581 1919 1581 
Q 1219 1581 811 2004 
Q 403 2428 403 3163 
Q 403 3881 828 4315 
Q 1253 4750 1959 4750 
Q 2769 4750 3195 4129 
Q 3622 3509 3622 2328 
Q 3622 1225 3098 567 
Q 2575 -91 1691 -91 
Q 1453 -91 1209 -44 
Q 966 3 703 97 
z
M 1959 2075 
Q 2384 2075 2632 2365 
Q 2881 2656 2881 3163 
Q 2881 3666 2632 3958 
Q 2384 4250 1959 4250 
Q 1534 4250 1286 3958 
Q 1038 3666 1038 3163 
Q 1038 2656 1286 2365 
Q 1534 2075 1959 2075 
z
" transform="scale(0.015625)"/>
     </defs>
     <use xlink:href="#DejaVuSans-Oblique-3b6" transform="translate(0 0.015625)"/>
     <use xlink:href="#DejaVuSans-20" transform="translate(54.394531 0.015625)"/>
     <use xlink:href="#DejaVuSans-3d" transform="translate(86.181641 0.015625)"/>
     <use xlink:href="#DejaVuSans-20" transform="translate(169.970703 0.015625)"/>
     <use xlink:href="#DejaVuSans-30" transform="translate(201.757812 0.015625)"/>
     <use xlink:href="#DejaVuSans-2e" transform="translate(265.380859 0.015625)"/>
     <use xlink:href="#DejaVuSans-39" transform="translate(297.167969 0.015625)"/>
    </g>
   </g>
   <g id="text_19">
    <!-- $\sigma \geq 2$ -->
    <g style="fill: #c3c2b7" transform="translate(254.177769 49.764786) scale(0.09 -0.09)">
     <defs>
      <path id="DejaVuSans-Oblique-3c3" d="M 2219 3044 
Q 1744 3044 1422 2700 
Q 1081 2341 969 1747 
Q 844 1119 1044 756 
Q 1241 397 1706 397 
Q 2166 397 2503 759 
Q 2844 1122 2966 1747 
Q 3075 2319 2881 2700 
Q 2700 3044 2219 3044 
z
M 2309 3503 
L 4219 3500 
L 4106 2925 
L 3463 2925 
Q 3706 2438 3575 1747 
Q 3406 888 2884 400 
Q 2359 -91 1609 -91 
Q 856 -91 525 400 
Q 194 888 363 1747 
Q 528 2609 1050 3097 
Q 1484 3503 2309 3503 
z
" transform="scale(0.015625)"/>
      <path id="DejaVuSans-2265" d="M 678 3175 
L 678 3725 
L 4684 2578 
L 4684 2047 
L 678 897 
L 678 1453 
L 3681 2309 
L 678 3175 
z
M 4684 531 
L 4684 0 
L 678 0 
L 678 531 
L 4684 531 
z
" transform="scale(0.015625)"/>
     </defs>
     <use xlink:href="#DejaVuSans-Oblique-3c3" transform="translate(0 0.78125)"/>
     <use xlink:href="#DejaVuSans-2265" transform="translate(82.861328 0.78125)"/>
     <use xlink:href="#DejaVuSans-32" transform="translate(186.132812 0.78125)"/>
    </g>
   </g>
   <g id="text_20">
    <!-- $-3 + j4$ -->
    <g style="fill: #199e70" transform="translate(170.315944 162.765825) scale(0.1 -0.1)">
     <defs>
      <path id="DejaVuSans-2b" d="M 2944 4013 
L 2944 2272 
L 4684 2272 
L 4684 1741 
L 2944 1741 
L 2944 0 
L 2419 0 
L 2419 1741 
L 678 1741 
L 678 2272 
L 2419 2272 
L 2419 4013 
L 2944 4013 
z
" transform="scale(0.015625)"/>
      <path id="DejaVuSans-Oblique-6a" d="M 928 3500 
L 1503 3500 
L 813 -63 
L 809 -78 
Q 694 -675 544 -897 
Q 403 -1106 132 -1218 
Q -138 -1331 -506 -1331 
L -722 -1331 
L -628 -844 
L -481 -844 
Q -144 -844 -1 -703 
Q 141 -563 238 -63 
L 928 3500 
z
M 1197 4863 
L 1772 4863 
L 1631 4134 
L 1056 4134 
L 1197 4863 
z
" transform="scale(0.015625)"/>
     </defs>
     <use xlink:href="#DejaVuSans-2212" transform="translate(0 0.015625)"/>
     <use xlink:href="#DejaVuSans-33" transform="translate(83.789062 0.015625)"/>
     <use xlink:href="#DejaVuSans-2b" transform="translate(166.894531 0.015625)"/>
     <use xlink:href="#DejaVuSans-Oblique-6a" transform="translate(270.166016 0.015625)"/>
     <use xlink:href="#DejaVuSans-34" transform="translate(297.949219 0.015625)"/>
    </g>
   </g>
   <g id="text_21">
    <!-- $\theta$ -->
    <g style="fill: #c3c2b7" transform="translate(268.836021 271.567955) scale(0.11 -0.11)">
     <defs>
      <path id="DejaVuSans-Oblique-3b8" d="M 2913 2219 
L 925 2219 
Q 791 1284 928 888 
Q 1100 400 1566 400 
Q 2034 400 2391 891 
Q 2703 1322 2913 2219 
z
M 3009 2750 
Q 3094 3638 2984 3950 
Q 2813 4444 2353 4444 
Q 1875 4444 1525 3956 
Q 1250 3563 1034 2750 
L 3009 2750 
z
M 2444 4913 
Q 3194 4913 3494 4250 
Q 3794 3591 3566 2422 
Q 3341 1256 2781 594 
Q 2225 -72 1475 -72 
Q 722 -72 425 594 
Q 128 1256 353 2422 
Q 581 3591 1134 4250 
Q 1691 4913 2444 4913 
z
" transform="scale(0.015625)"/>
     </defs>
     <use xlink:href="#DejaVuSans-Oblique-3b8" transform="translate(0 0.234375)"/>
    </g>
   </g>
   <g id="text_22">
    <!-- shaded: $\zeta \geq 0.5$, $\omega_n \leq 8$, $\sigma \geq 2$ -->
    <g style="fill: #c3c2b7" transform="translate(38.056495 32.1796) scale(0.09 -0.09)">
     <defs>
      <path id="DejaVuSans-68" d="M 3513 2113 
L 3513 0 
L 2938 0 
L 2938 2094 
Q 2938 2591 2744 2837 
Q 2550 3084 2163 3084 
Q 1697 3084 1428 2787 
Q 1159 2491 1159 1978 
L 1159 0 
L 581 0 
L 581 4863 
L 1159 4863 
L 1159 2956 
Q 1366 3272 1645 3428 
Q 1925 3584 2291 3584 
Q 2894 3584 3203 3211 
Q 3513 2838 3513 2113 
z
" transform="scale(0.015625)"/>
      <path id="DejaVuSans-3a" d="M 750 794 
L 1409 794 
L 1409 0 
L 750 0 
L 750 794 
z
M 750 3309 
L 1409 3309 
L 1409 2516 
L 750 2516 
L 750 3309 
z
" transform="scale(0.015625)"/>
      <path id="DejaVuSans-2c" d="M 750 794 
L 1409 794 
L 1409 256 
L 897 -744 
L 494 -744 
L 750 256 
L 750 794 
z
" transform="scale(0.015625)"/>
      <path id="DejaVuSans-2264" d="M 4684 3175 
L 1684 2309 
L 4684 1453 
L 4684 897 
L 678 2047 
L 678 2578 
L 4684 3725 
L 4684 3175 
z
M 678 531 
L 4684 531 
L 4684 0 
L 678 0 
L 678 531 
z
" transform="scale(0.015625)"/>
     </defs>
     <use xlink:href="#DejaVuSans-73" transform="translate(0 0.015625)"/>
     <use xlink:href="#DejaVuSans-68" transform="translate(52.099609 0.015625)"/>
     <use xlink:href="#DejaVuSans-61" transform="translate(115.478516 0.015625)"/>
     <use xlink:href="#DejaVuSans-64" transform="translate(176.757812 0.015625)"/>
     <use xlink:href="#DejaVuSans-65" transform="translate(240.234375 0.015625)"/>
     <use xlink:href="#DejaVuSans-64" transform="translate(301.757812 0.015625)"/>
     <use xlink:href="#DejaVuSans-3a" transform="translate(365.234375 0.015625)"/>
     <use xlink:href="#DejaVuSans-20" transform="translate(398.925781 0.015625)"/>
     <use xlink:href="#DejaVuSans-Oblique-3b6" transform="translate(430.712891 0.015625)"/>
     <use xlink:href="#DejaVuSans-2265" transform="translate(504.589844 0.015625)"/>
     <use xlink:href="#DejaVuSans-30" transform="translate(607.861328 0.015625)"/>
     <use xlink:href="#DejaVuSans-2e" transform="translate(671.484375 0.015625)"/>
     <use xlink:href="#DejaVuSans-35" transform="translate(703.271484 0.015625)"/>
     <use xlink:href="#DejaVuSans-2c" transform="translate(766.894531 0.015625)"/>
     <use xlink:href="#DejaVuSans-20" transform="translate(798.681641 0.015625)"/>
     <use xlink:href="#DejaVuSans-Oblique-3c9" transform="translate(830.46875 0.015625)"/>
     <use xlink:href="#DejaVuSans-Oblique-6e" transform="translate(914.208984 -16.390625) scale(0.7)"/>
     <use xlink:href="#DejaVuSans-2264" transform="translate(980.791016 0.015625)"/>
     <use xlink:href="#DejaVuSans-38" transform="translate(1084.0625 0.015625)"/>
     <use xlink:href="#DejaVuSans-2c" transform="translate(1147.685547 0.015625)"/>
     <use xlink:href="#DejaVuSans-20" transform="translate(1179.472656 0.015625)"/>
     <use xlink:href="#DejaVuSans-Oblique-3c3" transform="translate(1211.259766 0.015625)"/>
     <use xlink:href="#DejaVuSans-2265" transform="translate(1294.121094 0.015625)"/>
     <use xlink:href="#DejaVuSans-32" transform="translate(1397.392578 0.015625)"/>
    </g>
    <!-- marked pole: $\omega_n$ = 5, $\zeta$ = cos $\theta$ = 0.6 -->
    <g style="fill: #c3c2b7" transform="translate(38.056495 44.1181) scale(0.09 -0.09)">
     <defs>
      <path id="DejaVuSans-6b" d="M 581 4863 
L 1159 4863 
L 1159 1991 
L 2875 3500 
L 3609 3500 
L 1753 1863 
L 3688 0 
L 2938 0 
L 1159 1709 
L 1159 0 
L 581 0 
L 581 4863 
z
" transform="scale(0.015625)"/>
      <path id="DejaVuSans-70" d="M 1159 525 
L 1159 -1331 
L 581 -1331 
L 581 3500 
L 1159 3500 
L 1159 2969 
Q 1341 3281 1617 3432 
Q 1894 3584 2278 3584 
Q 2916 3584 3314 3078 
Q 3713 2572 3713 1747 
Q 3713 922 3314 415 
Q 2916 -91 2278 -91 
Q 1894 -91 1617 61 
Q 1341 213 1159 525 
z
M 3116 1747 
Q 3116 2381 2855 2742 
Q 2594 3103 2138 3103 
Q 1681 3103 1420 2742 
Q 1159 2381 1159 1747 
Q 1159 1113 1420 752 
Q 1681 391 2138 391 
Q 2594 391 2855 752 
Q 3116 1113 3116 1747 
z
" transform="scale(0.015625)"/>
      <path id="DejaVuSans-6f" d="M 1959 3097 
Q 1497 3097 1228 2736 
Q 959 2375 959 1747 
Q 959 1119 1226 758 
Q 1494 397 1959 397 
Q 2419 397 2687 759 
Q 2956 1122 2956 1747 
Q 2956 2369 2687 2733 
Q 2419 3097 1959 3097 
z
M 1959 3584 
Q 2709 3584 3137 3096 
Q 3566 2609 3566 1747 
Q 3566 888 3137 398 
Q 2709 -91 1959 -91 
Q 1206 -91 779 398 
Q 353 888 353 1747 
Q 353 2609 779 3096 
Q 1206 3584 1959 3584 
z
" transform="scale(0.015625)"/>
      <path id="DejaVuSans-6c" d="M 603 4863 
L 1178 4863 
L 1178 0 
L 603 0 
L 603 4863 
z
" transform="scale(0.015625)"/>
      <path id="DejaVuSans-63" d="M 3122 3366 
L 3122 2828 
Q 2878 2963 2633 3030 
Q 2388 3097 2138 3097 
Q 1578 3097 1268 2742 
Q 959 2388 959 1747 
Q 959 1106 1268 751 
Q 1578 397 2138 397 
Q 2388 397 2633 464 
Q 2878 531 3122 666 
L 3122 134 
Q 2881 22 2623 -34 
Q 2366 -91 2075 -91 
Q 1284 -91 818 406 
Q 353 903 353 1747 
Q 353 2603 823 3093 
Q 1294 3584 2113 3584 
Q 2378 3584 2631 3529 
Q 2884 3475 3122 3366 
z
" transform="scale(0.015625)"/>
     </defs>
     <use xlink:href="#DejaVuSans-6d" transform="translate(0 0.234375)"/>
     <use xlink:href="#DejaVuSans-61" transform="translate(97.412109 0.234375)"/>
     <use xlink:href="#DejaVuSans-72" transform="translate(158.691406 0.234375)"/>
     <use xlink:href="#DejaVuSans-6b" transform="translate(199.804688 0.234375)"/>
     <use xlink:href="#DejaVuSans-65" transform="translate(257.714844 0.234375)"/>
     <use xlink:href="#DejaVuSans-64" transform="translate(319.238281 0.234375)"/>
     <use xlink:href="#DejaVuSans-20" transform="translate(382.714844 0.234375)"/>
     <use xlink:href="#DejaVuSans-70" transform="translate(414.501953 0.234375)"/>
     <use xlink:href="#DejaVuSans-6f" transform="translate(477.978516 0.234375)"/>
     <use xlink:href="#DejaVuSans-6c" transform="translate(539.160156 0.234375)"/>
     <use xlink:href="#DejaVuSans-65" transform="translate(566.943359 0.234375)"/>
     <use xlink:href="#DejaVuSans-3a" transform="translate(628.466797 0.234375)"/>
     <use xlink:href="#DejaVuSans-20" transform="translate(662.158203 0.234375)"/>
     <use xlink:href="#DejaVuSans-Oblique-3c9" transform="translate(693.945312 0.234375)"/>
     <use xlink:href="#DejaVuSans-Oblique-6e" transform="translate(777.685547 -16.171875) scale(0.7)"/>
     <use xlink:href="#DejaVuSans-20" transform="translate(824.785156 0.234375)"/>
     <use xlink:href="#DejaVuSans-3d" transform="translate(856.572266 0.234375)"/>
     <use xlink:href="#DejaVuSans-20" transform="translate(940.361328 0.234375)"/>
     <use xlink:href="#DejaVuSans-35" transform="translate(972.148438 0.234375)"/>
     <use xlink:href="#DejaVuSans-2c" transform="translate(1035.771484 0.234375)"/>
     <use xlink:href="#DejaVuSans-20" transform="translate(1067.558594 0.234375)"/>
     <use xlink:href="#DejaVuSans-Oblique-3b6" transform="translate(1099.345703 0.234375)"/>
     <use xlink:href="#DejaVuSans-20" transform="translate(1153.740234 0.234375)"/>
     <use xlink:href="#DejaVuSans-3d" transform="translate(1185.527344 0.234375)"/>
     <use xlink:href="#DejaVuSans-20" transform="translate(1269.316406 0.234375)"/>
     <use xlink:href="#DejaVuSans-63" transform="translate(1301.103516 0.234375)"/>
     <use xlink:href="#DejaVuSans-6f" transform="translate(1356.083984 0.234375)"/>
     <use xlink:href="#DejaVuSans-73" transform="translate(1417.265625 0.234375)"/>
     <use xlink:href="#DejaVuSans-20" transform="translate(1469.365234 0.234375)"/>
     <use xlink:href="#DejaVuSans-Oblique-3b8" transform="translate(1501.152344 0.234375)"/>
     <use xlink:href="#DejaVuSans-20" transform="translate(1562.333984 0.234375)"/>
     <use xlink:href="#DejaVuSans-3d" transform="translate(1594.121094 0.234375)"/>
     <use xlink:href="#DejaVuSans-20" transform="translate(1677.910156 0.234375)"/>
     <use xlink:href="#DejaVuSans-30" transform="translate(1709.697266 0.234375)"/>
     <use xlink:href="#DejaVuSans-2e" transform="translate(1773.320312 0.234375)"/>
     <use xlink:href="#DejaVuSans-36" transform="translate(1805.107422 0.234375)"/>
    </g>
    <!-- the conjugate at $-3 - j4$ mirrors all of this -->
    <g style="fill: #c3c2b7" transform="translate(38.056495 55.9261) scale(0.09 -0.09)">
     <defs>
      <path id="DejaVuSans-74" d="M 1172 4494 
L 1172 3500 
L 2356 3500 
L 2356 3053 
L 1172 3053 
L 1172 1153 
Q 1172 725 1289 603 
Q 1406 481 1766 481 
L 2356 481 
L 2356 0 
L 1766 0 
Q 1100 0 847 248 
Q 594 497 594 1153 
L 594 3053 
L 172 3053 
L 172 3500 
L 594 3500 
L 594 4494 
L 1172 4494 
z
" transform="scale(0.015625)"/>
      <path id="DejaVuSans-6e" d="M 3513 2113 
L 3513 0 
L 2938 0 
L 2938 2094 
Q 2938 2591 2744 2837 
Q 2550 3084 2163 3084 
Q 1697 3084 1428 2787 
Q 1159 2491 1159 1978 
L 1159 0 
L 581 0 
L 581 3500 
L 1159 3500 
L 1159 2956 
Q 1366 3272 1645 3428 
Q 1925 3584 2291 3584 
Q 2894 3584 3203 3211 
Q 3513 2838 3513 2113 
z
" transform="scale(0.015625)"/>
      <path id="DejaVuSans-6a" d="M 603 3500 
L 1178 3500 
L 1178 -63 
Q 1178 -731 923 -1031 
Q 669 -1331 103 -1331 
L -116 -1331 
L -116 -844 
L 38 -844 
Q 366 -844 484 -692 
Q 603 -541 603 -63 
L 603 3500 
z
M 603 4863 
L 1178 4863 
L 1178 4134 
L 603 4134 
L 603 4863 
z
" transform="scale(0.015625)"/>
      <path id="DejaVuSans-75" d="M 544 1381 
L 544 3500 
L 1119 3500 
L 1119 1403 
Q 1119 906 1312 657 
Q 1506 409 1894 409 
Q 2359 409 2629 706 
Q 2900 1003 2900 1516 
L 2900 3500 
L 3475 3500 
L 3475 0 
L 2900 0 
L 2900 538 
Q 2691 219 2414 64 
Q 2138 -91 1772 -91 
Q 1169 -91 856 284 
Q 544 659 544 1381 
z
M 1991 3584 
L 1991 3584 
z
" transform="scale(0.015625)"/>
      <path id="DejaVuSans-67" d="M 2906 1791 
Q 2906 2416 2648 2759 
Q 2391 3103 1925 3103 
Q 1463 3103 1205 2759 
Q 947 2416 947 1791 
Q 947 1169 1205 825 
Q 1463 481 1925 481 
Q 2391 481 2648 825 
Q 2906 1169 2906 1791 
z
M 3481 434 
Q 3481 -459 3084 -895 
Q 2688 -1331 1869 -1331 
Q 1566 -1331 1297 -1286 
Q 1028 -1241 775 -1147 
L 775 -588 
Q 1028 -725 1275 -790 
Q 1522 -856 1778 -856 
Q 2344 -856 2625 -561 
Q 2906 -266 2906 331 
L 2906 616 
Q 2728 306 2450 153 
Q 2172 0 1784 0 
Q 1141 0 747 490 
Q 353 981 353 1791 
Q 353 2603 747 3093 
Q 1141 3584 1784 3584 
Q 2172 3584 2450 3431 
Q 2728 3278 2906 2969 
L 2906 3500 
L 3481 3500 
L 3481 434 
z
" transform="scale(0.015625)"/>
      <path id="DejaVuSans-69" d="M 603 3500 
L 1178 3500 
L 1178 0 
L 603 0 
L 603 3500 
z
M 603 4863 
L 1178 4863 
L 1178 4134 
L 603 4134 
L 603 4863 
z
" transform="scale(0.015625)"/>
      <path id="DejaVuSans-66" d="M 2375 4863 
L 2375 4384 
L 1825 4384 
Q 1516 4384 1395 4259 
Q 1275 4134 1275 3809 
L 1275 3500 
L 2222 3500 
L 2222 3053 
L 1275 3053 
L 1275 0 
L 697 0 
L 697 3053 
L 147 3053 
L 147 3500 
L 697 3500 
L 697 3744 
Q 697 4328 969 4595 
Q 1241 4863 1831 4863 
L 2375 4863 
z
" transform="scale(0.015625)"/>
     </defs>
     <use xlink:href="#DejaVuSans-74" transform="translate(0 0.015625)"/>
     <use xlink:href="#DejaVuSans-68" transform="translate(39.208984 0.015625)"/>
     <use xlink:href="#DejaVuSans-65" transform="translate(102.587891 0.015625)"/>
     <use xlink:href="#DejaVuSans-20" transform="translate(164.111328 0.015625)"/>
     <use xlink:href="#DejaVuSans-63" transform="translate(195.898438 0.015625)"/>
     <use xlink:href="#DejaVuSans-6f" transform="translate(250.878906 0.015625)"/>
     <use xlink:href="#DejaVuSans-6e" transform="translate(312.060547 0.015625)"/>
     <use xlink:href="#DejaVuSans-6a" transform="translate(375.439453 0.015625)"/>
     <use xlink:href="#DejaVuSans-75" transform="translate(403.222656 0.015625)"/>
     <use xlink:href="#DejaVuSans-67" transform="translate(466.601562 0.015625)"/>
     <use xlink:href="#DejaVuSans-61" transform="translate(530.078125 0.015625)"/>
     <use xlink:href="#DejaVuSans-74" transform="translate(591.357422 0.015625)"/>
     <use xlink:href="#DejaVuSans-65" transform="translate(630.566406 0.015625)"/>
     <use xlink:href="#DejaVuSans-20" transform="translate(692.089844 0.015625)"/>
     <use xlink:href="#DejaVuSans-61" transform="translate(723.876953 0.015625)"/>
     <use xlink:href="#DejaVuSans-74" transform="translate(785.15625 0.015625)"/>
     <use xlink:href="#DejaVuSans-20" transform="translate(824.365234 0.015625)"/>
     <use xlink:href="#DejaVuSans-2212" transform="translate(856.152344 0.015625)"/>
     <use xlink:href="#DejaVuSans-33" transform="translate(939.941406 0.015625)"/>
     <use xlink:href="#DejaVuSans-2212" transform="translate(1023.046875 0.015625)"/>
     <use xlink:href="#DejaVuSans-Oblique-6a" transform="translate(1126.318359 0.015625)"/>
     <use xlink:href="#DejaVuSans-34" transform="translate(1154.101562 0.015625)"/>
     <use xlink:href="#DejaVuSans-20" transform="translate(1217.724609 0.015625)"/>
     <use xlink:href="#DejaVuSans-6d" transform="translate(1249.511719 0.015625)"/>
     <use xlink:href="#DejaVuSans-69" transform="translate(1346.923828 0.015625)"/>
     <use xlink:href="#DejaVuSans-72" transform="translate(1374.707031 0.015625)"/>
     <use xlink:href="#DejaVuSans-72" transform="translate(1415.820312 0.015625)"/>
     <use xlink:href="#DejaVuSans-6f" transform="translate(1456.933594 0.015625)"/>
     <use xlink:href="#DejaVuSans-72" transform="translate(1518.115234 0.015625)"/>
     <use xlink:href="#DejaVuSans-73" transform="translate(1559.228516 0.015625)"/>
     <use xlink:href="#DejaVuSans-20" transform="translate(1611.328125 0.015625)"/>
     <use xlink:href="#DejaVuSans-61" transform="translate(1643.115234 0.015625)"/>
     <use xlink:href="#DejaVuSans-6c" transform="translate(1704.394531 0.015625)"/>
     <use xlink:href="#DejaVuSans-6c" transform="translate(1732.177734 0.015625)"/>
     <use xlink:href="#DejaVuSans-20" transform="translate(1759.960938 0.015625)"/>
     <use xlink:href="#DejaVuSans-6f" transform="translate(1791.748047 0.015625)"/>
     <use xlink:href="#DejaVuSans-66" transform="translate(1852.929688 0.015625)"/>
     <use xlink:href="#DejaVuSans-20" transform="translate(1888.134766 0.015625)"/>
     <use xlink:href="#DejaVuSans-74" transform="translate(1919.921875 0.015625)"/>
     <use xlink:href="#DejaVuSans-68" transform="translate(1959.130859 0.015625)"/>
     <use xlink:href="#DejaVuSans-69" transform="translate(2022.509766 0.015625)"/>
     <use xlink:href="#DejaVuSans-73" transform="translate(2050.292969 0.015625)"/>
    </g>
   </g>
   <g id="text_23">
    <!-- Loci of constant $\zeta$, $\omega_n$ and $\sigma$ -->
    <g style="fill: #ffffff" transform="translate(100.979439 16.32) scale(0.12 -0.12)">
     <defs>
      <path id="DejaVuSans-Bold-4c" d="M 588 4666 
L 1791 4666 
L 1791 909 
L 3903 909 
L 3903 0 
L 588 0 
L 588 4666 
z
" transform="scale(0.015625)"/>
      <path id="DejaVuSans-Bold-6f" d="M 2203 2784 
Q 1831 2784 1636 2517 
Q 1441 2250 1441 1747 
Q 1441 1244 1636 976 
Q 1831 709 2203 709 
Q 2569 709 2762 976 
Q 2956 1244 2956 1747 
Q 2956 2250 2762 2517 
Q 2569 2784 2203 2784 
z
M 2203 3584 
Q 3106 3584 3614 3096 
Q 4122 2609 4122 1747 
Q 4122 884 3614 396 
Q 3106 -91 2203 -91 
Q 1297 -91 786 396 
Q 275 884 275 1747 
Q 275 2609 786 3096 
Q 1297 3584 2203 3584 
z
" transform="scale(0.015625)"/>
      <path id="DejaVuSans-Bold-63" d="M 3366 3391 
L 3366 2478 
Q 3138 2634 2908 2709 
Q 2678 2784 2431 2784 
Q 1963 2784 1702 2511 
Q 1441 2238 1441 1747 
Q 1441 1256 1702 982 
Q 1963 709 2431 709 
Q 2694 709 2930 787 
Q 3166 866 3366 1019 
L 3366 103 
Q 3103 6 2833 -42 
Q 2563 -91 2291 -91 
Q 1344 -91 809 395 
Q 275 881 275 1747 
Q 275 2613 809 3098 
Q 1344 3584 2291 3584 
Q 2566 3584 2833 3536 
Q 3100 3488 3366 3391 
z
" transform="scale(0.015625)"/>
      <path id="DejaVuSans-Bold-69" d="M 538 3500 
L 1656 3500 
L 1656 0 
L 538 0 
L 538 3500 
z
M 538 4863 
L 1656 4863 
L 1656 3950 
L 538 3950 
L 538 4863 
z
" transform="scale(0.015625)"/>
      <path id="DejaVuSans-Bold-20" transform="scale(0.015625)"/>
      <path id="DejaVuSans-Bold-66" d="M 2841 4863 
L 2841 4128 
L 2222 4128 
Q 1984 4128 1890 4042 
Q 1797 3956 1797 3744 
L 1797 3500 
L 2753 3500 
L 2753 2700 
L 1797 2700 
L 1797 0 
L 678 0 
L 678 2700 
L 122 2700 
L 122 3500 
L 678 3500 
L 678 3744 
Q 678 4316 997 4589 
Q 1316 4863 1984 4863 
L 2841 4863 
z
" transform="scale(0.015625)"/>
      <path id="DejaVuSans-Bold-6e" d="M 4056 2131 
L 4056 0 
L 2931 0 
L 2931 347 
L 2931 1631 
Q 2931 2084 2911 2256 
Q 2891 2428 2841 2509 
Q 2775 2619 2662 2680 
Q 2550 2741 2406 2741 
Q 2056 2741 1856 2470 
Q 1656 2200 1656 1722 
L 1656 0 
L 538 0 
L 538 3500 
L 1656 3500 
L 1656 2988 
Q 1909 3294 2193 3439 
Q 2478 3584 2822 3584 
Q 3428 3584 3742 3212 
Q 4056 2841 4056 2131 
z
" transform="scale(0.015625)"/>
      <path id="DejaVuSans-Bold-73" d="M 3272 3391 
L 3272 2541 
Q 2913 2691 2578 2766 
Q 2244 2841 1947 2841 
Q 1628 2841 1473 2761 
Q 1319 2681 1319 2516 
Q 1319 2381 1436 2309 
Q 1553 2238 1856 2203 
L 2053 2175 
Q 2913 2066 3209 1816 
Q 3506 1566 3506 1031 
Q 3506 472 3093 190 
Q 2681 -91 1863 -91 
Q 1516 -91 1145 -36 
Q 775 19 384 128 
L 384 978 
Q 719 816 1070 734 
Q 1422 653 1784 653 
Q 2113 653 2278 743 
Q 2444 834 2444 1013 
Q 2444 1163 2330 1236 
Q 2216 1309 1875 1350 
L 1678 1375 
Q 931 1469 631 1722 
Q 331 1975 331 2491 
Q 331 3047 712 3315 
Q 1094 3584 1881 3584 
Q 2191 3584 2531 3537 
Q 2872 3491 3272 3391 
z
" transform="scale(0.015625)"/>
      <path id="DejaVuSans-Bold-74" d="M 1759 4494 
L 1759 3500 
L 2913 3500 
L 2913 2700 
L 1759 2700 
L 1759 1216 
Q 1759 972 1856 886 
Q 1953 800 2241 800 
L 2816 800 
L 2816 0 
L 1856 0 
Q 1194 0 917 276 
Q 641 553 641 1216 
L 641 2700 
L 84 2700 
L 84 3500 
L 641 3500 
L 641 4494 
L 1759 4494 
z
" transform="scale(0.015625)"/>
      <path id="DejaVuSans-Bold-61" d="M 2106 1575 
Q 1756 1575 1579 1456 
Q 1403 1338 1403 1106 
Q 1403 894 1545 773 
Q 1688 653 1941 653 
Q 2256 653 2472 879 
Q 2688 1106 2688 1447 
L 2688 1575 
L 2106 1575 
z
M 3816 1997 
L 3816 0 
L 2688 0 
L 2688 519 
Q 2463 200 2181 54 
Q 1900 -91 1497 -91 
Q 953 -91 614 226 
Q 275 544 275 1050 
Q 275 1666 698 1953 
Q 1122 2241 2028 2241 
L 2688 2241 
L 2688 2328 
Q 2688 2594 2478 2717 
Q 2269 2841 1825 2841 
Q 1466 2841 1156 2769 
Q 847 2697 581 2553 
L 581 3406 
Q 941 3494 1303 3539 
Q 1666 3584 2028 3584 
Q 2975 3584 3395 3211 
Q 3816 2838 3816 1997 
z
" transform="scale(0.015625)"/>
      <path id="DejaVuSans-Bold-2c" d="M 653 1209 
L 1778 1209 
L 1778 256 
L 1006 -909 
L 341 -909 
L 653 256 
L 653 1209 
z
" transform="scale(0.015625)"/>
      <path id="DejaVuSans-Bold-64" d="M 2919 2988 
L 2919 4863 
L 4044 4863 
L 4044 0 
L 2919 0 
L 2919 506 
Q 2688 197 2409 53 
Q 2131 -91 1766 -91 
Q 1119 -91 703 423 
Q 288 938 288 1747 
Q 288 2556 703 3070 
Q 1119 3584 1766 3584 
Q 2128 3584 2408 3439 
Q 2688 3294 2919 2988 
z
M 2181 722 
Q 2541 722 2730 984 
Q 2919 1247 2919 1747 
Q 2919 2247 2730 2509 
Q 2541 2772 2181 2772 
Q 1825 2772 1636 2509 
Q 1447 2247 1447 1747 
Q 1447 1247 1636 984 
Q 1825 722 2181 722 
z
" transform="scale(0.015625)"/>
     </defs>
     <use xlink:href="#DejaVuSans-Bold-4c" transform="translate(0 0.015625)"/>
     <use xlink:href="#DejaVuSans-Bold-6f" transform="translate(63.720703 0.015625)"/>
     <use xlink:href="#DejaVuSans-Bold-63" transform="translate(132.421875 0.015625)"/>
     <use xlink:href="#DejaVuSans-Bold-69" transform="translate(191.699219 0.015625)"/>
     <use xlink:href="#DejaVuSans-Bold-20" transform="translate(225.976562 0.015625)"/>
     <use xlink:href="#DejaVuSans-Bold-6f" transform="translate(260.791016 0.015625)"/>
     <use xlink:href="#DejaVuSans-Bold-66" transform="translate(329.492188 0.015625)"/>
     <use xlink:href="#DejaVuSans-Bold-20" transform="translate(372.998047 0.015625)"/>
     <use xlink:href="#DejaVuSans-Bold-63" transform="translate(407.8125 0.015625)"/>
     <use xlink:href="#DejaVuSans-Bold-6f" transform="translate(467.089844 0.015625)"/>
     <use xlink:href="#DejaVuSans-Bold-6e" transform="translate(535.791016 0.015625)"/>
     <use xlink:href="#DejaVuSans-Bold-73" transform="translate(606.982422 0.015625)"/>
     <use xlink:href="#DejaVuSans-Bold-74" transform="translate(666.503906 0.015625)"/>
     <use xlink:href="#DejaVuSans-Bold-61" transform="translate(714.306641 0.015625)"/>
     <use xlink:href="#DejaVuSans-Bold-6e" transform="translate(781.787109 0.015625)"/>
     <use xlink:href="#DejaVuSans-Bold-74" transform="translate(852.978516 0.015625)"/>
     <use xlink:href="#DejaVuSans-Bold-20" transform="translate(900.78125 0.015625)"/>
     <use xlink:href="#DejaVuSans-Oblique-3b6" transform="translate(935.595703 0.015625)"/>
     <use xlink:href="#DejaVuSans-Bold-2c" transform="translate(989.990234 0.015625)"/>
     <use xlink:href="#DejaVuSans-Bold-20" transform="translate(1027.978516 0.015625)"/>
     <use xlink:href="#DejaVuSans-Oblique-3c9" transform="translate(1062.792969 0.015625)"/>
     <use xlink:href="#DejaVuSans-Oblique-6e" transform="translate(1146.533203 -16.390625) scale(0.7)"/>
     <use xlink:href="#DejaVuSans-Bold-20" transform="translate(1193.632812 0.015625)"/>
     <use xlink:href="#DejaVuSans-Bold-61" transform="translate(1228.447266 0.015625)"/>
     <use xlink:href="#DejaVuSans-Bold-6e" transform="translate(1295.927734 0.015625)"/>
     <use xlink:href="#DejaVuSans-Bold-64" transform="translate(1367.119141 0.015625)"/>
     <use xlink:href="#DejaVuSans-Bold-20" transform="translate(1438.701172 0.015625)"/>
     <use xlink:href="#DejaVuSans-Oblique-3c3" transform="translate(1473.515625 0.015625)"/>
    </g>
   </g>
  </g>
 </g>
 <defs>
  <clipPath id="p8d49fb827c">
   <rect x="34.890313" y="22.32" width="316.618252" height="301.96"/>
  </clipPath>
 </defs>
</svg>
