<?xml version="1.0" encoding="utf-8" standalone="no"?>
<!DOCTYPE svg PUBLIC "-//W3C//DTD SVG 1.1//EN"
  "http://www.w3.org/Graphics/SVG/1.1/DTD/svg11.dtd">
<svg xmlns:xlink="http://www.w3.org/1999/xlink" width="542.17774pt" height="277.384156pt" viewBox="0 0 542.17774 277.384156" xmlns="http://www.w3.org/2000/svg" version="1.1">
 <metadata>
  <rdf:RDF xmlns:dc="http://purl.org/dc/elements/1.1/" xmlns:cc="http://creativecommons.org/ns#" xmlns:rdf="http://www.w3.org/1999/02/22-rdf-syntax-ns#">
   <cc:Work>
    <dc:type rdf:resource="http://purl.org/dc/dcmitype/StillImage"/>
    <dc:date>2026-08-17T01:01:07.692951</dc:date>
    <dc:format>image/svg+xml</dc:format>
    <dc:creator>
     <cc:Agent>
      <dc:title>Matplotlib v3.10.8, https://matplotlib.org/</dc:title>
     </cc:Agent>
    </dc:creator>
   </cc:Work>
  </rdf:RDF>
 </metadata>
 <defs>
  <style type="text/css">*{stroke-linejoin: round; stroke-linecap: butt}</style>
 </defs>
 <g id="figure_1">
  <g id="patch_1">
   <path d="M 0 277.384156 
L 542.17774 277.384156 
L 542.17774 0 
L 0 0 
L 0 277.384156 
z
" style="fill: none"/>
  </g>
  <g id="axes_1">
   <g id="patch_2">
    <path d="M 43.953906 239.344 
L 258.686285 239.344 
L 258.686285 52.944 
L 43.953906 52.944 
L 43.953906 239.344 
z
" style="fill: none"/>
   </g>
   <g id="matplotlib.axis_1">
    <g id="xtick_1">
     <g id="line2d_1">
      <path d="M 62.587708 239.344 
L 62.587708 52.944 
" clip-path="url(#p04a1474a5d)" style="fill: none; stroke: #d9d8d4; stroke-opacity: 0.55; stroke-width: 0.7; stroke-linecap: square"/>
     </g>
     <g id="line2d_2">
      <defs>
       <path id="mda691e0d38" d="M 0 0 
L 0 3.5 
" style="stroke: #52514e; stroke-width: 0.8"/>
      </defs>
      <g>
       <use xlink:href="#mda691e0d38" x="62.587708" y="239.344" style="fill: #52514e; stroke: #52514e; stroke-width: 0.8"/>
      </g>
     </g>
     <g id="text_1">
      <!-- −4 -->
      <g style="fill: #52514e" transform="translate(55.585169 253.562516) scale(0.095 -0.095)">
       <defs>
        <path id="DejaVuSans-2212" d="M 678 2272 
L 4684 2272 
L 4684 1741 
L 678 1741 
L 678 2272 
z
" transform="scale(0.015625)"/>
        <path id="DejaVuSans-34" d="M 2419 4116 
L 825 1625 
L 2419 1625 
L 2419 4116 
z
M 2253 4666 
L 3047 4666 
L 3047 1625 
L 3713 1625 
L 3713 1100 
L 3047 1100 
L 3047 0 
L 2419 0 
L 2419 1100 
L 313 1100 
L 313 1709 
L 2253 4666 
z
" transform="scale(0.015625)"/>
       </defs>
       <use xlink:href="#DejaVuSans-2212"/>
       <use xlink:href="#DejaVuSans-34" transform="translate(83.789062 0)"/>
      </g>
     </g>
    </g>
    <g id="xtick_2">
     <g id="line2d_3">
      <path d="M 106.953902 239.344 
L 106.953902 52.944 
" clip-path="url(#p04a1474a5d)" style="fill: none; stroke: #d9d8d4; stroke-opacity: 0.55; stroke-width: 0.7; stroke-linecap: square"/>
     </g>
     <g id="line2d_4">
      <g>
       <use xlink:href="#mda691e0d38" x="106.953902" y="239.344" style="fill: #52514e; stroke: #52514e; stroke-width: 0.8"/>
      </g>
     </g>
     <g id="text_2">
      <!-- −2 -->
      <g style="fill: #52514e" transform="translate(99.951363 253.562516) scale(0.095 -0.095)">
       <defs>
        <path id="DejaVuSans-32" d="M 1228 531 
L 3431 531 
L 3431 0 
L 469 0 
L 469 531 
Q 828 903 1448 1529 
Q 2069 2156 2228 2338 
Q 2531 2678 2651 2914 
Q 2772 3150 2772 3378 
Q 2772 3750 2511 3984 
Q 2250 4219 1831 4219 
Q 1534 4219 1204 4116 
Q 875 4013 500 3803 
L 500 4441 
Q 881 4594 1212 4672 
Q 1544 4750 1819 4750 
Q 2544 4750 2975 4387 
Q 3406 4025 3406 3419 
Q 3406 3131 3298 2873 
Q 3191 2616 2906 2266 
Q 2828 2175 2409 1742 
Q 1991 1309 1228 531 
z
" transform="scale(0.015625)"/>
       </defs>
       <use xlink:href="#DejaVuSans-2212"/>
       <use xlink:href="#DejaVuSans-32" transform="translate(83.789062 0)"/>
      </g>
     </g>
    </g>
    <g id="xtick_3">
     <g id="line2d_5">
      <path d="M 151.320096 239.344 
L 151.320096 52.944 
" clip-path="url(#p04a1474a5d)" style="fill: none; stroke: #d9d8d4; stroke-opacity: 0.55; stroke-width: 0.7; stroke-linecap: square"/>
     </g>
     <g id="line2d_6">
      <g>
       <use xlink:href="#mda691e0d38" x="151.320096" y="239.344" style="fill: #52514e; stroke: #52514e; stroke-width: 0.8"/>
      </g>
     </g>
     <g id="text_3">
      <!-- 0 -->
      <g style="fill: #52514e" transform="translate(148.297908 253.562516) scale(0.095 -0.095)">
       <defs>
        <path id="DejaVuSans-30" d="M 2034 4250 
Q 1547 4250 1301 3770 
Q 1056 3291 1056 2328 
Q 1056 1369 1301 889 
Q 1547 409 2034 409 
Q 2525 409 2770 889 
Q 3016 1369 3016 2328 
Q 3016 3291 2770 3770 
Q 2525 4250 2034 4250 
z
M 2034 4750 
Q 2819 4750 3233 4129 
Q 3647 3509 3647 2328 
Q 3647 1150 3233 529 
Q 2819 -91 2034 -91 
Q 1250 -91 836 529 
Q 422 1150 422 2328 
Q 422 3509 836 4129 
Q 1250 4750 2034 4750 
z
" transform="scale(0.015625)"/>
       </defs>
       <use xlink:href="#DejaVuSans-30"/>
      </g>
     </g>
    </g>
    <g id="xtick_4">
     <g id="line2d_7">
      <path d="M 195.68629 239.344 
L 195.68629 52.944 
" clip-path="url(#p04a1474a5d)" style="fill: none; stroke: #d9d8d4; stroke-opacity: 0.55; stroke-width: 0.7; stroke-linecap: square"/>
     </g>
     <g id="line2d_8">
      <g>
       <use xlink:href="#mda691e0d38" x="195.68629" y="239.344" style="fill: #52514e; stroke: #52514e; stroke-width: 0.8"/>
      </g>
     </g>
     <g id="text_4">
      <!-- 2 -->
      <g style="fill: #52514e" transform="translate(192.664102 253.562516) scale(0.095 -0.095)">
       <use xlink:href="#DejaVuSans-32"/>
      </g>
     </g>
    </g>
    <g id="xtick_5">
     <g id="line2d_9">
      <path d="M 240.052484 239.344 
L 240.052484 52.944 
" clip-path="url(#p04a1474a5d)" style="fill: none; stroke: #d9d8d4; stroke-opacity: 0.55; stroke-width: 0.7; stroke-linecap: square"/>
     </g>
     <g id="line2d_10">
      <g>
       <use xlink:href="#mda691e0d38" x="240.052484" y="239.344" style="fill: #52514e; stroke: #52514e; stroke-width: 0.8"/>
      </g>
     </g>
     <g id="text_5">
      <!-- 4 -->
      <g style="fill: #52514e" transform="translate(237.030296 253.562516) scale(0.095 -0.095)">
       <use xlink:href="#DejaVuSans-34"/>
      </g>
     </g>
    </g>
    <g id="text_6">
     <!-- standardised value -->
     <g style="fill: #52514e" transform="translate(98.883611 267.8965) scale(0.11 -0.11)">
      <defs>
       <path id="DejaVuSans-73" d="M 2834 3397 
L 2834 2853 
Q 2591 2978 2328 3040 
Q 2066 3103 1784 3103 
Q 1356 3103 1142 2972 
Q 928 2841 928 2578 
Q 928 2378 1081 2264 
Q 1234 2150 1697 2047 
L 1894 2003 
Q 2506 1872 2764 1633 
Q 3022 1394 3022 966 
Q 3022 478 2636 193 
Q 2250 -91 1575 -91 
Q 1294 -91 989 -36 
Q 684 19 347 128 
L 347 722 
Q 666 556 975 473 
Q 1284 391 1588 391 
Q 1994 391 2212 530 
Q 2431 669 2431 922 
Q 2431 1156 2273 1281 
Q 2116 1406 1581 1522 
L 1381 1569 
Q 847 1681 609 1914 
Q 372 2147 372 2553 
Q 372 3047 722 3315 
Q 1072 3584 1716 3584 
Q 2034 3584 2315 3537 
Q 2597 3491 2834 3397 
z
" transform="scale(0.015625)"/>
       <path id="DejaVuSans-74" d="M 1172 4494 
L 1172 3500 
L 2356 3500 
L 2356 3053 
L 1172 3053 
L 1172 1153 
Q 1172 725 1289 603 
Q 1406 481 1766 481 
L 2356 481 
L 2356 0 
L 1766 0 
Q 1100 0 847 248 
Q 594 497 594 1153 
L 594 3053 
L 172 3053 
L 172 3500 
L 594 3500 
L 594 4494 
L 1172 4494 
z
" transform="scale(0.015625)"/>
       <path id="DejaVuSans-61" d="M 2194 1759 
Q 1497 1759 1228 1600 
Q 959 1441 959 1056 
Q 959 750 1161 570 
Q 1363 391 1709 391 
Q 2188 391 2477 730 
Q 2766 1069 2766 1631 
L 2766 1759 
L 2194 1759 
z
M 3341 1997 
L 3341 0 
L 2766 0 
L 2766 531 
Q 2569 213 2275 61 
Q 1981 -91 1556 -91 
Q 1019 -91 701 211 
Q 384 513 384 1019 
Q 384 1609 779 1909 
Q 1175 2209 1959 2209 
L 2766 2209 
L 2766 2266 
Q 2766 2663 2505 2880 
Q 2244 3097 1772 3097 
Q 1472 3097 1187 3025 
Q 903 2953 641 2809 
L 641 3341 
Q 956 3463 1253 3523 
Q 1550 3584 1831 3584 
Q 2591 3584 2966 3190 
Q 3341 2797 3341 1997 
z
" transform="scale(0.015625)"/>
       <path id="DejaVuSans-6e" d="M 3513 2113 
L 3513 0 
L 2938 0 
L 2938 2094 
Q 2938 2591 2744 2837 
Q 2550 3084 2163 3084 
Q 1697 3084 1428 2787 
Q 1159 2491 1159 1978 
L 1159 0 
L 581 0 
L 581 3500 
L 1159 3500 
L 1159 2956 
Q 1366 3272 1645 3428 
Q 1925 3584 2291 3584 
Q 2894 3584 3203 3211 
Q 3513 2838 3513 2113 
z
" transform="scale(0.015625)"/>
       <path id="DejaVuSans-64" d="M 2906 2969 
L 2906 4863 
L 3481 4863 
L 3481 0 
L 2906 0 
L 2906 525 
Q 2725 213 2448 61 
Q 2172 -91 1784 -91 
Q 1150 -91 751 415 
Q 353 922 353 1747 
Q 353 2572 751 3078 
Q 1150 3584 1784 3584 
Q 2172 3584 2448 3432 
Q 2725 3281 2906 2969 
z
M 947 1747 
Q 947 1113 1208 752 
Q 1469 391 1925 391 
Q 2381 391 2643 752 
Q 2906 1113 2906 1747 
Q 2906 2381 2643 2742 
Q 2381 3103 1925 3103 
Q 1469 3103 1208 2742 
Q 947 2381 947 1747 
z
" transform="scale(0.015625)"/>
       <path id="DejaVuSans-72" d="M 2631 2963 
Q 2534 3019 2420 3045 
Q 2306 3072 2169 3072 
Q 1681 3072 1420 2755 
Q 1159 2438 1159 1844 
L 1159 0 
L 581 0 
L 581 3500 
L 1159 3500 
L 1159 2956 
Q 1341 3275 1631 3429 
Q 1922 3584 2338 3584 
Q 2397 3584 2469 3576 
Q 2541 3569 2628 3553 
L 2631 2963 
z
" transform="scale(0.015625)"/>
       <path id="DejaVuSans-69" d="M 603 3500 
L 1178 3500 
L 1178 0 
L 603 0 
L 603 3500 
z
M 603 4863 
L 1178 4863 
L 1178 4134 
L 603 4134 
L 603 4863 
z
" transform="scale(0.015625)"/>
       <path id="DejaVuSans-65" d="M 3597 1894 
L 3597 1613 
L 953 1613 
Q 991 1019 1311 708 
Q 1631 397 2203 397 
Q 2534 397 2845 478 
Q 3156 559 3463 722 
L 3463 178 
Q 3153 47 2828 -22 
Q 2503 -91 2169 -91 
Q 1331 -91 842 396 
Q 353 884 353 1716 
Q 353 2575 817 3079 
Q 1281 3584 2069 3584 
Q 2775 3584 3186 3129 
Q 3597 2675 3597 1894 
z
M 3022 2063 
Q 3016 2534 2758 2815 
Q 2500 3097 2075 3097 
Q 1594 3097 1305 2825 
Q 1016 2553 972 2059 
L 3022 2063 
z
" transform="scale(0.015625)"/>
       <path id="DejaVuSans-20" transform="scale(0.015625)"/>
       <path id="DejaVuSans-76" d="M 191 3500 
L 800 3500 
L 1894 563 
L 2988 3500 
L 3597 3500 
L 2284 0 
L 1503 0 
L 191 3500 
z
" transform="scale(0.015625)"/>
       <path id="DejaVuSans-6c" d="M 603 4863 
L 1178 4863 
L 1178 0 
L 603 0 
L 603 4863 
z
" transform="scale(0.015625)"/>
       <path id="DejaVuSans-75" d="M 544 1381 
L 544 3500 
L 1119 3500 
L 1119 1403 
Q 1119 906 1312 657 
Q 1506 409 1894 409 
Q 2359 409 2629 706 
Q 2900 1003 2900 1516 
L 2900 3500 
L 3475 3500 
L 3475 0 
L 2900 0 
L 2900 538 
Q 2691 219 2414 64 
Q 2138 -91 1772 -91 
Q 1169 -91 856 284 
Q 544 659 544 1381 
z
M 1991 3584 
L 1991 3584 
z
" transform="scale(0.015625)"/>
      </defs>
      <use xlink:href="#DejaVuSans-73"/>
      <use xlink:href="#DejaVuSans-74" transform="translate(52.099609 0)"/>
      <use xlink:href="#DejaVuSans-61" transform="translate(91.308594 0)"/>
      <use xlink:href="#DejaVuSans-6e" transform="translate(152.587891 0)"/>
      <use xlink:href="#DejaVuSans-64" transform="translate(215.966797 0)"/>
      <use xlink:href="#DejaVuSans-61" transform="translate(279.443359 0)"/>
      <use xlink:href="#DejaVuSans-72" transform="translate(340.722656 0)"/>
      <use xlink:href="#DejaVuSans-64" transform="translate(380.085938 0)"/>
      <use xlink:href="#DejaVuSans-69" transform="translate(443.5625 0)"/>
      <use xlink:href="#DejaVuSans-73" transform="translate(471.345703 0)"/>
      <use xlink:href="#DejaVuSans-65" transform="translate(523.445312 0)"/>
      <use xlink:href="#DejaVuSans-64" transform="translate(584.96875 0)"/>
      <use xlink:href="#DejaVuSans-20" transform="translate(648.445312 0)"/>
      <use xlink:href="#DejaVuSans-76" transform="translate(680.232422 0)"/>
      <use xlink:href="#DejaVuSans-61" transform="translate(739.412109 0)"/>
      <use xlink:href="#DejaVuSans-6c" transform="translate(800.691406 0)"/>
      <use xlink:href="#DejaVuSans-75" transform="translate(828.474609 0)"/>
      <use xlink:href="#DejaVuSans-65" transform="translate(891.853516 0)"/>
     </g>
    </g>
   </g>
   <g id="matplotlib.axis_2">
    <g id="ytick_1">
     <g id="line2d_11">
      <path d="M 43.953906 239.344 
L 258.686285 239.344 
" clip-path="url(#p04a1474a5d)" style="fill: none; stroke: #d9d8d4; stroke-opacity: 0.55; stroke-width: 0.7; stroke-linecap: square"/>
     </g>
     <g id="line2d_12">
      <defs>
       <path id="mc2f4156390" d="M 0 0 
L -3.5 0 
" style="stroke: #52514e; stroke-width: 0.8"/>
      </defs>
      <g>
       <use xlink:href="#mc2f4156390" x="43.953906" y="239.344" style="fill: #52514e; stroke: #52514e; stroke-width: 0.8"/>
      </g>
     </g>
     <g id="text_7">
      <!-- 0.0 -->
      <g style="fill: #52514e" transform="translate(21.845938 242.953258) scale(0.095 -0.095)">
       <defs>
        <path id="DejaVuSans-2e" d="M 684 794 
L 1344 794 
L 1344 0 
L 684 0 
L 684 794 
z
" transform="scale(0.015625)"/>
       </defs>
       <use xlink:href="#DejaVuSans-30"/>
       <use xlink:href="#DejaVuSans-2e" transform="translate(63.623047 0)"/>
       <use xlink:href="#DejaVuSans-30" transform="translate(95.410156 0)"/>
      </g>
     </g>
    </g>
    <g id="ytick_2">
     <g id="line2d_13">
      <path d="M 43.953906 198.822261 
L 258.686285 198.822261 
" clip-path="url(#p04a1474a5d)" style="fill: none; stroke: #d9d8d4; stroke-opacity: 0.55; stroke-width: 0.7; stroke-linecap: square"/>
     </g>
     <g id="line2d_14">
      <g>
       <use xlink:href="#mc2f4156390" x="43.953906" y="198.822261" style="fill: #52514e; stroke: #52514e; stroke-width: 0.8"/>
      </g>
     </g>
     <g id="text_8">
      <!-- 0.1 -->
      <g style="fill: #52514e" transform="translate(21.845938 202.431519) scale(0.095 -0.095)">
       <defs>
        <path id="DejaVuSans-31" d="M 794 531 
L 1825 531 
L 1825 4091 
L 703 3866 
L 703 4441 
L 1819 4666 
L 2450 4666 
L 2450 531 
L 3481 531 
L 3481 0 
L 794 0 
L 794 531 
z
" transform="scale(0.015625)"/>
       </defs>
       <use xlink:href="#DejaVuSans-30"/>
       <use xlink:href="#DejaVuSans-2e" transform="translate(63.623047 0)"/>
       <use xlink:href="#DejaVuSans-31" transform="translate(95.410156 0)"/>
      </g>
     </g>
    </g>
    <g id="ytick_3">
     <g id="line2d_15">
      <path d="M 43.953906 158.300522 
L 258.686285 158.300522 
" clip-path="url(#p04a1474a5d)" style="fill: none; stroke: #d9d8d4; stroke-opacity: 0.55; stroke-width: 0.7; stroke-linecap: square"/>
     </g>
     <g id="line2d_16">
      <g>
       <use xlink:href="#mc2f4156390" x="43.953906" y="158.300522" style="fill: #52514e; stroke: #52514e; stroke-width: 0.8"/>
      </g>
     </g>
     <g id="text_9">
      <!-- 0.2 -->
      <g style="fill: #52514e" transform="translate(21.845938 161.90978) scale(0.095 -0.095)">
       <use xlink:href="#DejaVuSans-30"/>
       <use xlink:href="#DejaVuSans-2e" transform="translate(63.623047 0)"/>
       <use xlink:href="#DejaVuSans-32" transform="translate(95.410156 0)"/>
      </g>
     </g>
    </g>
    <g id="ytick_4">
     <g id="line2d_17">
      <path d="M 43.953906 117.778783 
L 258.686285 117.778783 
" clip-path="url(#p04a1474a5d)" style="fill: none; stroke: #d9d8d4; stroke-opacity: 0.55; stroke-width: 0.7; stroke-linecap: square"/>
     </g>
     <g id="line2d_18">
      <g>
       <use xlink:href="#mc2f4156390" x="43.953906" y="117.778783" style="fill: #52514e; stroke: #52514e; stroke-width: 0.8"/>
      </g>
     </g>
     <g id="text_10">
      <!-- 0.3 -->
      <g style="fill: #52514e" transform="translate(21.845938 121.38804) scale(0.095 -0.095)">
       <defs>
        <path id="DejaVuSans-33" d="M 2597 2516 
Q 3050 2419 3304 2112 
Q 3559 1806 3559 1356 
Q 3559 666 3084 287 
Q 2609 -91 1734 -91 
Q 1441 -91 1130 -33 
Q 819 25 488 141 
L 488 750 
Q 750 597 1062 519 
Q 1375 441 1716 441 
Q 2309 441 2620 675 
Q 2931 909 2931 1356 
Q 2931 1769 2642 2001 
Q 2353 2234 1838 2234 
L 1294 2234 
L 1294 2753 
L 1863 2753 
Q 2328 2753 2575 2939 
Q 2822 3125 2822 3475 
Q 2822 3834 2567 4026 
Q 2313 4219 1838 4219 
Q 1578 4219 1281 4162 
Q 984 4106 628 3988 
L 628 4550 
Q 988 4650 1302 4700 
Q 1616 4750 1894 4750 
Q 2613 4750 3031 4423 
Q 3450 4097 3450 3541 
Q 3450 3153 3228 2886 
Q 3006 2619 2597 2516 
z
" transform="scale(0.015625)"/>
       </defs>
       <use xlink:href="#DejaVuSans-30"/>
       <use xlink:href="#DejaVuSans-2e" transform="translate(63.623047 0)"/>
       <use xlink:href="#DejaVuSans-33" transform="translate(95.410156 0)"/>
      </g>
     </g>
    </g>
    <g id="ytick_5">
     <g id="line2d_19">
      <path d="M 43.953906 77.257043 
L 258.686285 77.257043 
" clip-path="url(#p04a1474a5d)" style="fill: none; stroke: #d9d8d4; stroke-opacity: 0.55; stroke-width: 0.7; stroke-linecap: square"/>
     </g>
     <g id="line2d_20">
      <g>
       <use xlink:href="#mc2f4156390" x="43.953906" y="77.257043" style="fill: #52514e; stroke: #52514e; stroke-width: 0.8"/>
      </g>
     </g>
     <g id="text_11">
      <!-- 0.4 -->
      <g style="fill: #52514e" transform="translate(21.845938 80.866301) scale(0.095 -0.095)">
       <use xlink:href="#DejaVuSans-30"/>
       <use xlink:href="#DejaVuSans-2e" transform="translate(63.623047 0)"/>
       <use xlink:href="#DejaVuSans-34" transform="translate(95.410156 0)"/>
      </g>
     </g>
    </g>
    <g id="text_12">
     <!-- probability density -->
     <g style="fill: #52514e" transform="translate(15.558281 197.401422) rotate(-90) scale(0.11 -0.11)">
      <defs>
       <path id="DejaVuSans-70" d="M 1159 525 
L 1159 -1331 
L 581 -1331 
L 581 3500 
L 1159 3500 
L 1159 2969 
Q 1341 3281 1617 3432 
Q 1894 3584 2278 3584 
Q 2916 3584 3314 3078 
Q 3713 2572 3713 1747 
Q 3713 922 3314 415 
Q 2916 -91 2278 -91 
Q 1894 -91 1617 61 
Q 1341 213 1159 525 
z
M 3116 1747 
Q 3116 2381 2855 2742 
Q 2594 3103 2138 3103 
Q 1681 3103 1420 2742 
Q 1159 2381 1159 1747 
Q 1159 1113 1420 752 
Q 1681 391 2138 391 
Q 2594 391 2855 752 
Q 3116 1113 3116 1747 
z
" transform="scale(0.015625)"/>
       <path id="DejaVuSans-6f" d="M 1959 3097 
Q 1497 3097 1228 2736 
Q 959 2375 959 1747 
Q 959 1119 1226 758 
Q 1494 397 1959 397 
Q 2419 397 2687 759 
Q 2956 1122 2956 1747 
Q 2956 2369 2687 2733 
Q 2419 3097 1959 3097 
z
M 1959 3584 
Q 2709 3584 3137 3096 
Q 3566 2609 3566 1747 
Q 3566 888 3137 398 
Q 2709 -91 1959 -91 
Q 1206 -91 779 398 
Q 353 888 353 1747 
Q 353 2609 779 3096 
Q 1206 3584 1959 3584 
z
" transform="scale(0.015625)"/>
       <path id="DejaVuSans-62" d="M 3116 1747 
Q 3116 2381 2855 2742 
Q 2594 3103 2138 3103 
Q 1681 3103 1420 2742 
Q 1159 2381 1159 1747 
Q 1159 1113 1420 752 
Q 1681 391 2138 391 
Q 2594 391 2855 752 
Q 3116 1113 3116 1747 
z
M 1159 2969 
Q 1341 3281 1617 3432 
Q 1894 3584 2278 3584 
Q 2916 3584 3314 3078 
Q 3713 2572 3713 1747 
Q 3713 922 3314 415 
Q 2916 -91 2278 -91 
Q 1894 -91 1617 61 
Q 1341 213 1159 525 
L 1159 0 
L 581 0 
L 581 4863 
L 1159 4863 
L 1159 2969 
z
" transform="scale(0.015625)"/>
       <path id="DejaVuSans-79" d="M 2059 -325 
Q 1816 -950 1584 -1140 
Q 1353 -1331 966 -1331 
L 506 -1331 
L 506 -850 
L 844 -850 
Q 1081 -850 1212 -737 
Q 1344 -625 1503 -206 
L 1606 56 
L 191 3500 
L 800 3500 
L 1894 763 
L 2988 3500 
L 3597 3500 
L 2059 -325 
z
" transform="scale(0.015625)"/>
      </defs>
      <use xlink:href="#DejaVuSans-70"/>
      <use xlink:href="#DejaVuSans-72" transform="translate(63.476562 0)"/>
      <use xlink:href="#DejaVuSans-6f" transform="translate(102.339844 0)"/>
      <use xlink:href="#DejaVuSans-62" transform="translate(163.521484 0)"/>
      <use xlink:href="#DejaVuSans-61" transform="translate(226.998047 0)"/>
      <use xlink:href="#DejaVuSans-62" transform="translate(288.277344 0)"/>
      <use xlink:href="#DejaVuSans-69" transform="translate(351.753906 0)"/>
      <use xlink:href="#DejaVuSans-6c" transform="translate(379.537109 0)"/>
      <use xlink:href="#DejaVuSans-69" transform="translate(407.320312 0)"/>
      <use xlink:href="#DejaVuSans-74" transform="translate(435.103516 0)"/>
      <use xlink:href="#DejaVuSans-79" transform="translate(474.3125 0)"/>
      <use xlink:href="#DejaVuSans-20" transform="translate(533.492188 0)"/>
      <use xlink:href="#DejaVuSans-64" transform="translate(565.279297 0)"/>
      <use xlink:href="#DejaVuSans-65" transform="translate(628.755859 0)"/>
      <use xlink:href="#DejaVuSans-6e" transform="translate(690.279297 0)"/>
      <use xlink:href="#DejaVuSans-73" transform="translate(753.658203 0)"/>
      <use xlink:href="#DejaVuSans-69" transform="translate(805.757812 0)"/>
      <use xlink:href="#DejaVuSans-74" transform="translate(833.541016 0)"/>
      <use xlink:href="#DejaVuSans-79" transform="translate(872.75 0)"/>
     </g>
    </g>
   </g>
   <g id="line2d_21">
    <path d="M 53.714469 239.333893 
L 68.263027 239.197961 
L 74.777307 238.923996 
L 79.12016 238.53434 
L 82.594443 238.012448 
L 85.63444 237.327177 
L 88.240152 236.507862 
L 90.628722 235.514126 
L 92.800148 234.361899 
L 94.754432 233.082768 
L 96.708716 231.536061 
L 98.663 229.682548 
L 100.400141 227.744475 
L 102.137283 225.502766 
L 103.874424 222.9288 
L 105.828708 219.601914 
L 107.782992 215.784328 
L 109.737276 211.44589 
L 111.69156 206.563946 
L 113.862987 200.48667 
L 116.034413 193.721936 
L 118.422982 185.511967 
L 121.028694 175.708818 
L 124.068692 163.330693 
L 128.194402 145.457113 
L 134.491539 118.108797 
L 137.314394 106.898364 
L 139.485821 99.128037 
L 141.440105 92.949971 
L 143.177246 88.218094 
L 144.697245 84.732127 
L 146.000101 82.2683 
L 147.085814 80.603974 
L 148.171527 79.305835 
L 149.257241 78.383115 
L 150.125811 77.919762 
L 150.994382 77.703075 
L 151.862953 77.734048 
L 152.731523 78.01254 
L 153.600094 78.537271 
L 154.468664 79.305835 
L 155.554378 80.603974 
L 156.640091 82.2683 
L 157.942947 84.732127 
L 159.245803 87.681363 
L 160.765802 91.696217 
L 162.502943 96.975489 
L 164.457227 103.687399 
L 166.628654 111.939626 
L 169.451508 123.591706 
L 174.011504 143.539632 
L 179.222928 166.055636 
L 182.262925 178.23644 
L 184.868637 187.82821 
L 187.257207 195.822759 
L 189.428633 202.382388 
L 191.60006 208.252676 
L 193.554344 212.951484 
L 195.508628 217.113374 
L 197.462912 220.763734 
L 199.417196 223.93475 
L 201.37148 226.663382 
L 203.325764 228.989511 
L 205.280048 230.954303 
L 207.234332 232.598825 
L 209.188615 233.96292 
L 211.360042 235.195512 
L 213.531469 236.176265 
L 215.920038 237.015439 
L 218.52575 237.701397 
L 221.565747 238.269652 
L 225.257173 238.718424 
L 229.817168 239.03529 
L 236.114306 239.235407 
L 247.188581 239.329779 
L 248.925723 239.333893 
L 248.925723 239.333893 
" clip-path="url(#p04a1474a5d)" style="fill: none; stroke: #8a8983; stroke-width: 2.2; stroke-linecap: square"/>
   </g>
   <g id="line2d_22">
    <path d="M 53.714469 239.134265 
L 63.051603 238.845169 
L 69.565883 238.429238 
L 74.560165 237.889935 
L 78.468732 237.258924 
L 81.943015 236.47896 
L 84.983012 235.570789 
L 87.805867 234.485303 
L 90.194436 233.341493 
L 92.583006 231.94836 
L 94.754432 230.42678 
L 96.925859 228.622415 
L 98.880143 226.721939 
L 100.834427 224.525515 
L 102.788711 221.998914 
L 104.742995 219.107198 
L 106.697279 215.81569 
L 108.651563 212.09121 
L 110.605847 207.903588 
L 112.777273 202.676845 
L 114.9487 196.822443 
L 117.120126 190.329894 
L 119.508696 182.460908 
L 122.114408 173.056962 
L 124.937262 162.026626 
L 128.628688 146.643003 
L 136.228681 114.667421 
L 138.834393 104.834934 
L 140.788677 98.237014 
L 142.525818 93.075278 
L 144.045817 89.186425 
L 145.348673 86.368569 
L 146.651529 84.061924 
L 147.737242 82.550427 
L 148.822955 81.4261 
L 149.691526 80.811954 
L 150.560097 80.455168 
L 151.428667 80.357706 
L 152.297238 80.520105 
L 153.165808 80.941471 
L 154.034379 81.619484 
L 154.90295 82.550427 
L 155.988663 84.061924 
L 157.074376 85.947805 
L 158.377232 88.682632 
L 159.897231 92.48215 
L 161.41723 96.879921 
L 163.154371 102.551565 
L 165.325798 110.447957 
L 167.93151 120.807736 
L 172.05722 138.272162 
L 177.702929 162.026626 
L 180.742927 173.871157 
L 183.348639 183.206937 
L 185.737208 191.007806 
L 188.125777 198.044277 
L 190.297204 203.771795 
L 192.46863 208.875586 
L 194.640057 213.382754 
L 196.594341 216.959375 
L 198.548625 220.11383 
L 200.502909 222.879952 
L 202.457193 225.29263 
L 204.411477 227.386659 
L 206.582904 229.380719 
L 208.75433 231.0671 
L 210.925757 232.486594 
L 213.314326 233.784017 
L 215.920038 234.933975 
L 218.742893 235.923041 
L 221.78289 236.748979 
L 225.257173 237.457071 
L 229.382883 238.055209 
L 234.160022 238.517119 
L 240.240016 238.874514 
L 248.70858 239.130016 
L 248.925723 239.134265 
L 248.925723 239.134265 
" clip-path="url(#p04a1474a5d)" style="fill: none; stroke: #2a78d6; stroke-width: 2; stroke-linecap: square"/>
   </g>
   <g id="line2d_23">
    <path d="M 53.714469 237.500313 
L 60.880177 236.825992 
L 66.743029 236.057013 
L 71.73731 235.184393 
L 76.080163 234.206483 
L 79.988731 233.099418 
L 83.463014 231.886718 
L 86.720154 230.507261 
L 89.543008 229.081211 
L 92.365863 227.398819 
L 94.971575 225.577289 
L 97.360144 223.643165 
L 99.748713 221.417122 
L 101.92014 219.10448 
L 104.091567 216.480476 
L 106.262993 213.507302 
L 108.43442 210.144936 
L 110.605847 206.352053 
L 112.777273 202.087402 
L 114.9487 197.3118 
L 117.120126 191.99085 
L 119.291553 186.098487 
L 121.680122 178.941548 
L 124.068692 171.085437 
L 126.674404 161.770605 
L 129.931544 149.222253 
L 139.920106 109.834549 
L 141.87439 103.328592 
L 143.611531 98.276322 
L 145.13153 94.534494 
L 146.434386 91.898376 
L 147.520099 90.13899 
L 148.605813 88.800105 
L 149.474383 88.042973 
L 150.342954 87.571599 
L 151.211525 87.389753 
L 152.080095 87.498897 
L 152.948666 87.898153 
L 153.817236 88.584324 
L 154.685807 89.551943 
L 155.77152 91.145418 
L 156.857234 93.147198 
L 158.16009 96.054413 
L 159.680088 100.080499 
L 161.41723 105.409922 
L 163.371514 112.162088 
L 165.977226 122.056678 
L 170.537222 140.482271 
L 174.880075 157.685519 
L 177.920072 168.826282 
L 180.525784 177.564418 
L 182.914353 184.849994 
L 185.302923 191.427662 
L 187.474349 196.804754 
L 189.645776 201.63345 
L 191.817202 205.947488 
L 193.988629 209.785708 
L 196.160056 213.189254 
L 198.331482 216.199517 
L 200.502909 218.856695 
L 202.891478 221.417122 
L 205.280048 223.643165 
L 207.668617 225.577289 
L 210.274329 227.398819 
L 213.097183 229.081211 
L 215.920038 230.507261 
L 218.960035 231.802608 
L 222.434318 233.03046 
L 226.125743 234.095123 
L 230.251454 235.052177 
L 235.028592 235.921551 
L 240.457159 236.674791 
L 246.754296 237.320895 
L 248.925723 237.500313 
L 248.925723 237.500313 
" clip-path="url(#p04a1474a5d)" style="fill: none; stroke: #eb6834; stroke-width: 2; stroke-linecap: square"/>
   </g>
   <g id="patch_3">
    <path d="M 43.953906 239.344 
L 43.953906 52.944 
" style="fill: none; stroke: #d9d8d4; stroke-linejoin: miter; stroke-linecap: square"/>
   </g>
   <g id="patch_4">
    <path d="M 43.953906 239.344 
L 258.686285 239.344 
" style="fill: none; stroke: #d9d8d4; stroke-linejoin: miter; stroke-linecap: square"/>
   </g>
   <g id="text_13">
    <!-- normal -->
    <g style="fill: #8a8983" transform="translate(137.561502 71.445025) scale(0.1 -0.1)">
     <defs>
      <path id="DejaVuSans-Bold-6e" d="M 4056 2131 
L 4056 0 
L 2931 0 
L 2931 347 
L 2931 1631 
Q 2931 2084 2911 2256 
Q 2891 2428 2841 2509 
Q 2775 2619 2662 2680 
Q 2550 2741 2406 2741 
Q 2056 2741 1856 2470 
Q 1656 2200 1656 1722 
L 1656 0 
L 538 0 
L 538 3500 
L 1656 3500 
L 1656 2988 
Q 1909 3294 2193 3439 
Q 2478 3584 2822 3584 
Q 3428 3584 3742 3212 
Q 4056 2841 4056 2131 
z
" transform="scale(0.015625)"/>
      <path id="DejaVuSans-Bold-6f" d="M 2203 2784 
Q 1831 2784 1636 2517 
Q 1441 2250 1441 1747 
Q 1441 1244 1636 976 
Q 1831 709 2203 709 
Q 2569 709 2762 976 
Q 2956 1244 2956 1747 
Q 2956 2250 2762 2517 
Q 2569 2784 2203 2784 
z
M 2203 3584 
Q 3106 3584 3614 3096 
Q 4122 2609 4122 1747 
Q 4122 884 3614 396 
Q 3106 -91 2203 -91 
Q 1297 -91 786 396 
Q 275 884 275 1747 
Q 275 2609 786 3096 
Q 1297 3584 2203 3584 
z
" transform="scale(0.015625)"/>
      <path id="DejaVuSans-Bold-72" d="M 3138 2547 
Q 2991 2616 2845 2648 
Q 2700 2681 2553 2681 
Q 2122 2681 1889 2404 
Q 1656 2128 1656 1613 
L 1656 0 
L 538 0 
L 538 3500 
L 1656 3500 
L 1656 2925 
Q 1872 3269 2151 3426 
Q 2431 3584 2822 3584 
Q 2878 3584 2943 3579 
Q 3009 3575 3134 3559 
L 3138 2547 
z
" transform="scale(0.015625)"/>
      <path id="DejaVuSans-Bold-6d" d="M 3781 2919 
Q 3994 3244 4286 3414 
Q 4578 3584 4928 3584 
Q 5531 3584 5847 3212 
Q 6163 2841 6163 2131 
L 6163 0 
L 5038 0 
L 5038 1825 
Q 5041 1866 5042 1909 
Q 5044 1953 5044 2034 
Q 5044 2406 4934 2573 
Q 4825 2741 4581 2741 
Q 4263 2741 4089 2478 
Q 3916 2216 3909 1719 
L 3909 0 
L 2784 0 
L 2784 1825 
Q 2784 2406 2684 2573 
Q 2584 2741 2328 2741 
Q 2006 2741 1831 2477 
Q 1656 2213 1656 1722 
L 1656 0 
L 531 0 
L 531 3500 
L 1656 3500 
L 1656 2988 
Q 1863 3284 2130 3434 
Q 2397 3584 2719 3584 
Q 3081 3584 3359 3409 
Q 3638 3234 3781 2919 
z
" transform="scale(0.015625)"/>
      <path id="DejaVuSans-Bold-61" d="M 2106 1575 
Q 1756 1575 1579 1456 
Q 1403 1338 1403 1106 
Q 1403 894 1545 773 
Q 1688 653 1941 653 
Q 2256 653 2472 879 
Q 2688 1106 2688 1447 
L 2688 1575 
L 2106 1575 
z
M 3816 1997 
L 3816 0 
L 2688 0 
L 2688 519 
Q 2463 200 2181 54 
Q 1900 -91 1497 -91 
Q 953 -91 614 226 
Q 275 544 275 1050 
Q 275 1666 698 1953 
Q 1122 2241 2028 2241 
L 2688 2241 
L 2688 2328 
Q 2688 2594 2478 2717 
Q 2269 2841 1825 2841 
Q 1466 2841 1156 2769 
Q 847 2697 581 2553 
L 581 3406 
Q 941 3494 1303 3539 
Q 1666 3584 2028 3584 
Q 2975 3584 3395 3211 
Q 3816 2838 3816 1997 
z
" transform="scale(0.015625)"/>
      <path id="DejaVuSans-Bold-6c" d="M 538 4863 
L 1656 4863 
L 1656 0 
L 538 0 
L 538 4863 
z
" transform="scale(0.015625)"/>
     </defs>
     <use xlink:href="#DejaVuSans-Bold-6e"/>
     <use xlink:href="#DejaVuSans-Bold-6f" transform="translate(71.191406 0)"/>
     <use xlink:href="#DejaVuSans-Bold-72" transform="translate(139.892578 0)"/>
     <use xlink:href="#DejaVuSans-Bold-6d" transform="translate(189.208984 0)"/>
     <use xlink:href="#DejaVuSans-Bold-61" transform="translate(293.408203 0)"/>
     <use xlink:href="#DejaVuSans-Bold-6c" transform="translate(360.888672 0)"/>
    </g>
   </g>
   <g id="text_14">
    <!-- t, 15 df -->
    <g style="fill: #2a78d6" transform="translate(75.317304 201.391468) scale(0.1 -0.1)">
     <defs>
      <path id="DejaVuSans-Bold-74" d="M 1759 4494 
L 1759 3500 
L 2913 3500 
L 2913 2700 
L 1759 2700 
L 1759 1216 
Q 1759 972 1856 886 
Q 1953 800 2241 800 
L 2816 800 
L 2816 0 
L 1856 0 
Q 1194 0 917 276 
Q 641 553 641 1216 
L 641 2700 
L 84 2700 
L 84 3500 
L 641 3500 
L 641 4494 
L 1759 4494 
z
" transform="scale(0.015625)"/>
      <path id="DejaVuSans-Bold-2c" d="M 653 1209 
L 1778 1209 
L 1778 256 
L 1006 -909 
L 341 -909 
L 653 256 
L 653 1209 
z
" transform="scale(0.015625)"/>
      <path id="DejaVuSans-Bold-20" transform="scale(0.015625)"/>
      <path id="DejaVuSans-Bold-31" d="M 750 831 
L 1813 831 
L 1813 3847 
L 722 3622 
L 722 4441 
L 1806 4666 
L 2950 4666 
L 2950 831 
L 4013 831 
L 4013 0 
L 750 0 
L 750 831 
z
" transform="scale(0.015625)"/>
      <path id="DejaVuSans-Bold-35" d="M 678 4666 
L 3669 4666 
L 3669 3781 
L 1638 3781 
L 1638 3059 
Q 1775 3097 1914 3117 
Q 2053 3138 2203 3138 
Q 3056 3138 3531 2711 
Q 4006 2284 4006 1522 
Q 4006 766 3489 337 
Q 2972 -91 2053 -91 
Q 1656 -91 1267 -14 
Q 878 63 494 219 
L 494 1166 
Q 875 947 1217 837 
Q 1559 728 1863 728 
Q 2300 728 2551 942 
Q 2803 1156 2803 1522 
Q 2803 1891 2551 2103 
Q 2300 2316 1863 2316 
Q 1603 2316 1309 2248 
Q 1016 2181 678 2041 
L 678 4666 
z
" transform="scale(0.015625)"/>
      <path id="DejaVuSans-Bold-64" d="M 2919 2988 
L 2919 4863 
L 4044 4863 
L 4044 0 
L 2919 0 
L 2919 506 
Q 2688 197 2409 53 
Q 2131 -91 1766 -91 
Q 1119 -91 703 423 
Q 288 938 288 1747 
Q 288 2556 703 3070 
Q 1119 3584 1766 3584 
Q 2128 3584 2408 3439 
Q 2688 3294 2919 2988 
z
M 2181 722 
Q 2541 722 2730 984 
Q 2919 1247 2919 1747 
Q 2919 2247 2730 2509 
Q 2541 2772 2181 2772 
Q 1825 2772 1636 2509 
Q 1447 2247 1447 1747 
Q 1447 1247 1636 984 
Q 1825 722 2181 722 
z
" transform="scale(0.015625)"/>
      <path id="DejaVuSans-Bold-66" d="M 2841 4863 
L 2841 4128 
L 2222 4128 
Q 1984 4128 1890 4042 
Q 1797 3956 1797 3744 
L 1797 3500 
L 2753 3500 
L 2753 2700 
L 1797 2700 
L 1797 0 
L 678 0 
L 678 2700 
L 122 2700 
L 122 3500 
L 678 3500 
L 678 3744 
Q 678 4316 997 4589 
Q 1316 4863 1984 4863 
L 2841 4863 
z
" transform="scale(0.015625)"/>
     </defs>
     <use xlink:href="#DejaVuSans-Bold-74"/>
     <use xlink:href="#DejaVuSans-Bold-2c" transform="translate(47.802734 0)"/>
     <use xlink:href="#DejaVuSans-Bold-20" transform="translate(85.791016 0)"/>
     <use xlink:href="#DejaVuSans-Bold-31" transform="translate(120.605469 0)"/>
     <use xlink:href="#DejaVuSans-Bold-35" transform="translate(190.185547 0)"/>
     <use xlink:href="#DejaVuSans-Bold-20" transform="translate(259.765625 0)"/>
     <use xlink:href="#DejaVuSans-Bold-64" transform="translate(294.580078 0)"/>
     <use xlink:href="#DejaVuSans-Bold-66" transform="translate(366.162109 0)"/>
    </g>
   </g>
   <g id="text_15">
    <!-- t, 4 df -->
    <g style="fill: #eb6834" transform="translate(221.651077 221.140654) scale(0.1 -0.1)">
     <defs>
      <path id="DejaVuSans-Bold-34" d="M 2356 3675 
L 1038 1722 
L 2356 1722 
L 2356 3675 
z
M 2156 4666 
L 3494 4666 
L 3494 1722 
L 4159 1722 
L 4159 850 
L 3494 850 
L 3494 0 
L 2356 0 
L 2356 850 
L 288 850 
L 288 1881 
L 2156 4666 
z
" transform="scale(0.015625)"/>
     </defs>
     <use xlink:href="#DejaVuSans-Bold-74"/>
     <use xlink:href="#DejaVuSans-Bold-2c" transform="translate(47.802734 0)"/>
     <use xlink:href="#DejaVuSans-Bold-20" transform="translate(85.791016 0)"/>
     <use xlink:href="#DejaVuSans-Bold-34" transform="translate(120.605469 0)"/>
     <use xlink:href="#DejaVuSans-Bold-20" transform="translate(190.185547 0)"/>
     <use xlink:href="#DejaVuSans-Bold-64" transform="translate(225 0)"/>
     <use xlink:href="#DejaVuSans-Bold-66" transform="translate(296.582031 0)"/>
    </g>
   </g>
   <g id="text_16">
    <!-- fatter tails pay for estimating s -->
    <g style="fill: #0b0b0b" transform="translate(54.011346 46.944) scale(0.11 -0.11)">
     <defs>
      <path id="DejaVuSans-Bold-65" d="M 4031 1759 
L 4031 1441 
L 1416 1441 
Q 1456 1047 1700 850 
Q 1944 653 2381 653 
Q 2734 653 3104 758 
Q 3475 863 3866 1075 
L 3866 213 
Q 3469 63 3072 -14 
Q 2675 -91 2278 -91 
Q 1328 -91 801 392 
Q 275 875 275 1747 
Q 275 2603 792 3093 
Q 1309 3584 2216 3584 
Q 3041 3584 3536 3087 
Q 4031 2591 4031 1759 
z
M 2881 2131 
Q 2881 2450 2695 2645 
Q 2509 2841 2209 2841 
Q 1884 2841 1681 2658 
Q 1478 2475 1428 2131 
L 2881 2131 
z
" transform="scale(0.015625)"/>
      <path id="DejaVuSans-Bold-69" d="M 538 3500 
L 1656 3500 
L 1656 0 
L 538 0 
L 538 3500 
z
M 538 4863 
L 1656 4863 
L 1656 3950 
L 538 3950 
L 538 4863 
z
" transform="scale(0.015625)"/>
      <path id="DejaVuSans-Bold-73" d="M 3272 3391 
L 3272 2541 
Q 2913 2691 2578 2766 
Q 2244 2841 1947 2841 
Q 1628 2841 1473 2761 
Q 1319 2681 1319 2516 
Q 1319 2381 1436 2309 
Q 1553 2238 1856 2203 
L 2053 2175 
Q 2913 2066 3209 1816 
Q 3506 1566 3506 1031 
Q 3506 472 3093 190 
Q 2681 -91 1863 -91 
Q 1516 -91 1145 -36 
Q 775 19 384 128 
L 384 978 
Q 719 816 1070 734 
Q 1422 653 1784 653 
Q 2113 653 2278 743 
Q 2444 834 2444 1013 
Q 2444 1163 2330 1236 
Q 2216 1309 1875 1350 
L 1678 1375 
Q 931 1469 631 1722 
Q 331 1975 331 2491 
Q 331 3047 712 3315 
Q 1094 3584 1881 3584 
Q 2191 3584 2531 3537 
Q 2872 3491 3272 3391 
z
" transform="scale(0.015625)"/>
      <path id="DejaVuSans-Bold-70" d="M 1656 506 
L 1656 -1331 
L 538 -1331 
L 538 3500 
L 1656 3500 
L 1656 2988 
Q 1888 3294 2169 3439 
Q 2450 3584 2816 3584 
Q 3463 3584 3878 3070 
Q 4294 2556 4294 1747 
Q 4294 938 3878 423 
Q 3463 -91 2816 -91 
Q 2450 -91 2169 54 
Q 1888 200 1656 506 
z
M 2400 2772 
Q 2041 2772 1848 2508 
Q 1656 2244 1656 1747 
Q 1656 1250 1848 986 
Q 2041 722 2400 722 
Q 2759 722 2948 984 
Q 3138 1247 3138 1747 
Q 3138 2247 2948 2509 
Q 2759 2772 2400 2772 
z
" transform="scale(0.015625)"/>
      <path id="DejaVuSans-Bold-79" d="M 78 3500 
L 1197 3500 
L 2138 1125 
L 2938 3500 
L 4056 3500 
L 2584 -331 
Q 2363 -916 2067 -1148 
Q 1772 -1381 1288 -1381 
L 641 -1381 
L 641 -647 
L 991 -647 
Q 1275 -647 1404 -556 
Q 1534 -466 1606 -231 
L 1638 -134 
L 78 3500 
z
" transform="scale(0.015625)"/>
      <path id="DejaVuSans-Bold-67" d="M 2919 594 
Q 2688 288 2409 144 
Q 2131 0 1766 0 
Q 1125 0 706 504 
Q 288 1009 288 1791 
Q 288 2575 706 3076 
Q 1125 3578 1766 3578 
Q 2131 3578 2409 3434 
Q 2688 3291 2919 2981 
L 2919 3500 
L 4044 3500 
L 4044 353 
Q 4044 -491 3511 -936 
Q 2978 -1381 1966 -1381 
Q 1638 -1381 1331 -1331 
Q 1025 -1281 716 -1178 
L 716 -306 
Q 1009 -475 1290 -558 
Q 1572 -641 1856 -641 
Q 2406 -641 2662 -400 
Q 2919 -159 2919 353 
L 2919 594 
z
M 2181 2772 
Q 1834 2772 1640 2515 
Q 1447 2259 1447 1791 
Q 1447 1309 1634 1061 
Q 1822 813 2181 813 
Q 2531 813 2725 1069 
Q 2919 1325 2919 1791 
Q 2919 2259 2725 2515 
Q 2531 2772 2181 2772 
z
" transform="scale(0.015625)"/>
     </defs>
     <use xlink:href="#DejaVuSans-Bold-66"/>
     <use xlink:href="#DejaVuSans-Bold-61" transform="translate(43.505859 0)"/>
     <use xlink:href="#DejaVuSans-Bold-74" transform="translate(110.986328 0)"/>
     <use xlink:href="#DejaVuSans-Bold-74" transform="translate(158.789062 0)"/>
     <use xlink:href="#DejaVuSans-Bold-65" transform="translate(206.591797 0)"/>
     <use xlink:href="#DejaVuSans-Bold-72" transform="translate(274.414062 0)"/>
     <use xlink:href="#DejaVuSans-Bold-20" transform="translate(323.730469 0)"/>
     <use xlink:href="#DejaVuSans-Bold-74" transform="translate(358.544922 0)"/>
     <use xlink:href="#DejaVuSans-Bold-61" transform="translate(406.347656 0)"/>
     <use xlink:href="#DejaVuSans-Bold-69" transform="translate(473.828125 0)"/>
     <use xlink:href="#DejaVuSans-Bold-6c" transform="translate(508.105469 0)"/>
     <use xlink:href="#DejaVuSans-Bold-73" transform="translate(542.382812 0)"/>
     <use xlink:href="#DejaVuSans-Bold-20" transform="translate(601.904297 0)"/>
     <use xlink:href="#DejaVuSans-Bold-70" transform="translate(636.71875 0)"/>
     <use xlink:href="#DejaVuSans-Bold-61" transform="translate(708.300781 0)"/>
     <use xlink:href="#DejaVuSans-Bold-79" transform="translate(772.65625 0)"/>
     <use xlink:href="#DejaVuSans-Bold-20" transform="translate(837.841797 0)"/>
     <use xlink:href="#DejaVuSans-Bold-66" transform="translate(872.65625 0)"/>
     <use xlink:href="#DejaVuSans-Bold-6f" transform="translate(916.162109 0)"/>
     <use xlink:href="#DejaVuSans-Bold-72" transform="translate(984.863281 0)"/>
     <use xlink:href="#DejaVuSans-Bold-20" transform="translate(1034.179688 0)"/>
     <use xlink:href="#DejaVuSans-Bold-65" transform="translate(1068.994141 0)"/>
     <use xlink:href="#DejaVuSans-Bold-73" transform="translate(1136.816406 0)"/>
     <use xlink:href="#DejaVuSans-Bold-74" transform="translate(1196.337891 0)"/>
     <use xlink:href="#DejaVuSans-Bold-69" transform="translate(1244.140625 0)"/>
     <use xlink:href="#DejaVuSans-Bold-6d" transform="translate(1278.417969 0)"/>
     <use xlink:href="#DejaVuSans-Bold-61" transform="translate(1382.617188 0)"/>
     <use xlink:href="#DejaVuSans-Bold-74" transform="translate(1450.097656 0)"/>
     <use xlink:href="#DejaVuSans-Bold-69" transform="translate(1497.900391 0)"/>
     <use xlink:href="#DejaVuSans-Bold-6e" transform="translate(1532.177734 0)"/>
     <use xlink:href="#DejaVuSans-Bold-67" transform="translate(1603.369141 0)"/>
     <use xlink:href="#DejaVuSans-Bold-20" transform="translate(1674.951172 0)"/>
     <use xlink:href="#DejaVuSans-Bold-73" transform="translate(1709.765625 0)"/>
    </g>
   </g>
  </g>
  <g id="axes_2">
   <g id="patch_5">
    <path d="M 307.947262 239.344 
L 522.679641 239.344 
L 522.679641 52.944 
L 307.947262 52.944 
L 307.947262 239.344 
z
" style="fill: none"/>
   </g>
   <g id="matplotlib.axis_3">
    <g id="xtick_6">
     <g id="line2d_24">
      <path d="M 310.976402 239.344 
L 310.976402 52.944 
" clip-path="url(#pf84fddbea7)" style="fill: none; stroke: #d9d8d4; stroke-opacity: 0.55; stroke-width: 0.7; stroke-linecap: square"/>
     </g>
     <g id="line2d_25">
      <g>
       <use xlink:href="#mda691e0d38" x="310.976402" y="239.344" style="fill: #52514e; stroke: #52514e; stroke-width: 0.8"/>
      </g>
     </g>
     <g id="text_17">
      <!-- 0 -->
      <g style="fill: #52514e" transform="translate(307.954215 253.562516) scale(0.095 -0.095)">
       <use xlink:href="#DejaVuSans-30"/>
      </g>
     </g>
    </g>
    <g id="xtick_7">
     <g id="line2d_26">
      <path d="M 344.633515 239.344 
L 344.633515 52.944 
" clip-path="url(#pf84fddbea7)" style="fill: none; stroke: #d9d8d4; stroke-opacity: 0.55; stroke-width: 0.7; stroke-linecap: square"/>
     </g>
     <g id="line2d_27">
      <g>
       <use xlink:href="#mda691e0d38" x="344.633515" y="239.344" style="fill: #52514e; stroke: #52514e; stroke-width: 0.8"/>
      </g>
     </g>
     <g id="text_18">
      <!-- 10 -->
      <g style="fill: #52514e" transform="translate(338.58914 253.562516) scale(0.095 -0.095)">
       <use xlink:href="#DejaVuSans-31"/>
       <use xlink:href="#DejaVuSans-30" transform="translate(63.623047 0)"/>
      </g>
     </g>
    </g>
    <g id="xtick_8">
     <g id="line2d_28">
      <path d="M 378.290628 239.344 
L 378.290628 52.944 
" clip-path="url(#pf84fddbea7)" style="fill: none; stroke: #d9d8d4; stroke-opacity: 0.55; stroke-width: 0.7; stroke-linecap: square"/>
     </g>
     <g id="line2d_29">
      <g>
       <use xlink:href="#mda691e0d38" x="378.290628" y="239.344" style="fill: #52514e; stroke: #52514e; stroke-width: 0.8"/>
      </g>
     </g>
     <g id="text_19">
      <!-- 20 -->
      <g style="fill: #52514e" transform="translate(372.246253 253.562516) scale(0.095 -0.095)">
       <use xlink:href="#DejaVuSans-32"/>
       <use xlink:href="#DejaVuSans-30" transform="translate(63.623047 0)"/>
      </g>
     </g>
    </g>
    <g id="xtick_9">
     <g id="line2d_30">
      <path d="M 411.94774 239.344 
L 411.94774 52.944 
" clip-path="url(#pf84fddbea7)" style="fill: none; stroke: #d9d8d4; stroke-opacity: 0.55; stroke-width: 0.7; stroke-linecap: square"/>
     </g>
     <g id="line2d_31">
      <g>
       <use xlink:href="#mda691e0d38" x="411.94774" y="239.344" style="fill: #52514e; stroke: #52514e; stroke-width: 0.8"/>
      </g>
     </g>
     <g id="text_20">
      <!-- 30 -->
      <g style="fill: #52514e" transform="translate(405.903365 253.562516) scale(0.095 -0.095)">
       <use xlink:href="#DejaVuSans-33"/>
       <use xlink:href="#DejaVuSans-30" transform="translate(63.623047 0)"/>
      </g>
     </g>
    </g>
    <g id="xtick_10">
     <g id="line2d_32">
      <path d="M 445.604853 239.344 
L 445.604853 52.944 
" clip-path="url(#pf84fddbea7)" style="fill: none; stroke: #d9d8d4; stroke-opacity: 0.55; stroke-width: 0.7; stroke-linecap: square"/>
     </g>
     <g id="line2d_33">
      <g>
       <use xlink:href="#mda691e0d38" x="445.604853" y="239.344" style="fill: #52514e; stroke: #52514e; stroke-width: 0.8"/>
      </g>
     </g>
     <g id="text_21">
      <!-- 40 -->
      <g style="fill: #52514e" transform="translate(439.560478 253.562516) scale(0.095 -0.095)">
       <use xlink:href="#DejaVuSans-34"/>
       <use xlink:href="#DejaVuSans-30" transform="translate(63.623047 0)"/>
      </g>
     </g>
    </g>
    <g id="xtick_11">
     <g id="line2d_34">
      <path d="M 479.261966 239.344 
L 479.261966 52.944 
" clip-path="url(#pf84fddbea7)" style="fill: none; stroke: #d9d8d4; stroke-opacity: 0.55; stroke-width: 0.7; stroke-linecap: square"/>
     </g>
     <g id="line2d_35">
      <g>
       <use xlink:href="#mda691e0d38" x="479.261966" y="239.344" style="fill: #52514e; stroke: #52514e; stroke-width: 0.8"/>
      </g>
     </g>
     <g id="text_22">
      <!-- 50 -->
      <g style="fill: #52514e" transform="translate(473.217591 253.562516) scale(0.095 -0.095)">
       <defs>
        <path id="DejaVuSans-35" d="M 691 4666 
L 3169 4666 
L 3169 4134 
L 1269 4134 
L 1269 2991 
Q 1406 3038 1543 3061 
Q 1681 3084 1819 3084 
Q 2600 3084 3056 2656 
Q 3513 2228 3513 1497 
Q 3513 744 3044 326 
Q 2575 -91 1722 -91 
Q 1428 -91 1123 -41 
Q 819 9 494 109 
L 494 744 
Q 775 591 1075 516 
Q 1375 441 1709 441 
Q 2250 441 2565 725 
Q 2881 1009 2881 1497 
Q 2881 1984 2565 2268 
Q 2250 2553 1709 2553 
Q 1456 2553 1204 2497 
Q 953 2441 691 2322 
L 691 4666 
z
" transform="scale(0.015625)"/>
       </defs>
       <use xlink:href="#DejaVuSans-35"/>
       <use xlink:href="#DejaVuSans-30" transform="translate(63.623047 0)"/>
      </g>
     </g>
    </g>
    <g id="xtick_12">
     <g id="line2d_36">
      <path d="M 512.919079 239.344 
L 512.919079 52.944 
" clip-path="url(#pf84fddbea7)" style="fill: none; stroke: #d9d8d4; stroke-opacity: 0.55; stroke-width: 0.7; stroke-linecap: square"/>
     </g>
     <g id="line2d_37">
      <g>
       <use xlink:href="#mda691e0d38" x="512.919079" y="239.344" style="fill: #52514e; stroke: #52514e; stroke-width: 0.8"/>
      </g>
     </g>
     <g id="text_23">
      <!-- 60 -->
      <g style="fill: #52514e" transform="translate(506.874704 253.562516) scale(0.095 -0.095)">
       <defs>
        <path id="DejaVuSans-36" d="M 2113 2584 
Q 1688 2584 1439 2293 
Q 1191 2003 1191 1497 
Q 1191 994 1439 701 
Q 1688 409 2113 409 
Q 2538 409 2786 701 
Q 3034 994 3034 1497 
Q 3034 2003 2786 2293 
Q 2538 2584 2113 2584 
z
M 3366 4563 
L 3366 3988 
Q 3128 4100 2886 4159 
Q 2644 4219 2406 4219 
Q 1781 4219 1451 3797 
Q 1122 3375 1075 2522 
Q 1259 2794 1537 2939 
Q 1816 3084 2150 3084 
Q 2853 3084 3261 2657 
Q 3669 2231 3669 1497 
Q 3669 778 3244 343 
Q 2819 -91 2113 -91 
Q 1303 -91 875 529 
Q 447 1150 447 2328 
Q 447 3434 972 4092 
Q 1497 4750 2381 4750 
Q 2619 4750 2861 4703 
Q 3103 4656 3366 4563 
z
" transform="scale(0.015625)"/>
       </defs>
       <use xlink:href="#DejaVuSans-36"/>
       <use xlink:href="#DejaVuSans-30" transform="translate(63.623047 0)"/>
      </g>
     </g>
    </g>
    <g id="text_24">
     <!-- degrees of freedom -->
     <g style="fill: #52514e" transform="translate(361.321499 267.8965) scale(0.11 -0.11)">
      <defs>
       <path id="DejaVuSans-67" d="M 2906 1791 
Q 2906 2416 2648 2759 
Q 2391 3103 1925 3103 
Q 1463 3103 1205 2759 
Q 947 2416 947 1791 
Q 947 1169 1205 825 
Q 1463 481 1925 481 
Q 2391 481 2648 825 
Q 2906 1169 2906 1791 
z
M 3481 434 
Q 3481 -459 3084 -895 
Q 2688 -1331 1869 -1331 
Q 1566 -1331 1297 -1286 
Q 1028 -1241 775 -1147 
L 775 -588 
Q 1028 -725 1275 -790 
Q 1522 -856 1778 -856 
Q 2344 -856 2625 -561 
Q 2906 -266 2906 331 
L 2906 616 
Q 2728 306 2450 153 
Q 2172 0 1784 0 
Q 1141 0 747 490 
Q 353 981 353 1791 
Q 353 2603 747 3093 
Q 1141 3584 1784 3584 
Q 2172 3584 2450 3431 
Q 2728 3278 2906 2969 
L 2906 3500 
L 3481 3500 
L 3481 434 
z
" transform="scale(0.015625)"/>
       <path id="DejaVuSans-66" d="M 2375 4863 
L 2375 4384 
L 1825 4384 
Q 1516 4384 1395 4259 
Q 1275 4134 1275 3809 
L 1275 3500 
L 2222 3500 
L 2222 3053 
L 1275 3053 
L 1275 0 
L 697 0 
L 697 3053 
L 147 3053 
L 147 3500 
L 697 3500 
L 697 3744 
Q 697 4328 969 4595 
Q 1241 4863 1831 4863 
L 2375 4863 
z
" transform="scale(0.015625)"/>
       <path id="DejaVuSans-6d" d="M 3328 2828 
Q 3544 3216 3844 3400 
Q 4144 3584 4550 3584 
Q 5097 3584 5394 3201 
Q 5691 2819 5691 2113 
L 5691 0 
L 5113 0 
L 5113 2094 
Q 5113 2597 4934 2840 
Q 4756 3084 4391 3084 
Q 3944 3084 3684 2787 
Q 3425 2491 3425 1978 
L 3425 0 
L 2847 0 
L 2847 2094 
Q 2847 2600 2669 2842 
Q 2491 3084 2119 3084 
Q 1678 3084 1418 2786 
Q 1159 2488 1159 1978 
L 1159 0 
L 581 0 
L 581 3500 
L 1159 3500 
L 1159 2956 
Q 1356 3278 1631 3431 
Q 1906 3584 2284 3584 
Q 2666 3584 2933 3390 
Q 3200 3197 3328 2828 
z
" transform="scale(0.015625)"/>
      </defs>
      <use xlink:href="#DejaVuSans-64"/>
      <use xlink:href="#DejaVuSans-65" transform="translate(63.476562 0)"/>
      <use xlink:href="#DejaVuSans-67" transform="translate(125 0)"/>
      <use xlink:href="#DejaVuSans-72" transform="translate(188.476562 0)"/>
      <use xlink:href="#DejaVuSans-65" transform="translate(227.339844 0)"/>
      <use xlink:href="#DejaVuSans-65" transform="translate(288.863281 0)"/>
      <use xlink:href="#DejaVuSans-73" transform="translate(350.386719 0)"/>
      <use xlink:href="#DejaVuSans-20" transform="translate(402.486328 0)"/>
      <use xlink:href="#DejaVuSans-6f" transform="translate(434.273438 0)"/>
      <use xlink:href="#DejaVuSans-66" transform="translate(495.455078 0)"/>
      <use xlink:href="#DejaVuSans-20" transform="translate(530.660156 0)"/>
      <use xlink:href="#DejaVuSans-66" transform="translate(562.447266 0)"/>
      <use xlink:href="#DejaVuSans-72" transform="translate(597.652344 0)"/>
      <use xlink:href="#DejaVuSans-65" transform="translate(636.515625 0)"/>
      <use xlink:href="#DejaVuSans-65" transform="translate(698.039062 0)"/>
      <use xlink:href="#DejaVuSans-64" transform="translate(759.5625 0)"/>
      <use xlink:href="#DejaVuSans-6f" transform="translate(823.039062 0)"/>
      <use xlink:href="#DejaVuSans-6d" transform="translate(884.220703 0)"/>
     </g>
    </g>
   </g>
   <g id="matplotlib.axis_4">
    <g id="ytick_6">
     <g id="line2d_38">
      <path d="M 307.947262 214.490667 
L 522.679641 214.490667 
" clip-path="url(#pf84fddbea7)" style="fill: none; stroke: #d9d8d4; stroke-opacity: 0.55; stroke-width: 0.7; stroke-linecap: square"/>
     </g>
     <g id="line2d_39">
      <g>
       <use xlink:href="#mc2f4156390" x="307.947262" y="214.490667" style="fill: #52514e; stroke: #52514e; stroke-width: 0.8"/>
      </g>
     </g>
     <g id="text_25">
      <!-- 2.0 -->
      <g style="fill: #52514e" transform="translate(285.839293 218.099924) scale(0.095 -0.095)">
       <use xlink:href="#DejaVuSans-32"/>
       <use xlink:href="#DejaVuSans-2e" transform="translate(63.623047 0)"/>
       <use xlink:href="#DejaVuSans-30" transform="translate(95.410156 0)"/>
      </g>
     </g>
    </g>
    <g id="ytick_7">
     <g id="line2d_40">
      <path d="M 307.947262 183.424 
L 522.679641 183.424 
" clip-path="url(#pf84fddbea7)" style="fill: none; stroke: #d9d8d4; stroke-opacity: 0.55; stroke-width: 0.7; stroke-linecap: square"/>
     </g>
     <g id="line2d_41">
      <g>
       <use xlink:href="#mc2f4156390" x="307.947262" y="183.424" style="fill: #52514e; stroke: #52514e; stroke-width: 0.8"/>
      </g>
     </g>
     <g id="text_26">
      <!-- 2.5 -->
      <g style="fill: #52514e" transform="translate(285.839293 187.033258) scale(0.095 -0.095)">
       <use xlink:href="#DejaVuSans-32"/>
       <use xlink:href="#DejaVuSans-2e" transform="translate(63.623047 0)"/>
       <use xlink:href="#DejaVuSans-35" transform="translate(95.410156 0)"/>
      </g>
     </g>
    </g>
    <g id="ytick_8">
     <g id="line2d_42">
      <path d="M 307.947262 152.357333 
L 522.679641 152.357333 
" clip-path="url(#pf84fddbea7)" style="fill: none; stroke: #d9d8d4; stroke-opacity: 0.55; stroke-width: 0.7; stroke-linecap: square"/>
     </g>
     <g id="line2d_43">
      <g>
       <use xlink:href="#mc2f4156390" x="307.947262" y="152.357333" style="fill: #52514e; stroke: #52514e; stroke-width: 0.8"/>
      </g>
     </g>
     <g id="text_27">
      <!-- 3.0 -->
      <g style="fill: #52514e" transform="translate(285.839293 155.966591) scale(0.095 -0.095)">
       <use xlink:href="#DejaVuSans-33"/>
       <use xlink:href="#DejaVuSans-2e" transform="translate(63.623047 0)"/>
       <use xlink:href="#DejaVuSans-30" transform="translate(95.410156 0)"/>
      </g>
     </g>
    </g>
    <g id="ytick_9">
     <g id="line2d_44">
      <path d="M 307.947262 121.290667 
L 522.679641 121.290667 
" clip-path="url(#pf84fddbea7)" style="fill: none; stroke: #d9d8d4; stroke-opacity: 0.55; stroke-width: 0.7; stroke-linecap: square"/>
     </g>
     <g id="line2d_45">
      <g>
       <use xlink:href="#mc2f4156390" x="307.947262" y="121.290667" style="fill: #52514e; stroke: #52514e; stroke-width: 0.8"/>
      </g>
     </g>
     <g id="text_28">
      <!-- 3.5 -->
      <g style="fill: #52514e" transform="translate(285.839293 124.899924) scale(0.095 -0.095)">
       <use xlink:href="#DejaVuSans-33"/>
       <use xlink:href="#DejaVuSans-2e" transform="translate(63.623047 0)"/>
       <use xlink:href="#DejaVuSans-35" transform="translate(95.410156 0)"/>
      </g>
     </g>
    </g>
    <g id="ytick_10">
     <g id="line2d_46">
      <path d="M 307.947262 90.224 
L 522.679641 90.224 
" clip-path="url(#pf84fddbea7)" style="fill: none; stroke: #d9d8d4; stroke-opacity: 0.55; stroke-width: 0.7; stroke-linecap: square"/>
     </g>
     <g id="line2d_47">
      <g>
       <use xlink:href="#mc2f4156390" x="307.947262" y="90.224" style="fill: #52514e; stroke: #52514e; stroke-width: 0.8"/>
      </g>
     </g>
     <g id="text_29">
      <!-- 4.0 -->
      <g style="fill: #52514e" transform="translate(285.839293 93.833258) scale(0.095 -0.095)">
       <use xlink:href="#DejaVuSans-34"/>
       <use xlink:href="#DejaVuSans-2e" transform="translate(63.623047 0)"/>
       <use xlink:href="#DejaVuSans-30" transform="translate(95.410156 0)"/>
      </g>
     </g>
    </g>
    <g id="ytick_11">
     <g id="line2d_48">
      <path d="M 307.947262 59.157333 
L 522.679641 59.157333 
" clip-path="url(#pf84fddbea7)" style="fill: none; stroke: #d9d8d4; stroke-opacity: 0.55; stroke-width: 0.7; stroke-linecap: square"/>
     </g>
     <g id="line2d_49">
      <g>
       <use xlink:href="#mc2f4156390" x="307.947262" y="59.157333" style="fill: #52514e; stroke: #52514e; stroke-width: 0.8"/>
      </g>
     </g>
     <g id="text_30">
      <!-- 4.5 -->
      <g style="fill: #52514e" transform="translate(285.839293 62.766591) scale(0.095 -0.095)">
       <use xlink:href="#DejaVuSans-34"/>
       <use xlink:href="#DejaVuSans-2e" transform="translate(63.623047 0)"/>
       <use xlink:href="#DejaVuSans-35" transform="translate(95.410156 0)"/>
      </g>
     </g>
    </g>
    <g id="text_31">
     <!-- two-sided 5% critical value -->
     <g style="fill: #52514e" transform="translate(279.551637 220.424078) rotate(-90) scale(0.11 -0.11)">
      <defs>
       <path id="DejaVuSans-77" d="M 269 3500 
L 844 3500 
L 1563 769 
L 2278 3500 
L 2956 3500 
L 3675 769 
L 4391 3500 
L 4966 3500 
L 4050 0 
L 3372 0 
L 2619 2869 
L 1863 0 
L 1184 0 
L 269 3500 
z
" transform="scale(0.015625)"/>
       <path id="DejaVuSans-2d" d="M 313 2009 
L 1997 2009 
L 1997 1497 
L 313 1497 
L 313 2009 
z
" transform="scale(0.015625)"/>
       <path id="DejaVuSans-25" d="M 4653 2053 
Q 4381 2053 4226 1822 
Q 4072 1591 4072 1178 
Q 4072 772 4226 539 
Q 4381 306 4653 306 
Q 4919 306 5073 539 
Q 5228 772 5228 1178 
Q 5228 1588 5073 1820 
Q 4919 2053 4653 2053 
z
M 4653 2450 
Q 5147 2450 5437 2106 
Q 5728 1763 5728 1178 
Q 5728 594 5436 251 
Q 5144 -91 4653 -91 
Q 4153 -91 3862 251 
Q 3572 594 3572 1178 
Q 3572 1766 3864 2108 
Q 4156 2450 4653 2450 
z
M 1428 4353 
Q 1159 4353 1004 4120 
Q 850 3888 850 3481 
Q 850 3069 1003 2837 
Q 1156 2606 1428 2606 
Q 1700 2606 1854 2837 
Q 2009 3069 2009 3481 
Q 2009 3884 1853 4118 
Q 1697 4353 1428 4353 
z
M 4250 4750 
L 4750 4750 
L 1831 -91 
L 1331 -91 
L 4250 4750 
z
M 1428 4750 
Q 1922 4750 2215 4408 
Q 2509 4066 2509 3481 
Q 2509 2891 2217 2550 
Q 1925 2209 1428 2209 
Q 931 2209 642 2551 
Q 353 2894 353 3481 
Q 353 4063 643 4406 
Q 934 4750 1428 4750 
z
" transform="scale(0.015625)"/>
       <path id="DejaVuSans-63" d="M 3122 3366 
L 3122 2828 
Q 2878 2963 2633 3030 
Q 2388 3097 2138 3097 
Q 1578 3097 1268 2742 
Q 959 2388 959 1747 
Q 959 1106 1268 751 
Q 1578 397 2138 397 
Q 2388 397 2633 464 
Q 2878 531 3122 666 
L 3122 134 
Q 2881 22 2623 -34 
Q 2366 -91 2075 -91 
Q 1284 -91 818 406 
Q 353 903 353 1747 
Q 353 2603 823 3093 
Q 1294 3584 2113 3584 
Q 2378 3584 2631 3529 
Q 2884 3475 3122 3366 
z
" transform="scale(0.015625)"/>
      </defs>
      <use xlink:href="#DejaVuSans-74"/>
      <use xlink:href="#DejaVuSans-77" transform="translate(39.208984 0)"/>
      <use xlink:href="#DejaVuSans-6f" transform="translate(120.996094 0)"/>
      <use xlink:href="#DejaVuSans-2d" transform="translate(184.052734 0)"/>
      <use xlink:href="#DejaVuSans-73" transform="translate(220.136719 0)"/>
      <use xlink:href="#DejaVuSans-69" transform="translate(272.236328 0)"/>
      <use xlink:href="#DejaVuSans-64" transform="translate(300.019531 0)"/>
      <use xlink:href="#DejaVuSans-65" transform="translate(363.496094 0)"/>
      <use xlink:href="#DejaVuSans-64" transform="translate(425.019531 0)"/>
      <use xlink:href="#DejaVuSans-20" transform="translate(488.496094 0)"/>
      <use xlink:href="#DejaVuSans-35" transform="translate(520.283203 0)"/>
      <use xlink:href="#DejaVuSans-25" transform="translate(583.90625 0)"/>
      <use xlink:href="#DejaVuSans-20" transform="translate(678.925781 0)"/>
      <use xlink:href="#DejaVuSans-63" transform="translate(710.712891 0)"/>
      <use xlink:href="#DejaVuSans-72" transform="translate(765.693359 0)"/>
      <use xlink:href="#DejaVuSans-69" transform="translate(806.806641 0)"/>
      <use xlink:href="#DejaVuSans-74" transform="translate(834.589844 0)"/>
      <use xlink:href="#DejaVuSans-69" transform="translate(873.798828 0)"/>
      <use xlink:href="#DejaVuSans-63" transform="translate(901.582031 0)"/>
      <use xlink:href="#DejaVuSans-61" transform="translate(956.5625 0)"/>
      <use xlink:href="#DejaVuSans-6c" transform="translate(1017.841797 0)"/>
      <use xlink:href="#DejaVuSans-20" transform="translate(1045.625 0)"/>
      <use xlink:href="#DejaVuSans-76" transform="translate(1077.412109 0)"/>
      <use xlink:href="#DejaVuSans-61" transform="translate(1136.591797 0)"/>
      <use xlink:href="#DejaVuSans-6c" transform="translate(1197.871094 0)"/>
      <use xlink:href="#DejaVuSans-75" transform="translate(1225.654297 0)"/>
      <use xlink:href="#DejaVuSans-65" transform="translate(1289.033203 0)"/>
     </g>
    </g>
   </g>
   <g id="line2d_50">
    <path d="M 317.707825 71.419177 
L 321.073536 141.021336 
L 324.439247 166.247544 
L 327.804959 179.038515 
L 331.17067 186.722544 
L 334.536381 191.835347 
L 337.902092 195.47761 
L 341.267804 198.201968 
L 344.633515 200.315639 
L 347.999226 202.002789 
L 351.364938 203.38043 
L 354.730649 204.526427 
L 358.09636 205.494587 
L 361.462071 206.323268 
L 364.827783 207.040551 
L 368.193494 207.667459 
L 371.559205 208.220044 
L 374.924916 208.710772 
L 378.290628 209.149471 
L 381.656339 209.543993 
L 385.02205 209.900687 
L 388.387762 210.22474 
L 391.753473 210.520436 
L 395.119184 210.791338 
L 398.484895 211.040438 
L 401.850607 211.270264 
L 405.216318 211.48297 
L 408.582029 211.680398 
L 411.94774 211.864138 
L 415.313452 212.035565 
L 418.679163 212.195875 
L 422.044874 212.346116 
L 425.410586 212.487208 
L 428.776297 212.619961 
L 432.142008 212.745093 
L 435.507719 212.863242 
L 438.873431 212.974976 
L 442.239142 213.080804 
L 445.604853 213.181182 
L 448.970564 213.276521 
L 452.336276 213.36719 
L 455.701987 213.453525 
L 459.067698 213.535828 
L 462.43341 213.614376 
L 465.799121 213.68942 
L 469.164832 213.761189 
L 472.530543 213.829894 
L 475.896255 213.895725 
L 479.261966 213.958861 
L 482.627677 214.019462 
L 485.993388 214.077679 
L 489.3591 214.133649 
L 492.724811 214.1875 
L 496.090522 214.239351 
L 499.456234 214.28931 
L 502.821945 214.337479 
L 506.187656 214.383954 
L 509.553367 214.428821 
L 512.919079 214.472162 
" clip-path="url(#pf84fddbea7)" style="fill: none; stroke: #2a78d6; stroke-width: 1.6; stroke-linecap: square"/>
    <defs>
     <path id="m9c3383bddb" d="M 0 1.8 
C 0.477366 1.8 0.935244 1.610341 1.272792 1.272792 
C 1.610341 0.935244 1.8 0.477366 1.8 0 
C 1.8 -0.477366 1.610341 -0.935244 1.272792 -1.272792 
C 0.935244 -1.610341 0.477366 -1.8 0 -1.8 
C -0.477366 -1.8 -0.935244 -1.610341 -1.272792 -1.272792 
C -1.610341 -0.935244 -1.8 -0.477366 -1.8 0 
C -1.8 0.477366 -1.610341 0.935244 -1.272792 1.272792 
C -0.935244 1.610341 -0.477366 1.8 0 1.8 
z
" style="stroke: #2a78d6"/>
    </defs>
    <g clip-path="url(#pf84fddbea7)">
     <use xlink:href="#m9c3383bddb" x="317.707825" y="71.419177" style="fill: #2a78d6; stroke: #2a78d6"/>
     <use xlink:href="#m9c3383bddb" x="321.073536" y="141.021336" style="fill: #2a78d6; stroke: #2a78d6"/>
     <use xlink:href="#m9c3383bddb" x="324.439247" y="166.247544" style="fill: #2a78d6; stroke: #2a78d6"/>
     <use xlink:href="#m9c3383bddb" x="327.804959" y="179.038515" style="fill: #2a78d6; stroke: #2a78d6"/>
     <use xlink:href="#m9c3383bddb" x="331.17067" y="186.722544" style="fill: #2a78d6; stroke: #2a78d6"/>
     <use xlink:href="#m9c3383bddb" x="334.536381" y="191.835347" style="fill: #2a78d6; stroke: #2a78d6"/>
     <use xlink:href="#m9c3383bddb" x="337.902092" y="195.47761" style="fill: #2a78d6; stroke: #2a78d6"/>
     <use xlink:href="#m9c3383bddb" x="341.267804" y="198.201968" style="fill: #2a78d6; stroke: #2a78d6"/>
     <use xlink:href="#m9c3383bddb" x="344.633515" y="200.315639" style="fill: #2a78d6; stroke: #2a78d6"/>
     <use xlink:href="#m9c3383bddb" x="347.999226" y="202.002789" style="fill: #2a78d6; stroke: #2a78d6"/>
     <use xlink:href="#m9c3383bddb" x="351.364938" y="203.38043" style="fill: #2a78d6; stroke: #2a78d6"/>
     <use xlink:href="#m9c3383bddb" x="354.730649" y="204.526427" style="fill: #2a78d6; stroke: #2a78d6"/>
     <use xlink:href="#m9c3383bddb" x="358.09636" y="205.494587" style="fill: #2a78d6; stroke: #2a78d6"/>
     <use xlink:href="#m9c3383bddb" x="361.462071" y="206.323268" style="fill: #2a78d6; stroke: #2a78d6"/>
     <use xlink:href="#m9c3383bddb" x="364.827783" y="207.040551" style="fill: #2a78d6; stroke: #2a78d6"/>
     <use xlink:href="#m9c3383bddb" x="368.193494" y="207.667459" style="fill: #2a78d6; stroke: #2a78d6"/>
     <use xlink:href="#m9c3383bddb" x="371.559205" y="208.220044" style="fill: #2a78d6; stroke: #2a78d6"/>
     <use xlink:href="#m9c3383bddb" x="374.924916" y="208.710772" style="fill: #2a78d6; stroke: #2a78d6"/>
     <use xlink:href="#m9c3383bddb" x="378.290628" y="209.149471" style="fill: #2a78d6; stroke: #2a78d6"/>
     <use xlink:href="#m9c3383bddb" x="381.656339" y="209.543993" style="fill: #2a78d6; stroke: #2a78d6"/>
     <use xlink:href="#m9c3383bddb" x="385.02205" y="209.900687" style="fill: #2a78d6; stroke: #2a78d6"/>
     <use xlink:href="#m9c3383bddb" x="388.387762" y="210.22474" style="fill: #2a78d6; stroke: #2a78d6"/>
     <use xlink:href="#m9c3383bddb" x="391.753473" y="210.520436" style="fill: #2a78d6; stroke: #2a78d6"/>
     <use xlink:href="#m9c3383bddb" x="395.119184" y="210.791338" style="fill: #2a78d6; stroke: #2a78d6"/>
     <use xlink:href="#m9c3383bddb" x="398.484895" y="211.040438" style="fill: #2a78d6; stroke: #2a78d6"/>
     <use xlink:href="#m9c3383bddb" x="401.850607" y="211.270264" style="fill: #2a78d6; stroke: #2a78d6"/>
     <use xlink:href="#m9c3383bddb" x="405.216318" y="211.48297" style="fill: #2a78d6; stroke: #2a78d6"/>
     <use xlink:href="#m9c3383bddb" x="408.582029" y="211.680398" style="fill: #2a78d6; stroke: #2a78d6"/>
     <use xlink:href="#m9c3383bddb" x="411.94774" y="211.864138" style="fill: #2a78d6; stroke: #2a78d6"/>
     <use xlink:href="#m9c3383bddb" x="415.313452" y="212.035565" style="fill: #2a78d6; stroke: #2a78d6"/>
     <use xlink:href="#m9c3383bddb" x="418.679163" y="212.195875" style="fill: #2a78d6; stroke: #2a78d6"/>
     <use xlink:href="#m9c3383bddb" x="422.044874" y="212.346116" style="fill: #2a78d6; stroke: #2a78d6"/>
     <use xlink:href="#m9c3383bddb" x="425.410586" y="212.487208" style="fill: #2a78d6; stroke: #2a78d6"/>
     <use xlink:href="#m9c3383bddb" x="428.776297" y="212.619961" style="fill: #2a78d6; stroke: #2a78d6"/>
     <use xlink:href="#m9c3383bddb" x="432.142008" y="212.745093" style="fill: #2a78d6; stroke: #2a78d6"/>
     <use xlink:href="#m9c3383bddb" x="435.507719" y="212.863242" style="fill: #2a78d6; stroke: #2a78d6"/>
     <use xlink:href="#m9c3383bddb" x="438.873431" y="212.974976" style="fill: #2a78d6; stroke: #2a78d6"/>
     <use xlink:href="#m9c3383bddb" x="442.239142" y="213.080804" style="fill: #2a78d6; stroke: #2a78d6"/>
     <use xlink:href="#m9c3383bddb" x="445.604853" y="213.181182" style="fill: #2a78d6; stroke: #2a78d6"/>
     <use xlink:href="#m9c3383bddb" x="448.970564" y="213.276521" style="fill: #2a78d6; stroke: #2a78d6"/>
     <use xlink:href="#m9c3383bddb" x="452.336276" y="213.36719" style="fill: #2a78d6; stroke: #2a78d6"/>
     <use xlink:href="#m9c3383bddb" x="455.701987" y="213.453525" style="fill: #2a78d6; stroke: #2a78d6"/>
     <use xlink:href="#m9c3383bddb" x="459.067698" y="213.535828" style="fill: #2a78d6; stroke: #2a78d6"/>
     <use xlink:href="#m9c3383bddb" x="462.43341" y="213.614376" style="fill: #2a78d6; stroke: #2a78d6"/>
     <use xlink:href="#m9c3383bddb" x="465.799121" y="213.68942" style="fill: #2a78d6; stroke: #2a78d6"/>
     <use xlink:href="#m9c3383bddb" x="469.164832" y="213.761189" style="fill: #2a78d6; stroke: #2a78d6"/>
     <use xlink:href="#m9c3383bddb" x="472.530543" y="213.829894" style="fill: #2a78d6; stroke: #2a78d6"/>
     <use xlink:href="#m9c3383bddb" x="475.896255" y="213.895725" style="fill: #2a78d6; stroke: #2a78d6"/>
     <use xlink:href="#m9c3383bddb" x="479.261966" y="213.958861" style="fill: #2a78d6; stroke: #2a78d6"/>
     <use xlink:href="#m9c3383bddb" x="482.627677" y="214.019462" style="fill: #2a78d6; stroke: #2a78d6"/>
     <use xlink:href="#m9c3383bddb" x="485.993388" y="214.077679" style="fill: #2a78d6; stroke: #2a78d6"/>
     <use xlink:href="#m9c3383bddb" x="489.3591" y="214.133649" style="fill: #2a78d6; stroke: #2a78d6"/>
     <use xlink:href="#m9c3383bddb" x="492.724811" y="214.1875" style="fill: #2a78d6; stroke: #2a78d6"/>
     <use xlink:href="#m9c3383bddb" x="496.090522" y="214.239351" style="fill: #2a78d6; stroke: #2a78d6"/>
     <use xlink:href="#m9c3383bddb" x="499.456234" y="214.28931" style="fill: #2a78d6; stroke: #2a78d6"/>
     <use xlink:href="#m9c3383bddb" x="502.821945" y="214.337479" style="fill: #2a78d6; stroke: #2a78d6"/>
     <use xlink:href="#m9c3383bddb" x="506.187656" y="214.383954" style="fill: #2a78d6; stroke: #2a78d6"/>
     <use xlink:href="#m9c3383bddb" x="509.553367" y="214.428821" style="fill: #2a78d6; stroke: #2a78d6"/>
     <use xlink:href="#m9c3383bddb" x="512.919079" y="214.472162" style="fill: #2a78d6; stroke: #2a78d6"/>
    </g>
   </g>
   <g id="line2d_51">
    <path d="M 307.947262 216.978238 
L 522.679641 216.978238 
" clip-path="url(#pf84fddbea7)" style="fill: none; stroke-dasharray: 4.44,1.92; stroke-dashoffset: 0; stroke: #8a8983; stroke-width: 1.2"/>
   </g>
   <g id="patch_6">
    <path d="M 307.947262 239.344 
L 307.947262 52.944 
" style="fill: none; stroke: #d9d8d4; stroke-linejoin: miter; stroke-linecap: square"/>
   </g>
   <g id="patch_7">
    <path d="M 307.947262 239.344 
L 522.679641 239.344 
" style="fill: none; stroke: #d9d8d4; stroke-linejoin: miter; stroke-linecap: square"/>
   </g>
   <g id="text_32">
    <!-- df = 9: 2.262 -->
    <g style="fill: #52514e" transform="translate(378.290628 105.476219) scale(0.09 -0.09)">
     <defs>
      <path id="DejaVuSans-3d" d="M 678 2906 
L 4684 2906 
L 4684 2381 
L 678 2381 
L 678 2906 
z
M 678 1631 
L 4684 1631 
L 4684 1100 
L 678 1100 
L 678 1631 
z
" transform="scale(0.015625)"/>
      <path id="DejaVuSans-39" d="M 703 97 
L 703 672 
Q 941 559 1184 500 
Q 1428 441 1663 441 
Q 2288 441 2617 861 
Q 2947 1281 2994 2138 
Q 2813 1869 2534 1725 
Q 2256 1581 1919 1581 
Q 1219 1581 811 2004 
Q 403 2428 403 3163 
Q 403 3881 828 4315 
Q 1253 4750 1959 4750 
Q 2769 4750 3195 4129 
Q 3622 3509 3622 2328 
Q 3622 1225 3098 567 
Q 2575 -91 1691 -91 
Q 1453 -91 1209 -44 
Q 966 3 703 97 
z
M 1959 2075 
Q 2384 2075 2632 2365 
Q 2881 2656 2881 3163 
Q 2881 3666 2632 3958 
Q 2384 4250 1959 4250 
Q 1534 4250 1286 3958 
Q 1038 3666 1038 3163 
Q 1038 2656 1286 2365 
Q 1534 2075 1959 2075 
z
" transform="scale(0.015625)"/>
      <path id="DejaVuSans-3a" d="M 750 794 
L 1409 794 
L 1409 0 
L 750 0 
L 750 794 
z
M 750 3309 
L 1409 3309 
L 1409 2516 
L 750 2516 
L 750 3309 
z
" transform="scale(0.015625)"/>
     </defs>
     <use xlink:href="#DejaVuSans-64"/>
     <use xlink:href="#DejaVuSans-66" transform="translate(63.476562 0)"/>
     <use xlink:href="#DejaVuSans-20" transform="translate(98.681641 0)"/>
     <use xlink:href="#DejaVuSans-3d" transform="translate(130.46875 0)"/>
     <use xlink:href="#DejaVuSans-20" transform="translate(214.257812 0)"/>
     <use xlink:href="#DejaVuSans-39" transform="translate(246.044922 0)"/>
     <use xlink:href="#DejaVuSans-3a" transform="translate(309.667969 0)"/>
     <use xlink:href="#DejaVuSans-20" transform="translate(343.359375 0)"/>
     <use xlink:href="#DejaVuSans-32" transform="translate(375.146484 0)"/>
     <use xlink:href="#DejaVuSans-2e" transform="translate(438.769531 0)"/>
     <use xlink:href="#DejaVuSans-32" transform="translate(470.556641 0)"/>
     <use xlink:href="#DejaVuSans-36" transform="translate(534.179688 0)"/>
     <use xlink:href="#DejaVuSans-32" transform="translate(597.802734 0)"/>
    </g>
    <!-- df = 18: 2.101 -->
    <g style="fill: #52514e" transform="translate(378.290628 115.55425) scale(0.09 -0.09)">
     <defs>
      <path id="DejaVuSans-38" d="M 2034 2216 
Q 1584 2216 1326 1975 
Q 1069 1734 1069 1313 
Q 1069 891 1326 650 
Q 1584 409 2034 409 
Q 2484 409 2743 651 
Q 3003 894 3003 1313 
Q 3003 1734 2745 1975 
Q 2488 2216 2034 2216 
z
M 1403 2484 
Q 997 2584 770 2862 
Q 544 3141 544 3541 
Q 544 4100 942 4425 
Q 1341 4750 2034 4750 
Q 2731 4750 3128 4425 
Q 3525 4100 3525 3541 
Q 3525 3141 3298 2862 
Q 3072 2584 2669 2484 
Q 3125 2378 3379 2068 
Q 3634 1759 3634 1313 
Q 3634 634 3220 271 
Q 2806 -91 2034 -91 
Q 1263 -91 848 271 
Q 434 634 434 1313 
Q 434 1759 690 2068 
Q 947 2378 1403 2484 
z
M 1172 3481 
Q 1172 3119 1398 2916 
Q 1625 2713 2034 2713 
Q 2441 2713 2670 2916 
Q 2900 3119 2900 3481 
Q 2900 3844 2670 4047 
Q 2441 4250 2034 4250 
Q 1625 4250 1398 4047 
Q 1172 3844 1172 3481 
z
" transform="scale(0.015625)"/>
     </defs>
     <use xlink:href="#DejaVuSans-64"/>
     <use xlink:href="#DejaVuSans-66" transform="translate(63.476562 0)"/>
     <use xlink:href="#DejaVuSans-20" transform="translate(98.681641 0)"/>
     <use xlink:href="#DejaVuSans-3d" transform="translate(130.46875 0)"/>
     <use xlink:href="#DejaVuSans-20" transform="translate(214.257812 0)"/>
     <use xlink:href="#DejaVuSans-31" transform="translate(246.044922 0)"/>
     <use xlink:href="#DejaVuSans-38" transform="translate(309.667969 0)"/>
     <use xlink:href="#DejaVuSans-3a" transform="translate(373.291016 0)"/>
     <use xlink:href="#DejaVuSans-20" transform="translate(406.982422 0)"/>
     <use xlink:href="#DejaVuSans-32" transform="translate(438.769531 0)"/>
     <use xlink:href="#DejaVuSans-2e" transform="translate(502.392578 0)"/>
     <use xlink:href="#DejaVuSans-31" transform="translate(534.179688 0)"/>
     <use xlink:href="#DejaVuSans-30" transform="translate(597.802734 0)"/>
     <use xlink:href="#DejaVuSans-31" transform="translate(661.425781 0)"/>
    </g>
    <!-- df = 30: 2.042 -->
    <g style="fill: #52514e" transform="translate(378.290628 125.632281) scale(0.09 -0.09)">
     <use xlink:href="#DejaVuSans-64"/>
     <use xlink:href="#DejaVuSans-66" transform="translate(63.476562 0)"/>
     <use xlink:href="#DejaVuSans-20" transform="translate(98.681641 0)"/>
     <use xlink:href="#DejaVuSans-3d" transform="translate(130.46875 0)"/>
     <use xlink:href="#DejaVuSans-20" transform="translate(214.257812 0)"/>
     <use xlink:href="#DejaVuSans-33" transform="translate(246.044922 0)"/>
     <use xlink:href="#DejaVuSans-30" transform="translate(309.667969 0)"/>
     <use xlink:href="#DejaVuSans-3a" transform="translate(373.291016 0)"/>
     <use xlink:href="#DejaVuSans-20" transform="translate(406.982422 0)"/>
     <use xlink:href="#DejaVuSans-32" transform="translate(438.769531 0)"/>
     <use xlink:href="#DejaVuSans-2e" transform="translate(502.392578 0)"/>
     <use xlink:href="#DejaVuSans-30" transform="translate(534.179688 0)"/>
     <use xlink:href="#DejaVuSans-34" transform="translate(597.802734 0)"/>
     <use xlink:href="#DejaVuSans-32" transform="translate(661.425781 0)"/>
    </g>
   </g>
   <g id="text_33">
    <!-- z = 1.960, the df $\to\ \infty$ limit -->
    <g style="fill: #52514e" transform="translate(411.94774 230.016281) scale(0.09 -0.09)">
     <defs>
      <path id="DejaVuSans-7a" d="M 353 3500 
L 3084 3500 
L 3084 2975 
L 922 459 
L 3084 459 
L 3084 0 
L 275 0 
L 275 525 
L 2438 3041 
L 353 3041 
L 353 3500 
z
" transform="scale(0.015625)"/>
      <path id="DejaVuSans-2c" d="M 750 794 
L 1409 794 
L 1409 256 
L 897 -744 
L 494 -744 
L 750 256 
L 750 794 
z
" transform="scale(0.015625)"/>
      <path id="DejaVuSans-68" d="M 3513 2113 
L 3513 0 
L 2938 0 
L 2938 2094 
Q 2938 2591 2744 2837 
Q 2550 3084 2163 3084 
Q 1697 3084 1428 2787 
Q 1159 2491 1159 1978 
L 1159 0 
L 581 0 
L 581 4863 
L 1159 4863 
L 1159 2956 
Q 1366 3272 1645 3428 
Q 1925 3584 2291 3584 
Q 2894 3584 3203 3211 
Q 3513 2838 3513 2113 
z
" transform="scale(0.015625)"/>
      <path id="DejaVuSans-2192" d="M 5050 2147 
L 5050 1866 
L 3822 638 
L 3447 1013 
L 4175 1741 
L 366 1741 
L 366 2272 
L 4175 2272 
L 3447 3000 
L 3822 3375 
L 5050 2147 
z
" transform="scale(0.015625)"/>
      <path id="DejaVuSans-221e" d="M 2916 1091 
Q 2819 1203 2666 1466 
Q 2456 1091 2272 925 
Q 2041 725 1681 725 
Q 1259 725 981 1041 
Q 688 1372 688 1919 
Q 688 2444 981 2800 
Q 1244 3116 1688 3116 
Q 1916 3116 2084 3022 
Q 2281 2919 2416 2741 
Q 2541 2581 2666 2366 
Q 2875 2741 3059 2906 
Q 3291 3106 3650 3106 
Q 4072 3106 4350 2791 
Q 4644 2459 4644 1913 
Q 4644 1388 4350 1031 
Q 4088 716 3644 716 
Q 3416 716 3247 809 
Q 3078 894 2916 1091 
z
M 1647 1134 
Q 2163 1134 2472 1884 
Q 2075 2703 1647 2703 
Q 1334 2703 1175 2478 
Q 1003 2238 1003 1919 
Q 1003 1569 1175 1353 
Q 1350 1134 1647 1134 
z
M 3684 2697 
Q 3219 2697 2859 1947 
Q 3253 1128 3684 1128 
Q 3997 1128 4156 1353 
Q 4328 1594 4328 1913 
Q 4328 2263 4156 2478 
Q 3981 2697 3684 2697 
z
" transform="scale(0.015625)"/>
     </defs>
     <use xlink:href="#DejaVuSans-7a" transform="translate(0 0.015625)"/>
     <use xlink:href="#DejaVuSans-20" transform="translate(52.490234 0.015625)"/>
     <use xlink:href="#DejaVuSans-3d" transform="translate(84.277344 0.015625)"/>
     <use xlink:href="#DejaVuSans-20" transform="translate(168.066406 0.015625)"/>
     <use xlink:href="#DejaVuSans-31" transform="translate(199.853516 0.015625)"/>
     <use xlink:href="#DejaVuSans-2e" transform="translate(263.476562 0.015625)"/>
     <use xlink:href="#DejaVuSans-39" transform="translate(295.263672 0.015625)"/>
     <use xlink:href="#DejaVuSans-36" transform="translate(358.886719 0.015625)"/>
     <use xlink:href="#DejaVuSans-30" transform="translate(422.509766 0.015625)"/>
     <use xlink:href="#DejaVuSans-2c" transform="translate(486.132812 0.015625)"/>
     <use xlink:href="#DejaVuSans-20" transform="translate(517.919922 0.015625)"/>
     <use xlink:href="#DejaVuSans-74" transform="translate(549.707031 0.015625)"/>
     <use xlink:href="#DejaVuSans-68" transform="translate(588.916016 0.015625)"/>
     <use xlink:href="#DejaVuSans-65" transform="translate(652.294922 0.015625)"/>
     <use xlink:href="#DejaVuSans-20" transform="translate(713.818359 0.015625)"/>
     <use xlink:href="#DejaVuSans-64" transform="translate(745.605469 0.015625)"/>
     <use xlink:href="#DejaVuSans-66" transform="translate(809.082031 0.015625)"/>
     <use xlink:href="#DejaVuSans-20" transform="translate(844.287109 0.015625)"/>
     <use xlink:href="#DejaVuSans-2192" transform="translate(895.556641 0.015625)"/>
     <use xlink:href="#DejaVuSans-221e" transform="translate(1031.298503 0.015625)"/>
     <use xlink:href="#DejaVuSans-20" transform="translate(1114.599285 0.015625)"/>
     <use xlink:href="#DejaVuSans-6c" transform="translate(1146.386394 0.015625)"/>
     <use xlink:href="#DejaVuSans-69" transform="translate(1174.169597 0.015625)"/>
     <use xlink:href="#DejaVuSans-6d" transform="translate(1201.9528 0.015625)"/>
     <use xlink:href="#DejaVuSans-69" transform="translate(1299.36491 0.015625)"/>
     <use xlink:href="#DejaVuSans-74" transform="translate(1327.148113 0.015625)"/>
    </g>
   </g>
   <g id="text_34">
    <!-- the multiplier shrinks toward z -->
    <g style="fill: #0b0b0b" transform="translate(319.500014 46.944) scale(0.11 -0.11)">
     <defs>
      <path id="DejaVuSans-Bold-68" d="M 4056 2131 
L 4056 0 
L 2931 0 
L 2931 347 
L 2931 1625 
Q 2931 2084 2911 2256 
Q 2891 2428 2841 2509 
Q 2775 2619 2662 2680 
Q 2550 2741 2406 2741 
Q 2056 2741 1856 2470 
Q 1656 2200 1656 1722 
L 1656 0 
L 538 0 
L 538 4863 
L 1656 4863 
L 1656 2988 
Q 1909 3294 2193 3439 
Q 2478 3584 2822 3584 
Q 3428 3584 3742 3212 
Q 4056 2841 4056 2131 
z
" transform="scale(0.015625)"/>
      <path id="DejaVuSans-Bold-75" d="M 500 1363 
L 500 3500 
L 1625 3500 
L 1625 3150 
Q 1625 2866 1622 2436 
Q 1619 2006 1619 1863 
Q 1619 1441 1641 1255 
Q 1663 1069 1716 984 
Q 1784 875 1895 815 
Q 2006 756 2150 756 
Q 2500 756 2700 1025 
Q 2900 1294 2900 1772 
L 2900 3500 
L 4019 3500 
L 4019 0 
L 2900 0 
L 2900 506 
Q 2647 200 2364 54 
Q 2081 -91 1741 -91 
Q 1134 -91 817 281 
Q 500 653 500 1363 
z
" transform="scale(0.015625)"/>
      <path id="DejaVuSans-Bold-6b" d="M 538 4863 
L 1656 4863 
L 1656 2216 
L 2944 3500 
L 4244 3500 
L 2534 1894 
L 4378 0 
L 3022 0 
L 1656 1459 
L 1656 0 
L 538 0 
L 538 4863 
z
" transform="scale(0.015625)"/>
      <path id="DejaVuSans-Bold-77" d="M 225 3500 
L 1313 3500 
L 1900 1088 
L 2491 3500 
L 3425 3500 
L 4013 1113 
L 4603 3500 
L 5691 3500 
L 4769 0 
L 3547 0 
L 2956 2406 
L 2369 0 
L 1147 0 
L 225 3500 
z
" transform="scale(0.015625)"/>
      <path id="DejaVuSans-Bold-7a" d="M 366 3500 
L 3419 3500 
L 3419 2719 
L 1575 800 
L 3419 800 
L 3419 0 
L 288 0 
L 288 781 
L 2131 2700 
L 366 2700 
L 366 3500 
z
" transform="scale(0.015625)"/>
     </defs>
     <use xlink:href="#DejaVuSans-Bold-74"/>
     <use xlink:href="#DejaVuSans-Bold-68" transform="translate(47.802734 0)"/>
     <use xlink:href="#DejaVuSans-Bold-65" transform="translate(118.994141 0)"/>
     <use xlink:href="#DejaVuSans-Bold-20" transform="translate(186.816406 0)"/>
     <use xlink:href="#DejaVuSans-Bold-6d" transform="translate(221.630859 0)"/>
     <use xlink:href="#DejaVuSans-Bold-75" transform="translate(325.830078 0)"/>
     <use xlink:href="#DejaVuSans-Bold-6c" transform="translate(397.021484 0)"/>
     <use xlink:href="#DejaVuSans-Bold-74" transform="translate(431.298828 0)"/>
     <use xlink:href="#DejaVuSans-Bold-69" transform="translate(479.101562 0)"/>
     <use xlink:href="#DejaVuSans-Bold-70" transform="translate(513.378906 0)"/>
     <use xlink:href="#DejaVuSans-Bold-6c" transform="translate(584.960938 0)"/>
     <use xlink:href="#DejaVuSans-Bold-69" transform="translate(619.238281 0)"/>
     <use xlink:href="#DejaVuSans-Bold-65" transform="translate(653.515625 0)"/>
     <use xlink:href="#DejaVuSans-Bold-72" transform="translate(721.337891 0)"/>
     <use xlink:href="#DejaVuSans-Bold-20" transform="translate(770.654297 0)"/>
     <use xlink:href="#DejaVuSans-Bold-73" transform="translate(805.46875 0)"/>
     <use xlink:href="#DejaVuSans-Bold-68" transform="translate(864.990234 0)"/>
     <use xlink:href="#DejaVuSans-Bold-72" transform="translate(936.181641 0)"/>
     <use xlink:href="#DejaVuSans-Bold-69" transform="translate(985.498047 0)"/>
     <use xlink:href="#DejaVuSans-Bold-6e" transform="translate(1019.775391 0)"/>
     <use xlink:href="#DejaVuSans-Bold-6b" transform="translate(1090.966797 0)"/>
     <use xlink:href="#DejaVuSans-Bold-73" transform="translate(1157.470703 0)"/>
     <use xlink:href="#DejaVuSans-Bold-20" transform="translate(1216.992188 0)"/>
     <use xlink:href="#DejaVuSans-Bold-74" transform="translate(1251.806641 0)"/>
     <use xlink:href="#DejaVuSans-Bold-6f" transform="translate(1299.609375 0)"/>
     <use xlink:href="#DejaVuSans-Bold-77" transform="translate(1368.310547 0)"/>
     <use xlink:href="#DejaVuSans-Bold-61" transform="translate(1460.693359 0)"/>
     <use xlink:href="#DejaVuSans-Bold-72" transform="translate(1528.173828 0)"/>
     <use xlink:href="#DejaVuSans-Bold-64" transform="translate(1577.490234 0)"/>
     <use xlink:href="#DejaVuSans-Bold-20" transform="translate(1649.072266 0)"/>
     <use xlink:href="#DejaVuSans-Bold-7a" transform="translate(1683.886719 0)"/>
    </g>
   </g>
  </g>
  <g id="text_35">
   <!-- Choosing between t and z is choosing what you know -->
   <g style="fill: #0b0b0b" transform="translate(95.023906 16.318125) scale(0.12 -0.12)">
    <defs>
     <path id="DejaVuSans-Bold-43" d="M 4288 256 
Q 3956 84 3597 -3 
Q 3238 -91 2847 -91 
Q 1681 -91 1000 561 
Q 319 1213 319 2328 
Q 319 3447 1000 4098 
Q 1681 4750 2847 4750 
Q 3238 4750 3597 4662 
Q 3956 4575 4288 4403 
L 4288 3438 
Q 3953 3666 3628 3772 
Q 3303 3878 2944 3878 
Q 2300 3878 1931 3465 
Q 1563 3053 1563 2328 
Q 1563 1606 1931 1193 
Q 2300 781 2944 781 
Q 3303 781 3628 887 
Q 3953 994 4288 1222 
L 4288 256 
z
" transform="scale(0.015625)"/>
     <path id="DejaVuSans-Bold-62" d="M 2400 722 
Q 2759 722 2948 984 
Q 3138 1247 3138 1747 
Q 3138 2247 2948 2509 
Q 2759 2772 2400 2772 
Q 2041 2772 1848 2508 
Q 1656 2244 1656 1747 
Q 1656 1250 1848 986 
Q 2041 722 2400 722 
z
M 1656 2988 
Q 1888 3294 2169 3439 
Q 2450 3584 2816 3584 
Q 3463 3584 3878 3070 
Q 4294 2556 4294 1747 
Q 4294 938 3878 423 
Q 3463 -91 2816 -91 
Q 2450 -91 2169 54 
Q 1888 200 1656 506 
L 1656 0 
L 538 0 
L 538 4863 
L 1656 4863 
L 1656 2988 
z
" transform="scale(0.015625)"/>
     <path id="DejaVuSans-Bold-63" d="M 3366 3391 
L 3366 2478 
Q 3138 2634 2908 2709 
Q 2678 2784 2431 2784 
Q 1963 2784 1702 2511 
Q 1441 2238 1441 1747 
Q 1441 1256 1702 982 
Q 1963 709 2431 709 
Q 2694 709 2930 787 
Q 3166 866 3366 1019 
L 3366 103 
Q 3103 6 2833 -42 
Q 2563 -91 2291 -91 
Q 1344 -91 809 395 
Q 275 881 275 1747 
Q 275 2613 809 3098 
Q 1344 3584 2291 3584 
Q 2566 3584 2833 3536 
Q 3100 3488 3366 3391 
z
" transform="scale(0.015625)"/>
    </defs>
    <use xlink:href="#DejaVuSans-Bold-43"/>
    <use xlink:href="#DejaVuSans-Bold-68" transform="translate(73.388672 0)"/>
    <use xlink:href="#DejaVuSans-Bold-6f" transform="translate(144.580078 0)"/>
    <use xlink:href="#DejaVuSans-Bold-6f" transform="translate(213.28125 0)"/>
    <use xlink:href="#DejaVuSans-Bold-73" transform="translate(281.982422 0)"/>
    <use xlink:href="#DejaVuSans-Bold-69" transform="translate(341.503906 0)"/>
    <use xlink:href="#DejaVuSans-Bold-6e" transform="translate(375.78125 0)"/>
    <use xlink:href="#DejaVuSans-Bold-67" transform="translate(446.972656 0)"/>
    <use xlink:href="#DejaVuSans-Bold-20" transform="translate(518.554688 0)"/>
    <use xlink:href="#DejaVuSans-Bold-62" transform="translate(553.369141 0)"/>
    <use xlink:href="#DejaVuSans-Bold-65" transform="translate(624.951172 0)"/>
    <use xlink:href="#DejaVuSans-Bold-74" transform="translate(692.773438 0)"/>
    <use xlink:href="#DejaVuSans-Bold-77" transform="translate(740.576172 0)"/>
    <use xlink:href="#DejaVuSans-Bold-65" transform="translate(832.958984 0)"/>
    <use xlink:href="#DejaVuSans-Bold-65" transform="translate(900.78125 0)"/>
    <use xlink:href="#DejaVuSans-Bold-6e" transform="translate(968.603516 0)"/>
    <use xlink:href="#DejaVuSans-Bold-20" transform="translate(1039.794922 0)"/>
    <use xlink:href="#DejaVuSans-Bold-74" transform="translate(1074.609375 0)"/>
    <use xlink:href="#DejaVuSans-Bold-20" transform="translate(1122.412109 0)"/>
    <use xlink:href="#DejaVuSans-Bold-61" transform="translate(1157.226562 0)"/>
    <use xlink:href="#DejaVuSans-Bold-6e" transform="translate(1224.707031 0)"/>
    <use xlink:href="#DejaVuSans-Bold-64" transform="translate(1295.898438 0)"/>
    <use xlink:href="#DejaVuSans-Bold-20" transform="translate(1367.480469 0)"/>
    <use xlink:href="#DejaVuSans-Bold-7a" transform="translate(1402.294922 0)"/>
    <use xlink:href="#DejaVuSans-Bold-20" transform="translate(1460.498047 0)"/>
    <use xlink:href="#DejaVuSans-Bold-69" transform="translate(1495.3125 0)"/>
    <use xlink:href="#DejaVuSans-Bold-73" transform="translate(1529.589844 0)"/>
    <use xlink:href="#DejaVuSans-Bold-20" transform="translate(1589.111328 0)"/>
    <use xlink:href="#DejaVuSans-Bold-63" transform="translate(1623.925781 0)"/>
    <use xlink:href="#DejaVuSans-Bold-68" transform="translate(1683.203125 0)"/>
    <use xlink:href="#DejaVuSans-Bold-6f" transform="translate(1754.394531 0)"/>
    <use xlink:href="#DejaVuSans-Bold-6f" transform="translate(1823.095703 0)"/>
    <use xlink:href="#DejaVuSans-Bold-73" transform="translate(1891.796875 0)"/>
    <use xlink:href="#DejaVuSans-Bold-69" transform="translate(1951.318359 0)"/>
    <use xlink:href="#DejaVuSans-Bold-6e" transform="translate(1985.595703 0)"/>
    <use xlink:href="#DejaVuSans-Bold-67" transform="translate(2056.787109 0)"/>
    <use xlink:href="#DejaVuSans-Bold-20" transform="translate(2128.369141 0)"/>
    <use xlink:href="#DejaVuSans-Bold-77" transform="translate(2163.183594 0)"/>
    <use xlink:href="#DejaVuSans-Bold-68" transform="translate(2255.566406 0)"/>
    <use xlink:href="#DejaVuSans-Bold-61" transform="translate(2326.757812 0)"/>
    <use xlink:href="#DejaVuSans-Bold-74" transform="translate(2394.238281 0)"/>
    <use xlink:href="#DejaVuSans-Bold-20" transform="translate(2442.041016 0)"/>
    <use xlink:href="#DejaVuSans-Bold-79" transform="translate(2476.855469 0)"/>
    <use xlink:href="#DejaVuSans-Bold-6f" transform="translate(2542.041016 0)"/>
    <use xlink:href="#DejaVuSans-Bold-75" transform="translate(2610.742188 0)"/>
    <use xlink:href="#DejaVuSans-Bold-20" transform="translate(2681.933594 0)"/>
    <use xlink:href="#DejaVuSans-Bold-6b" transform="translate(2716.748047 0)"/>
    <use xlink:href="#DejaVuSans-Bold-6e" transform="translate(2783.251953 0)"/>
    <use xlink:href="#DejaVuSans-Bold-6f" transform="translate(2854.443359 0)"/>
    <use xlink:href="#DejaVuSans-Bold-77" transform="translate(2923.144531 0)"/>
   </g>
  </g>
 </g>
 <defs>
  <clipPath id="p04a1474a5d">
   <rect x="43.953906" y="52.944" width="214.732379" height="186.4"/>
  </clipPath>
  <clipPath id="pf84fddbea7">
   <rect x="307.947262" y="52.944" width="214.732379" height="186.4"/>
  </clipPath>
 </defs>
</svg>
